SplineFontDB: 3.2
FontName: aAgreementSignature
FullName: Agreement_Signature_
FamilyName: a Agreement Signature
Weight: Book
Copyright: Copyright (c) 2020, wep
Version: 001.000
ItalicAngle: 0
UnderlinePosition: -100
UnderlineWidth: 51
Ascent: 625
Descent: 399
InvalidEm: 0
sfntRevision: 0x00010000
LayerCount: 2
Layer: 0 0 "Back" 1
Layer: 1 0 "Fore" 0
XUID: [1021 534 -1078652317 13387]
StyleMap: 0x0000
FSType: 0
OS2Version: 4
OS2_WeightWidthSlopeOnly: 0
OS2_UseTypoMetrics: 1
CreationTime: 1604697206
ModificationTime: 1667809775
PfmFamily: 17
TTFWeight: 400
TTFWidth: 5
LineGap: 92
VLineGap: 0
Panose: 2 0 5 3 0 0 0 0 0 0
OS2TypoAscent: 625
OS2TypoAOffset: 0
OS2TypoDescent: -399
OS2TypoDOffset: 0
OS2TypoLinegap: 92
OS2WinAscent: 625
OS2WinAOffset: 0
OS2WinDescent: 399
OS2WinDOffset: 0
HheadAscent: 625
HheadAOffset: 0
HheadDescent: -399
HheadDOffset: 0
OS2SubXSize: 665
OS2SubYSize: 716
OS2SubXOff: 0
OS2SubYOff: 143
OS2SupXSize: 665
OS2SupYSize: 716
OS2SupXOff: 0
OS2SupYOff: 491
OS2StrikeYSize: 51
OS2StrikeYPos: 265
OS2CapHeight: 512
OS2XHeight: 208
OS2Vendor: 'PfEd'
OS2CodePages: 00000001.00000000
OS2UnicodeRanges: 00000001.00000000.00000000.00000000
Lookup: 258 0 0 "'kern' Horizontal Kerning in Latin lookup 0" { "'kern' Horizontal Kerning in Latin lookup 0 kerning class 0"  "'kern' Horizontal Kerning in Latin lookup 0 kerning class 1"  "'kern' Horizontal Kerning in Latin lookup 0 per glyph data 2"  } ['kern' ('DFLT' <'dflt' > 'latn' <'dflt' > ) ]
MarkAttachClasses: 1
DEI: 91125
KernClass2: 4 2 "'kern' Horizontal Kerning in Latin lookup 0 kerning class 0"
 1 F
 1 T
 1 P
 41 a c d e f g i j m n o p q r s u v w x y z
 0 {} 0 {} 0 {} -246 {} 0 {} -287 {} 0 {} -82 {}
KernClass2: 2 2 "'kern' Horizontal Kerning in Latin lookup 0 kerning class 1"
 51 a b c d e f g h i j k l m n o p q r s t u v w x y z

StartChar: .notdef
Encoding: 65536 -1 0
Width: 736
GlyphClass: 1
Flags: W
LayerCount: 2
Fore
SplineSet
42 22 m 0
 42 84 73.33203125 137.333007812 135.999023438 182 c 0
 200.666015625 227.333007812 278.333007812 250 369 250 c 0
 466.333007812 250 547.333007812 224.666992188 612 174 c 0
 666.666992188 130 694.333984375 79.3330078125 695.000976562 22 c 0
 695.000976562 -40 664.000976562 -93.3330078125 602.000976562 -138 c 0
 537.333984375 -184 459.666992188 -207 369 -207 c 0
 272.333007812 -207 191.333007812 -181.666992188 126 -131 c 0
 70.6669921875 -87 42.6669921875 -36 42 22 c 0
114.999023438 -11 m 0
 131.666015625 -8.3330078125 148.994140625 0.666015625 166.994140625 15.9990234375 c 1
 169.661132812 6.666015625 175.994140625 1.666015625 185.994140625 0.9990234375 c 0
 201.327148438 1.666015625 214.994140625 10.666015625 226.994140625 27.9990234375 c 1
 240.994140625 16.666015625 256.661132812 10.9990234375 273.994140625 10.9990234375 c 0
 288.661132812 11.666015625 302.328125 15.666015625 314.995117188 22.9990234375 c 1
 313.662109375 17.666015625 312.995117188 13.3330078125 312.995117188 10 c 0
 315.662109375 -4.6669921875 326.662109375 -12.6669921875 345.995117188 -14 c 0
 373.328125 -13.3330078125 405.995117188 1 443.995117188 29 c 1
 429.328125 -67 418.995117188 -128.666992188 412.995117188 -156 c 0
 408.328125 -165.333007812 405.995117188 -171 405.995117188 -173 c 0
 406.662109375 -173.666992188 409.329101562 -174 413.99609375 -174 c 0
 422.663085938 -172.666992188 427.330078125 -169.333984375 427.997070312 -164.000976562 c 2
 427.997070312 -162.000976562 l 1
 427.997070312 -158.000976562 l 1
 439.330078125 -115.333984375 457.663085938 -68.6669921875 482.99609375 -18 c 1
 484.99609375 -18 l 2
 563.663085938 -17.3330078125 621.663085938 1.333984375 658.99609375 38.0009765625 c 1
 653.99609375 44.0009765625 l 1
 624.663085938 14.66796875 583.99609375 -1.33203125 531.99609375 -3.9990234375 c 1
 567.99609375 18.0009765625 586.99609375 43.333984375 588.99609375 72.0009765625 c 0
 586.99609375 90.0009765625 578.99609375 100.000976562 564.99609375 102.000976562 c 0
 561.663085938 102.000976562 558.330078125 101.16796875 554.997070312 99.5009765625 c 0
 551.6640625 97.833984375 548.6640625 96.1669921875 545.997070312 94.5 c 0
 543.330078125 92.8330078125 540.163085938 90 536.49609375 86 c 0
 532.829101562 82 530.329101562 79 528.99609375 77 c 0
 527.663085938 75 525.330078125 71.6669921875 521.997070312 67 c 2
 515.997070312 60 l 1
 495.997070312 28 484.997070312 9.6669921875 482.997070312 5 c 0
 480.997070312 5 478.497070312 4.3330078125 475.497070312 3 c 0
 472.497070312 1.6669921875 468.997070312 0 464.997070312 -2 c 2
 458.997070312 -4 l 1
 456.997070312 -6 l 1
 463.6640625 -12 468.331054688 -15.6669921875 470.998046875 -17 c 1
 456.998046875 -45 447.331054688 -65.6669921875 441.998046875 -79 c 1
 445.331054688 -61 450.6640625 -33.3330078125 457.997070312 4 c 0
 464.6640625 40.6669921875 469.6640625 68 472.997070312 86 c 0
 475.6640625 96.6669921875 476.997070312 105.333984375 476.997070312 112.000976562 c 0
 476.997070312 112.66796875 476.6640625 113.66796875 475.997070312 115.000976562 c 2
 475.997070312 118.000976562 l 1
 458.997070312 115.000976562 l 2
 456.997070312 111.66796875 454.997070312 102.000976562 452.997070312 86.0009765625 c 0
 451.6640625 78.66796875 450.6640625 71.66796875 449.997070312 65.0009765625 c 0
 448.6640625 57.0009765625 447.331054688 48.66796875 445.998046875 40.0009765625 c 1
 419.331054688 17.333984375 392.998046875 3.333984375 366.998046875 -1.9990234375 c 0
 362.331054688 -2.666015625 358.331054688 -2.9990234375 354.998046875 -2.9990234375 c 0
 341.665039062 -1.666015625 334.665039062 4.0009765625 333.998046875 14.0009765625 c 0
 333.998046875 20.0009765625 334.998046875 25.0009765625 336.998046875 29.0009765625 c 1
 352.998046875 29.0009765625 365.331054688 35.66796875 373.998046875 49.0009765625 c 0
 377.998046875 55.0009765625 379.998046875 61.333984375 379.998046875 68.0009765625 c 0
 378.665039062 75.333984375 374.33203125 79.333984375 366.999023438 80.0009765625 c 0
 348.33203125 80.0009765625 332.999023438 67.66796875 320.999023438 43.0009765625 c 0
 319.666015625 40.333984375 318.666015625 37.6669921875 317.999023438 35 c 0
 307.33203125 27 296.999023438 23 286.999023438 23 c 0
 262.999023438 23.6669921875 245.999023438 30.6669921875 235.999023438 44 c 0
 237.33203125 47.3330078125 237.999023438 52 237.999023438 58 c 0
 236.666015625 68 231.333007812 73.3330078125 222 74 c 0
 217.333007812 73.3330078125 215 67 215 55 c 0
 215 48.3330078125 215.666992188 43.666015625 217 40.9990234375 c 0
 211.666992188 28.9990234375 205 22.666015625 197 21.9990234375 c 0
 193 23.33203125 190.666992188 25.9990234375 190 29.9990234375 c 0
 190.666992188 33.33203125 191.666992188 36.9990234375 193 40.9990234375 c 2
 194 41.9990234375 l 2
 194.666992188 43.33203125 195 44.33203125 195 44.9990234375 c 2
 195 45.9990234375 l 1
 185 49.9990234375 179 51.9990234375 177 51.9990234375 c 0
 174.333007812 50.666015625 170.666015625 47.3330078125 165.999023438 42 c 0
 150.666015625 22.6669921875 138.999023438 12.6669921875 130.999023438 12 c 0
 126.999023438 13.3330078125 124.999023438 17 124.999023438 23 c 0
 124.999023438 25 125.166015625 27.1669921875 125.499023438 29.5 c 0
 125.83203125 31.8330078125 125.999023438 34 125.999023438 36 c 2
 126.999023438 38 l 1
 126.33203125 57.3330078125 121.33203125 67.3330078125 111.999023438 68 c 0
 105.33203125 68 99.9990234375 63.6669921875 95.9990234375 55 c 0
 94.666015625 52.3330078125 93.9990234375 50 93.9990234375 48 c 2
 94.9990234375 46 l 2
 98.33203125 42 99.9990234375 36 99.9990234375 28 c 2
 99.9990234375 14 l 2
 100.666015625 2 102.333007812 -5.3330078125 105 -8 c 0
 106.333007812 -8.6669921875 109.666015625 -9.6669921875 114.999023438 -11 c 0
340.994140625 38.9990234375 m 1
 347.661132812 52.9990234375 353.994140625 60.666015625 359.994140625 61.9990234375 c 0
 361.994140625 61.33203125 363.327148438 59.9990234375 363.994140625 57.9990234375 c 0
 362.661132812 45.9990234375 354.994140625 39.666015625 340.994140625 38.9990234375 c 1
498.994140625 9.9990234375 m 1
 508.994140625 27.33203125 518.661132812 42.6650390625 527.994140625 55.998046875 c 0
 539.994140625 68.6650390625 549.327148438 77.33203125 555.994140625 81.9990234375 c 2
 560.994140625 83.9990234375 l 2
 564.327148438 82.666015625 566.327148438 79.666015625 566.994140625 74.9990234375 c 0
 562.994140625 54.9990234375 548.327148438 36.666015625 522.994140625 19.9990234375 c 0
 512.994140625 15.9990234375 504.994140625 12.666015625 498.994140625 9.9990234375 c 1
EndSplineSet
Validated: 1
EndChar

StartChar: exclam
Encoding: 33 33 2
Width: 119
GlyphClass: 2
Flags: W
LayerCount: 2
Fore
SplineSet
27 38 m 2
 26.3330078125 41.3330078125 23 45.6669921875 17 51 c 0
 13.6669921875 55 12 58.6669921875 12 62 c 2
 12 65 l 2
 12.6669921875 66.3330078125 13 67.3330078125 13 68 c 2
 47 79 l 1
 48.3330078125 74.3330078125 49 71 49 69 c 0
 47.6669921875 61 43.6669921875 53.6669921875 37 47 c 0
 35 43.6669921875 33.3330078125 40.6669921875 32 38 c 2
 27 38 l 2
81 466.000976562 m 1
 78.9990234375 467.000976562 l 1
 79.666015625 471.66796875 81.3330078125 477.66796875 84 485.000976562 c 0
 86 484.333984375 88.6669921875 484.000976562 92 484.000976562 c 2
 97 484.000976562 l 2
 107 482.66796875 112.333007812 479.334960938 113 474.001953125 c 0
 113 472.001953125 112.833007812 469.501953125 112.5 466.501953125 c 0
 112.166992188 463.501953125 112 461.001953125 112 459.001953125 c 2
 111 456.001953125 l 2
 106.333007812 434.001953125 99.666015625 400.001953125 90.9990234375 354.001953125 c 0
 73.666015625 259.334960938 57.9990234375 190.66796875 43.9990234375 148.000976562 c 1
 41.9990234375 148.000976562 l 1
 42.666015625 201.333984375 52.3330078125 285.666992188 71 401 c 0
 75 427.666992188 78.3330078125 449.333984375 81 466.000976562 c 1
EndSplineSet
Validated: 1
EndChar

StartChar: quotedbl
Encoding: 34 34 3
Width: 180
GlyphClass: 2
Flags: W
LayerCount: 2
Fore
SplineSet
143 498 m 0
 143 479.333007812 135 442.333984375 119 387.000976562 c 1
 115 387.000976562 l 1
 114.333007812 396.333984375 113 404.666992188 111 412 c 0
 111 414.666992188 111.333007812 424.333984375 112 441.000976562 c 0
 114 476.333984375 115.333007812 496.666992188 116 502 c 1
 141 511 l 1
 142.333007812 505 143 500.666992188 143 498 c 0
82 498.000976562 m 0
 82 479.333984375 74 442.334960938 58 387.001953125 c 1
 54 387.001953125 l 1
 53.3330078125 396.334960938 52 404.66796875 50 412.000976562 c 0
 50 414.66796875 50.3330078125 424.334960938 51 441.001953125 c 0
 53 476.334960938 54.3330078125 496.66796875 55 502.000976562 c 1
 80 511.000976562 l 1
 81.3330078125 505.000976562 82 500.66796875 82 498.000976562 c 0
EndSplineSet
Validated: 1
EndChar

StartChar: numbersign
Encoding: 35 35 4
Width: 290
GlyphClass: 2
Flags: W
LayerCount: 2
Fore
SplineSet
29 212 m 2
 26.0009765625 212.001953125 l 2
 20.0009765625 216.001953125 16.0009765625 221.668945312 14.0009765625 229.001953125 c 1
 19.333984375 243.668945312 36.6669921875 252.001953125 66 254.001953125 c 0
 76.6669921875 255.334960938 82.6669921875 256.001953125 84 256.001953125 c 2
 105 259.001953125 l 1
 107.666992188 267.001953125 119.666992188 302.334960938 141 365.001953125 c 0
 143 365.001953125 145.666992188 365.334960938 149 366.001953125 c 2
 155 366.001953125 l 2
 166.333007812 365.334960938 172.333007812 362.334960938 173 357.001953125 c 2
 170 344.001953125 l 1
 156.666992188 316.668945312 145.333984375 289.668945312 136.000976562 263.001953125 c 1
 165.333984375 267.001953125 187.666992188 269.334960938 203 270.001953125 c 1
 207.666992188 281.334960938 214.666992188 298.001953125 224 320.001953125 c 0
 240 354.668945312 251.333007812 381.001953125 258 399.001953125 c 0
 265.333007812 415.001953125 272.333007812 425.334960938 279 430.001953125 c 1
 296 418.001953125 l 1
 296 417.001953125 l 1
 273.333007812 376.334960938 250.666015625 327.334960938 227.999023438 270.001953125 c 1
 249.999023438 270.001953125 269.999023438 267.001953125 287.999023438 261.001953125 c 1
 287.999023438 260.001953125 l 1
 268.666015625 251.334960938 244.666015625 244.334960938 215.999023438 239.001953125 c 1
 206.999023438 215.001953125 l 1
 218.999023438 215.001953125 240.33203125 212.668945312 270.999023438 208.001953125 c 0
 272.999023438 207.334960938 274.666015625 207.001953125 275.999023438 207.001953125 c 1
 258.666015625 198.334960938 232.333007812 192.001953125 197 188.001953125 c 1
 152.333007812 71.3349609375 118 -9.998046875 94 -55.998046875 c 1
 93 -54.998046875 l 1
 105 16.3349609375 129.333007812 96.001953125 166 184.001953125 c 1
 159.333007812 183.334960938 149 182.334960938 135 181.001953125 c 0
 121 180.334960938 111 179.66796875 105 179.000976562 c 1
 91.6669921875 140.333984375 77.333984375 106.000976562 62.0009765625 76.0009765625 c 1
 60.0009765625 76.0009765625 l 1
 64.0009765625 100.000976562 71.333984375 133.66796875 82.0009765625 177.000976562 c 1
 69.333984375 176.333984375 51.333984375 174.666992188 28.0009765625 172 c 0
 15.333984375 171.333007812 6.333984375 170.666015625 1.0009765625 169.999023438 c 1
 5.0009765625 172.999023438 l 1
 3.0009765625 172.999023438 l 1
 -11.9990234375 182.999023438 l 1
 6.0009765625 198.999023438 40.333984375 208.666015625 91.0009765625 211.999023438 c 0
 91.66796875 213.33203125 92.0009765625 214.999023438 92.0009765625 216.999023438 c 0
 93.333984375 219.666015625 94.0009765625 221.333007812 94.0009765625 222 c 1
 67.333984375 218 48.6669921875 214.333007812 38 211 c 1
 37 212 l 1
 38 214 l 1
 34 212.666992188 31 212 29 212 c 2
118.000976562 213.001953125 m 1
 124.66796875 213.001953125 134.668945312 213.333007812 148.001953125 214 c 0
 162.001953125 214.666992188 172.001953125 215 178.001953125 215 c 0
 179.334960938 217 180.66796875 220 182.000976562 224 c 0
 184.66796875 228.666992188 186.334960938 232 187.001953125 234 c 1
 179.668945312 232.666992188 169.001953125 231.333984375 155.001953125 230.000976562 c 0
 141.001953125 228.000976562 130.334960938 226.66796875 123.001953125 226.000976562 c 1
 120.001953125 220.000976562 l 2
 119.334960938 216.66796875 118.66796875 214.334960938 118.000976562 213.001953125 c 1
EndSplineSet
Validated: 1
EndChar

StartChar: dollar
Encoding: 36 36 5
Width: 211
GlyphClass: 2
Flags: W
LayerCount: 2
Fore
SplineSet
167 394 m 1
 168.333007812 387.333007812 167.334960938 377.669921875 164.001953125 365.002929688 c 1
 193.334960938 355.669921875 209.001953125 334.002929688 211.001953125 300.002929688 c 0
 210.334960938 270.669921875 201.66796875 247.336914062 185.000976562 230.00390625 c 1
 159.000976562 239.00390625 l 1
 172.333984375 259.00390625 179.000976562 280.00390625 179.000976562 302.00390625 c 0
 178.333984375 322.00390625 171.333984375 333.670898438 158.000976562 337.00390625 c 1
 149.333984375 301.00390625 134.333984375 245.670898438 113.000976562 171.00390625 c 1
 131.000976562 143.00390625 140.000976562 116.670898438 140.000976562 92.00390625 c 0
 140.000976562 47.3369140625 125.333984375 15.669921875 96.0009765625 -2.9970703125 c 0
 83.333984375 -10.9970703125 69.333984375 -15.330078125 54.0009765625 -15.9970703125 c 0
 52.66796875 -18.6640625 51.3349609375 -23.3310546875 50.001953125 -29.998046875 c 0
 47.3349609375 -37.3310546875 45.66796875 -42.3310546875 45.0009765625 -44.998046875 c 1
 48.0009765625 -29.998046875 l 2
 48.66796875 -23.3310546875 49.3349609375 -18.6640625 50.001953125 -15.9970703125 c 1
 32.001953125 -14.6640625 20.001953125 -1.3310546875 14.001953125 24.001953125 c 0
 13.3349609375 28.001953125 13.001953125 31.6689453125 13.001953125 35.001953125 c 2
 13.001953125 49.001953125 l 2
 14.3349609375 85.6689453125 30.3349609375 120.668945312 61.001953125 154.001953125 c 1
 72.001953125 154.001953125 l 1
 59.3349609375 110.001953125 52.66796875 87.001953125 52.0009765625 85.001953125 c 0
 49.333984375 71.001953125 47.6669921875 56.3349609375 47 41.001953125 c 0
 48.3330078125 29.001953125 51.666015625 21.001953125 56.9990234375 17.001953125 c 1
 67.666015625 67.001953125 78.3330078125 114.334960938 89 159.001953125 c 1
 83.6669921875 167.001953125 74.6669921875 178.668945312 62 194.001953125 c 0
 36 224.001953125 21.6669921875 248.668945312 19 268.001953125 c 0
 18.3330078125 272.668945312 18 277.001953125 18 281.001953125 c 0
 18 310.334960938 39.6669921875 334.001953125 83 352.001953125 c 0
 102.333007812 359.334960938 122 364.001953125 142 366.001953125 c 0
 142 367.334960938 142.666992188 369.66796875 144 373.000976562 c 0
 145.333007812 376.333984375 146 378.666992188 146 380 c 2
 167 394 l 1
135.001953125 337.00390625 m 1
 107.668945312 333.00390625 83.6689453125 321.670898438 63.001953125 303.00390625 c 0
 55.001953125 295.00390625 50.6689453125 288.00390625 50.001953125 282.00390625 c 0
 50.001953125 258.670898438 63.3349609375 230.670898438 90.001953125 198.00390625 c 0
 92.001953125 196.00390625 94.3349609375 193.336914062 97.001953125 190.00390625 c 1
 101.001953125 206.670898438 107.334960938 231.00390625 116.001953125 263.00390625 c 0
 124.668945312 297.00390625 131.001953125 321.670898438 135.001953125 337.00390625 c 1
65.001953125 15.00390625 m 1
 91.6689453125 23.6708984375 106.668945312 46.3369140625 110.001953125 83.00390625 c 0
 110.668945312 86.3369140625 111.001953125 89.3369140625 111.001953125 92.00390625 c 0
 111.001953125 104.00390625 107.668945312 118.336914062 101.001953125 135.00390625 c 1
 89.001953125 94.3369140625 77.001953125 54.3369140625 65.001953125 15.00390625 c 1
EndSplineSet
Validated: 1
EndChar

StartChar: percent
Encoding: 37 37 6
Width: 229
GlyphClass: 2
Flags: W
LayerCount: 2
Fore
SplineSet
155 65 m 1
 150.333007812 60.3330078125 143.663085938 53.3310546875 134.99609375 43.998046875 c 0
 100.329101562 7.998046875 71.3291015625 -15.3349609375 47.99609375 -26.001953125 c 0
 44.6630859375 -28.001953125 41.6630859375 -29.3349609375 38.99609375 -30.001953125 c 0
 26.3291015625 -29.3349609375 18.3291015625 -22.3349609375 14.99609375 -9.001953125 c 1
 30.99609375 45.6650390625 63.6630859375 123.998046875 112.99609375 225.998046875 c 0
 143.663085938 289.331054688 165.99609375 338.998046875 179.99609375 374.998046875 c 1
 169.99609375 374.998046875 134.329101562 372.331054688 72.99609375 366.998046875 c 1
 80.3291015625 356.998046875 83.99609375 345.665039062 83.99609375 332.998046875 c 2
 83.99609375 331.998046875 l 2
 83.99609375 318.665039062 76.3291015625 309.33203125 60.99609375 303.999023438 c 0
 56.99609375 302.666015625 53.3291015625 301.999023438 49.99609375 301.999023438 c 0
 32.6630859375 302.666015625 22.330078125 313.333007812 18.9970703125 334 c 2
 18.9970703125 339 l 2
 19.6640625 362.333007812 29.3310546875 380 47.998046875 392 c 0
 55.998046875 396.666992188 63.998046875 399 71.998046875 399 c 0
 77.998046875 399 84.3310546875 397.333007812 90.998046875 394 c 1
 83.998046875 386 l 1
 95.998046875 386.666992188 123.665039062 392.333984375 166.998046875 403.000976562 c 0
 175.665039062 405.000976562 183.33203125 406.66796875 189.999023438 408.000976562 c 0
 201.999023438 407.333984375 209.666015625 400.666992188 212.999023438 388 c 0
 213.666015625 385.333007812 213.999023438 383 213.999023438 381 c 0
 199.999023438 330.333007812 170.33203125 261 124.999023438 173 c 0
 89.666015625 103.666992188 65.3330078125 49 52 9 c 1
 74 26.3330078125 108.333007812 60.666015625 155 111.999023438 c 0
 159 115.999023438 162.333007812 119.666015625 165 122.999023438 c 2
 170 122.999023438 l 2
 178 122.999023438 187 122.33203125 197 120.999023438 c 1
 200 102.999023438 l 1
 190 68.33203125 178.666992188 45.9990234375 166 35.9990234375 c 1
 159.333007812 37.33203125 155.333007812 44.6650390625 154 57.998046875 c 0
 154 58.6650390625 154.166992188 59.83203125 154.5 61.4990234375 c 0
 154.833007812 63.166015625 155 64.3330078125 155 65 c 1
52.9970703125 350.998046875 m 1
 50.330078125 345.665039062 48.9970703125 340.998046875 48.9970703125 336.998046875 c 0
 49.6640625 330.998046875 50.9970703125 327.665039062 52.9970703125 326.998046875 c 0
 55.6640625 328.331054688 57.3310546875 330.998046875 57.998046875 334.998046875 c 2
 57.998046875 336.998046875 l 2
 57.3310546875 342.331054688 55.6640625 346.998046875 52.9970703125 350.998046875 c 1
EndSplineSet
Validated: 1
EndChar

StartChar: ampersand
Encoding: 38 38 7
Width: 270
GlyphClass: 2
Flags: W
LayerCount: 2
Fore
SplineSet
186 228 m 0
 180 228 176.000976562 218.671875 174.000976562 200.004882812 c 2
 174.000976562 198.004882812 l 2
 174.000976562 189.337890625 175.66796875 177.004882812 179.000976562 161.004882812 c 0
 181.66796875 145.671875 183.000976562 134.004882812 183.000976562 126.004882812 c 0
 177.000976562 68.671875 133.000976562 35.671875 51.0009765625 27.0048828125 c 1
 21.66796875 28.337890625 6.66796875 40.0048828125 6.0009765625 62.0048828125 c 2
 6.0009765625 63.0048828125 l 1
 13.333984375 92.337890625 34.333984375 123.004882812 69.0009765625 155.004882812 c 0
 89.66796875 174.337890625 102.000976562 186.337890625 106.000976562 191.004882812 c 1
 70.0009765625 201.004882812 49.0009765625 225.337890625 43.0009765625 264.004882812 c 0
 42.333984375 270.004882812 42.0009765625 276.004882812 42.0009765625 282.004882812 c 0
 45.333984375 376.671875 68.0009765625 435.671875 110.000976562 459.004882812 c 0
 122.000976562 465.671875 134.66796875 469.004882812 148.000976562 469.004882812 c 0
 186.66796875 468.337890625 208.334960938 435.670898438 213.001953125 371.00390625 c 0
 212.334960938 343.670898438 202.66796875 317.670898438 184.000976562 293.00390625 c 0
 182.66796875 293.670898438 181.000976562 294.670898438 179.000976562 296.00390625 c 0
 176.333984375 298.00390625 174.666992188 299.336914062 174 300.00390625 c 1
 193.333007812 311.336914062 203 331.336914062 203 360.00390625 c 0
 203 392.00390625 194.333007812 414.670898438 177 428.00390625 c 0
 170.333007812 432.670898438 164 435.00390625 158 435.00390625 c 0
 136.666992188 435.00390625 117.666992188 413.00390625 101 369.00390625 c 0
 89.6669921875 339.00390625 84 311.336914062 84 286.00390625 c 0
 84.6669921875 245.336914062 99 219.00390625 127 207.00390625 c 0
 128.333007812 203.00390625 129 200.00390625 129 198.00390625 c 0
 122.333007812 189.336914062 105 173.00390625 77 149.00390625 c 0
 47.6669921875 122.336914062 30.6669921875 94.669921875 26 66.0029296875 c 0
 27.3330078125 54.669921875 36.3330078125 48.669921875 53 48.0029296875 c 0
 121.666992188 55.3359375 158 81.6689453125 162 127.001953125 c 0
 162 134.334960938 160.666992188 145.334960938 158 160.001953125 c 0
 155.333007812 177.334960938 154 190.334960938 154 199.001953125 c 2
 154 205.001953125 l 2
 155.333007812 237.668945312 169 255.668945312 195 259.001953125 c 0
 201.666992188 256.334960938 224.333984375 251.334960938 263.000976562 244.001953125 c 0
 274.333984375 241.334960938 283.000976562 238.66796875 289.000976562 236.000976562 c 1
 289.000976562 232.000976562 l 1
 268.000976562 213.000976562 l 2
 266.000976562 212.333984375 257.66796875 210.666992188 243.000976562 208 c 0
 233.000976562 208 217.66796875 213.333007812 197.000976562 224 c 0
 192.333984375 226.666992188 188.666992188 228 186 228 c 0
EndSplineSet
Validated: 1
EndChar

StartChar: quotesingle
Encoding: 39 39 8
Width: 105
GlyphClass: 2
Flags: W
LayerCount: 2
Fore
SplineSet
82 498 m 0
 82 479.333007812 74 442.333984375 58 387.000976562 c 1
 54 387.000976562 l 1
 53.3330078125 396.333984375 52 404.666992188 50 412 c 0
 50 414.666992188 50.3330078125 424.333984375 51 441.000976562 c 0
 53 476.333984375 54.3330078125 496.666992188 55 502 c 1
 80 511 l 1
 81.3330078125 505 82 500.666992188 82 498 c 0
EndSplineSet
Validated: 1
EndChar

StartChar: parenleft
Encoding: 40 40 9
Width: 153
GlyphClass: 2
Flags: W
LayerCount: 2
Fore
SplineSet
39 -18 m 0
 39 -46 39.9990234375 -73.3330078125 41.9990234375 -100 c 0
 41.9990234375 -106 41.666015625 -116.333007812 40.9990234375 -131 c 2
 40.9990234375 -133 l 1
 43.9990234375 -148 l 2
 44.666015625 -154.666992188 45.3330078125 -159.333984375 46 -162.000976562 c 2
 44 -163.000976562 l 1
 19.3330078125 -119.66796875 7 -68.0009765625 7 -8.0009765625 c 0
 14.3330078125 197.999023438 61.3330078125 363.999023438 148 489.999023438 c 1
 154 488.666015625 160 486.666015625 166 483.999023438 c 0
 174 480.666015625 179 477.999023438 181 475.999023438 c 0
 111 383.999023438 66.3330078125 262.666015625 47 111.999023438 c 0
 41.6669921875 68.666015625 39 25.3330078125 39 -18 c 0
EndSplineSet
Validated: 1
EndChar

StartChar: parenright
Encoding: 41 41 10
Width: 156
GlyphClass: 2
Flags: W
LayerCount: 2
Fore
SplineSet
102 346 m 0
 102 374 101.000976562 401.33203125 99.0009765625 427.999023438 c 0
 99.0009765625 433.999023438 99.333984375 444.33203125 100.000976562 458.999023438 c 2
 100.000976562 460.999023438 l 2
 99.333984375 464.33203125 98.6669921875 468.999023438 98 474.999023438 c 0
 96.6669921875 481.666015625 95.6669921875 486.333007812 95 489 c 2
 97 490 l 1
 121.666992188 446.666992188 134 395.333984375 134 336.000976562 c 0
 126.666992188 129.333984375 79.6669921875 -36.9990234375 -7 -162.999023438 c 1
 -13 -162.33203125 -19 -160.33203125 -25 -156.999023438 c 0
 -32.3330078125 -154.33203125 -37.3330078125 -151.33203125 -40 -147.999023438 c 1
 30 -55.9990234375 74.6669921875 65.333984375 94 216.000976562 c 0
 99.3330078125 259.333984375 102 302.666992188 102 346 c 0
EndSplineSet
Validated: 1
EndChar

StartChar: asterisk
Encoding: 42 42 11
Width: 195
GlyphClass: 2
Flags: W
LayerCount: 2
Fore
SplineSet
94 402 m 1
 85.3330078125 393.333007812 74.6669921875 386.665039062 62 381.998046875 c 0
 58 383.331054688 55.6669921875 386.998046875 55 392.998046875 c 0
 57.6669921875 406.998046875 64 419.998046875 74 431.998046875 c 0
 73.3330078125 432.665039062 65 443.33203125 49 463.999023438 c 0
 46.3330078125 467.33203125 44 469.999023438 42 471.999023438 c 2
 58 492.999023438 l 1
 70.6669921875 486.999023438 81.333984375 478.33203125 90.0009765625 466.999023438 c 1
 90.0009765625 469.666015625 90.333984375 474.333007812 91.0009765625 481 c 0
 91.0009765625 491 91.333984375 498 92.0009765625 502 c 2
 117.000976562 511 l 1
 118.333984375 505 119.000976562 500.666992188 119.000976562 498 c 0
 118.333984375 483.333007812 113.000976562 468 103.000976562 452 c 1
 120.333984375 466 139.000976562 478.333007812 159.000976562 489 c 1
 160.000976562 489 l 2
 164.66796875 489 170.334960938 491 177.001953125 495 c 1
 182.001953125 490 l 1
 181.334960938 490 180.501953125 489.333007812 179.501953125 488 c 0
 178.501953125 486.666992188 177.668945312 485.333984375 177.001953125 484.000976562 c 2
 175.001953125 480.000976562 l 1
 174.001953125 478.000976562 l 1
 153.334960938 460.000976562 135.66796875 446.333984375 121.000976562 437.000976562 c 1
 128.333984375 417.000976562 133.000976562 402.66796875 135.000976562 394.000976562 c 0
 135.000976562 390.000976562 133.66796875 384.000976562 131.000976562 376.000976562 c 1
 126.000976562 374.000976562 l 1
 111.333984375 377.333984375 100.666992188 386.666992188 94 402 c 1
EndSplineSet
Validated: 1
EndChar

StartChar: plus
Encoding: 43 43 12
Width: 260
GlyphClass: 2
Flags: W
LayerCount: 2
Fore
SplineSet
98 80 m 2
 98 94.00390625 l 1
 98 115.00390625 l 2
 98 118.336914062 98.6669921875 123.669921875 100 131.002929688 c 0
 101.333007812 138.3359375 102 143.668945312 102 147.001953125 c 1
 68 145.001953125 48 143.668945312 42 143.001953125 c 1
 41 179.001953125 l 1
 56.3330078125 181.001953125 78 182.001953125 106 182.001953125 c 1
 110 207.334960938 115 231.66796875 121 255.000976562 c 1
 147 260.000976562 l 1
 149.666992188 253.333984375 151 247.666992188 151 243 c 0
 151 241 148 221 142 183 c 1
 184 181.666992188 211.333007812 177.333984375 224 170.000976562 c 1
 224 167.000976562 l 1
 205.333007812 158.333984375 176.333007812 152.666992188 137 150 c 1
 128.333007812 102 119 71.6669921875 109 59 c 1
 104 59 l 1
 100 69.6669921875 98 76.6669921875 98 80 c 2
EndSplineSet
Validated: 1
EndChar

StartChar: comma
Encoding: 44 44 13
Width: 138
GlyphClass: 2
Flags: W
LayerCount: 2
Fore
SplineSet
59 6 m 2
 59 8 l 2
 59 10.6669921875 57.3330078125 16.6669921875 54 26 c 0
 51.3330078125 34.6669921875 49.666015625 40.6669921875 48.9990234375 44 c 0
 48.9990234375 55.3330078125 54.9990234375 64 66.9990234375 70 c 0
 69.666015625 71.3330078125 72.3330078125 72 75 72 c 0
 87.6669921875 68 95 57.6669921875 97 41 c 0
 93.6669921875 9 81.6669921875 -15.6669921875 61 -33 c 0
 54.3330078125 -37.6669921875 48.3330078125 -41 43 -43 c 1
 39 -41 l 1
 40.3330078125 -33.6669921875 45.3330078125 -23 54 -9 c 0
 57.3330078125 -4.3330078125 59 0.6669921875 59 6 c 2
EndSplineSet
Validated: 1
EndChar

StartChar: hyphen
Encoding: 45 45 14
Width: 270
GlyphClass: 2
Flags: W
LayerCount: 2
Fore
SplineSet
44 138 m 1
 53.3330078125 139.333007812 85.6669921875 140.66796875 141 142.000976562 c 0
 186.333007812 140.000976562 215 135.66796875 227 129.000976562 c 1
 227 126.000976562 l 1
 206.333007812 115.333984375 165.333007812 108.666992188 104 106 c 0
 78 105.333007812 58.3330078125 104 45 102 c 1
 44 138 l 1
EndSplineSet
Validated: 1
EndChar

StartChar: period
Encoding: 46 46 15
Width: 122
GlyphClass: 2
Flags: W
LayerCount: 2
Fore
SplineSet
80 32 m 0
 78.6669921875 19.3330078125 72.66796875 12.6669921875 62.0009765625 12 c 0
 56.0009765625 12 51.0009765625 17.6669921875 47.0009765625 29 c 0
 46.333984375 31.6669921875 45.6669921875 33.6669921875 45 35 c 2
 63 60 l 1
 72.3330078125 54 78 44.6669921875 80 32 c 0
EndSplineSet
Validated: 1
EndChar

StartChar: slash
Encoding: 47 47 16
Width: 183
GlyphClass: 2
Flags: W
LayerCount: 2
Fore
SplineSet
-1 -37 m 1
 16.3330078125 25.6669921875 51.66796875 114.333007812 105.000976562 229 c 0
 134.333984375 292.333007812 155.666992188 341.333007812 169 376 c 1
 184 379 l 1
 185.333007812 375 186 371.666992188 186 369 c 0
 150 256.333007812 89 121 3 -37 c 1
 -1 -37 l 1
EndSplineSet
Validated: 1
EndChar

StartChar: zero
Encoding: 48 48 17
Width: 329
GlyphClass: 2
Flags: W
LayerCount: 2
Fore
SplineSet
69 62 m 0
 69 20 87.0009765625 -3.33203125 123.000976562 -7.9990234375 c 0
 126.333984375 -8.666015625 129.666992188 -8.9990234375 133 -8.9990234375 c 0
 197 3.66796875 240.333007812 43.66796875 263 111.000976562 c 0
 273 139.66796875 278 171.000976562 278 205.000976562 c 0
 278 260.333984375 260.333007812 298.333984375 225 319.000976562 c 0
 212.333007812 326.333984375 199 330.666992188 185 332 c 1
 161 293 l 2
 119 225.666992188 92.3330078125 171.333984375 81 130.000976562 c 0
 74.3330078125 107.333984375 70.3330078125 84.6669921875 69 62 c 0
153.000976562 341.000976562 m 2
 157.000976562 345.66796875 161.334960938 348.666992188 166.001953125 350 c 1
 168.001953125 348 l 1
 176.001953125 352 l 2
 179.334960938 352 184.334960938 352.333007812 191.001953125 353 c 2
 201.001953125 353 l 1
 253.001953125 345.666992188 285.334960938 313 298.001953125 255 c 0
 300.668945312 241 302.001953125 226 302.001953125 210 c 0
 302.001953125 120.666992188 278.001953125 52.6669921875 230.001953125 6 c 0
 200.001953125 -22.6669921875 163.668945312 -38.6669921875 121.001953125 -42 c 2
 114.001953125 -42 l 2
 77.3349609375 -42 51.66796875 -24.6669921875 37.0009765625 10 c 0
 31.66796875 24 29.0009765625 39 29.0009765625 55 c 0
 29.66796875 147 67.0009765625 238 141.000976562 328 c 1
 140.333984375 327.333007812 138.666992188 326.333007812 136 325 c 0
 130.666992188 321.666992188 126.333984375 319.333984375 123.000976562 318.000976562 c 2
 122.000976562 319.000976562 l 1
 130.66796875 325.000976562 138.000976562 330.333984375 144.000976562 335.000976562 c 2
 153.000976562 341.000976562 l 2
EndSplineSet
Validated: 1
EndChar

StartChar: one
Encoding: 49 49 18
Width: 143
GlyphClass: 2
Flags: W
LayerCount: 2
Fore
SplineSet
128 369 m 1
 131.333007812 365 133.000976562 358.333007812 133.000976562 349 c 0
 115.000976562 247.666992188 78.333984375 119.666992188 23.0009765625 -35 c 1
 22.0009765625 -35 l 1
 25.333984375 28.3330078125 42.6669921875 130.333007812 74 271 c 0
 82.6669921875 308.333007812 88.6669921875 336.333007812 92 355 c 1
 128 369 l 1
EndSplineSet
Validated: 1
EndChar

StartChar: two
Encoding: 50 50 19
Width: 228
GlyphClass: 2
Flags: W
LayerCount: 2
Fore
SplineSet
68 17 m 1
 122 9 160 -2.3330078125 182 -17 c 1
 168 -26.3330078125 154.333007812 -31.666015625 141 -32.9990234375 c 2
 126 -32.9990234375 l 2
 68.6669921875 -30.33203125 26.6669921875 -24.9990234375 0 -16.9990234375 c 1
 -6 -6.9990234375 -9 0.333984375 -9 5.0009765625 c 0
 -7 12.333984375 2.6669921875 21.0009765625 20 31.0009765625 c 0
 28.6669921875 36.333984375 34.6669921875 40.6669921875 38 44 c 0
 122 116 166.666992188 195.666992188 172 283 c 1
 172 288 l 2
 172 315.333007812 163.333007812 332.333007812 146 339 c 0
 142 340.333007812 138.666992188 341 136 341 c 0
 122 340.333007812 109.333007812 330.666015625 98 311.999023438 c 1
 75 312.999023438 l 1
 78.3330078125 336.33203125 90.3330078125 354.999023438 111 368.999023438 c 0
 121 374.999023438 130.666992188 377.999023438 140 377.999023438 c 0
 176.666992188 376.666015625 199 357.333007812 207 320 c 0
 209 311.333007812 210 302.333007812 210 293 c 0
 205.333007812 189.666992188 158 97.6669921875 68 17 c 1
EndSplineSet
Validated: 1
EndChar

StartChar: three
Encoding: 51 51 20
Width: 214
GlyphClass: 2
Flags: W
LayerCount: 2
Fore
SplineSet
77 312 m 1
 76.0029296875 309.997070312 l 1
 45.0029296875 287.997070312 l 1
 41.669921875 295.330078125 40.0029296875 303.330078125 40.0029296875 311.997070312 c 0
 40.0029296875 338.6640625 54.3359375 360.6640625 83.0029296875 377.997070312 c 0
 96.3359375 385.997070312 109.668945312 390.330078125 123.001953125 390.997070312 c 0
 154.334960938 389.6640625 171.334960938 372.331054688 174.001953125 338.998046875 c 1
 168.001953125 292.998046875 144.334960938 246.665039062 103.001953125 199.998046875 c 0
 98.3349609375 194.665039062 90.66796875 185.998046875 80.0009765625 173.998046875 c 1
 146.000976562 138.665039062 179.333984375 84.6650390625 180.000976562 11.998046875 c 0
 179.333984375 -74.001953125 149.333984375 -132.334960938 90.0009765625 -163.001953125 c 0
 76.0009765625 -169.668945312 61.66796875 -174.668945312 47.0009765625 -178.001953125 c 0
 23.66796875 -177.334960938 8.0009765625 -165.334960938 0.0009765625 -142.001953125 c 0
 -1.9990234375 -136.001953125 -2.9990234375 -130.001953125 -2.9990234375 -124.001953125 c 0
 -2.9990234375 -116.668945312 2.333984375 -103.001953125 13.0009765625 -83.001953125 c 0
 14.333984375 -80.3349609375 15.333984375 -78.001953125 16.0009765625 -76.001953125 c 2
 18.0009765625 -76.001953125 l 1
 20.0009765625 -80.001953125 22.0009765625 -86.6689453125 24.0009765625 -96.001953125 c 0
 30.0009765625 -118.668945312 38.333984375 -132.001953125 49.0009765625 -136.001953125 c 0
 52.333984375 -136.668945312 55.333984375 -137.3359375 58.0009765625 -138.002929688 c 0
 91.333984375 -125.3359375 115.666992188 -97.6689453125 131 -55.001953125 c 0
 137.666992188 -35.6689453125 141 -16.3359375 141 2.9970703125 c 0
 138.333007812 79.6640625 100 126.331054688 26 142.998046875 c 0
 25.3330078125 144.998046875 24 148.331054688 22 152.998046875 c 0
 18.6669921875 160.998046875 16.6669921875 166.998046875 16 170.998046875 c 0
 56 211.665039062 79.3330078125 236.665039062 86 245.998046875 c 0
 112 277.998046875 127.666992188 309.998046875 133 341.998046875 c 0
 131.666992188 346.665039062 129 349.33203125 125 349.999023438 c 0
 113.666992188 349.999023438 100.666992188 341.999023438 86 325.999023438 c 0
 81.3330078125 320.666015625 78.3330078125 316.333007812 77 313 c 2
 77 312 l 1
EndSplineSet
Validated: 1
EndChar

StartChar: four
Encoding: 52 52 21
Width: 264
GlyphClass: 2
Flags: W
LayerCount: 2
Fore
SplineSet
48 29 m 2
 42.001953125 29 l 2
 14.001953125 29.6669921875 -0.6650390625 37.333984375 -1.998046875 52.0009765625 c 1
 63.3349609375 144.66796875 106.66796875 210.66796875 128.000976562 250.000976562 c 0
 147.333984375 284.000976562 162.666992188 316.000976562 174 346.000976562 c 1
 163 351.000976562 l 1
 173.666992188 369.000976562 183.666992188 380.333984375 193 385.000976562 c 1
 205 383.000976562 212 376.333984375 214 365.000976562 c 0
 214 313.66796875 181.333007812 243.334960938 116 154.001953125 c 0
 74.6669921875 98.001953125 53.6669921875 69.6689453125 53 69.001953125 c 1
 77.6669921875 68.3349609375 105 65.66796875 135 61.0009765625 c 1
 144.333007812 99.66796875 159 148.66796875 179 208.000976562 c 0
 180.333007812 209.333984375 182 210.666992188 184 212 c 2
 212 198 l 1
 214 197 l 1
 210 181.666992188 204 158 196 126 c 0
 187.333007812 93.3330078125 181 69.3330078125 177 54 c 1
 209 47.3330078125 236.333007812 39.666015625 259 30.9990234375 c 1
 259 28.9990234375 l 1
 218.333007812 20.9990234375 195 16.9990234375 189 16.9990234375 c 0
 179 16.9990234375 171.666992188 17.33203125 167 17.9990234375 c 1
 147.666992188 -53.333984375 128.333984375 -115.000976562 109.000976562 -167.000976562 c 1
 106.000976562 -167.000976562 l 1
 106.000976562 -163.000976562 106.333984375 -156.66796875 107.000976562 -148.000976562 c 0
 107.66796875 -139.333984375 108.000976562 -133.000976562 108.000976562 -129.000976562 c 0
 111.333984375 -72.333984375 117.666992188 -21.6669921875 127 23 c 1
 100.333007812 26.3330078125 74 28.3330078125 48 29 c 2
EndSplineSet
Validated: 1
EndChar

StartChar: five
Encoding: 53 53 22
Width: 276
GlyphClass: 2
Flags: W
LayerCount: 2
Fore
SplineSet
86 335 m 1
 56 356.333007812 40.669921875 376.997070312 40.0029296875 396.997070312 c 2
 40.0029296875 398.997070312 l 1
 67.0029296875 403.997070312 l 1
 75.0029296875 390.6640625 85.669921875 379.331054688 99.0029296875 369.998046875 c 1
 99.669921875 372.665039062 100.669921875 375.998046875 102.002929688 379.998046875 c 0
 104.002929688 384.665039062 105.3359375 387.998046875 106.002929688 389.998046875 c 2
 139.002929688 384.998046875 l 1
 138.3359375 381.665039062 136.668945312 376.33203125 134.001953125 368.999023438 c 0
 131.334960938 361.666015625 129.66796875 356.333007812 129.000976562 353 c 0
 147.66796875 345 186.000976562 333.666992188 244.000976562 319 c 0
 244.66796875 318.333007812 248.66796875 314 256.000976562 306 c 1
 250.000976562 296.666992188 240.000976562 291.666992188 226.000976562 291 c 0
 182.66796875 294.333007812 146.334960938 303 117.001953125 317 c 1
 87.6689453125 231 68.001953125 163.333007812 58.001953125 114 c 1
 92.001953125 140.666992188 123.334960938 154.666992188 152.001953125 156 c 0
 190.668945312 154.666992188 218.001953125 134.666992188 234.001953125 96 c 0
 240.668945312 80 244.001953125 63 244.001953125 45 c 0
 244.001953125 -20.3330078125 223.001953125 -71.3330078125 181.001953125 -108 c 0
 160.334960938 -125.333007812 137.001953125 -136.666015625 111.001953125 -141.999023438 c 1
 86.3349609375 -141.999023438 71.001953125 -130.666015625 65.001953125 -107.999023438 c 0
 63.6689453125 -103.999023438 63.001953125 -100.33203125 63.001953125 -96.9990234375 c 0
 63.001953125 -92.9990234375 66.6689453125 -83.33203125 74.001953125 -67.9990234375 c 0
 74.6689453125 -66.666015625 75.001953125 -65.666015625 75.001953125 -64.9990234375 c 1
 77.001953125 -64.9990234375 l 2
 79.001953125 -67.666015625 81.6689453125 -71.9990234375 85.001953125 -77.9990234375 c 0
 93.001953125 -90.666015625 101.001953125 -97.666015625 109.001953125 -98.9990234375 c 0
 149.001953125 -92.33203125 177.668945312 -65.9990234375 195.001953125 -19.9990234375 c 0
 202.334960938 1.333984375 206.001953125 23.6669921875 206.001953125 47 c 0
 206.001953125 81 194.334960938 104.333007812 171.001953125 117 c 0
 162.334960938 121.666992188 153.334960938 124 144.001953125 124 c 0
 126.668945312 124 106.668945312 115 84.001953125 97 c 0
 67.3349609375 84.3330078125 53.66796875 76.666015625 43.0009765625 73.9990234375 c 1
 28.333984375 76.666015625 20.333984375 85.3330078125 19.0009765625 100 c 0
 30.333984375 166 52.6669921875 244.333007812 86 335 c 1
57.0029296875 97.9970703125 m 1
 57.0029296875 98.9970703125 l 2
 57.0029296875 99.6640625 56.669921875 99.9970703125 56.0029296875 99.9970703125 c 1
 56.0029296875 100.997070312 l 1
 56.0029296875 98.9970703125 l 1
 57.0029296875 97.9970703125 l 1
EndSplineSet
Validated: 5
EndChar

StartChar: six
Encoding: 54 54 23
Width: 223
GlyphClass: 2
Flags: W
LayerCount: 2
Fore
SplineSet
65 96 m 2
 65 94 64.666015625 90.666015625 63.9990234375 85.9990234375 c 0
 63.33203125 81.9990234375 62.9990234375 78.9990234375 62.9990234375 76.9990234375 c 0
 62.9990234375 42.33203125 72.9990234375 19.9990234375 92.9990234375 9.9990234375 c 0
 98.33203125 7.33203125 103.999023438 5.9990234375 109.999023438 5.9990234375 c 0
 131.33203125 5.9990234375 146.999023438 18.9990234375 156.999023438 44.9990234375 c 0
 160.999023438 55.666015625 162.999023438 66.3330078125 162.999023438 77 c 0
 161.666015625 93 150.333007812 101.333007812 129 102 c 0
 124.333007812 102 117 101.333007812 107 100 c 0
 97 99.3330078125 90 99 86 99 c 2
 85 100 l 2
 83 100.666992188 81.3330078125 101 80 101 c 2
 65 96 l 2
201.999023438 470.999023438 m 0
 215.999023438 469.666015625 223.331054688 462.999023438 223.998046875 450.999023438 c 0
 223.331054688 448.999023438 217.998046875 442.666015625 207.998046875 431.999023438 c 0
 125.998046875 345.999023438 78.998046875 243.666015625 66.998046875 124.999023438 c 1
 78.998046875 142.33203125 97.998046875 151.33203125 123.998046875 151.999023438 c 0
 156.665039062 151.999023438 179.33203125 138.999023438 191.999023438 112.999023438 c 0
 196.666015625 102.999023438 198.999023438 92.33203125 198.999023438 80.9990234375 c 0
 198.999023438 36.9990234375 180.33203125 5.33203125 142.999023438 -14.0009765625 c 0
 131.666015625 -19.333984375 119.999023438 -23.0009765625 107.999023438 -25.0009765625 c 0
 56.666015625 -20.333984375 30.666015625 17.666015625 29.9990234375 88.9990234375 c 0
 29.9990234375 206.33203125 63.9990234375 311.33203125 131.999023438 403.999023438 c 0
 141.999023438 417.999023438 152.33203125 430.999023438 162.999023438 442.999023438 c 0
 179.666015625 461.666015625 192.666015625 470.999023438 201.999023438 470.999023438 c 0
EndSplineSet
Validated: 1
EndChar

StartChar: seven
Encoding: 55 55 24
Width: 257
GlyphClass: 2
Flags: W
LayerCount: 2
Fore
SplineSet
59 209 m 1
 61.9970703125 208.995117188 l 2
 73.330078125 205.662109375 90.9970703125 200.995117188 114.997070312 194.995117188 c 0
 130.997070312 190.995117188 142.6640625 187.995117188 149.997070312 185.995117188 c 1
 167.997070312 241.328125 180.997070312 285.328125 188.997070312 317.995117188 c 0
 188.997070312 318.662109375 189.830078125 319.329101562 191.497070312 319.99609375 c 0
 193.1640625 320.663085938 194.6640625 321.330078125 195.997070312 321.997070312 c 2
 197.997070312 322.997070312 l 1
 196.6640625 324.997070312 192.6640625 325.997070312 185.997070312 325.997070312 c 0
 173.997070312 325.330078125 134.997070312 318.997070312 68.9970703125 306.997070312 c 0
 54.330078125 304.330078125 40.9970703125 302.330078125 28.9970703125 300.997070312 c 1
 11.9970703125 317.997070312 l 1
 14.6640625 326.6640625 27.6640625 332.331054688 50.9970703125 334.998046875 c 0
 57.6640625 335.665039062 62.3310546875 336.33203125 64.998046875 336.999023438 c 0
 70.998046875 337.666015625 102.998046875 344.333007812 160.998046875 357 c 0
 176.998046875 361 191.331054688 363.666992188 203.998046875 365 c 0
 223.998046875 362.333007812 234.998046875 350.333007812 236.998046875 329 c 2
 236.998046875 324 l 1
 224.998046875 275.333007812 210.331054688 225.333007812 192.998046875 174 c 1
 212.331054688 167.333007812 227.331054688 160.333007812 237.998046875 153 c 1
 237.998046875 152 l 1
 243.998046875 149 l 2
 246.665039062 147.666992188 248.33203125 146.666992188 248.999023438 146 c 1
 238.999023438 144 230.999023438 142.666992188 224.999023438 142 c 0
 217.666015625 141.333007812 208.333007812 139.666015625 197 136.999023438 c 0
 195 137.666015625 192 138.166015625 188 138.499023438 c 0
 184 138.83203125 181.333007812 138.999023438 180 138.999023438 c 0
 126 -19.0009765625 94 -114.66796875 84 -148.000976562 c 0
 80.6669921875 -159.333984375 77.6669921875 -170.000976562 75 -180.000976562 c 0
 73 -185.333984375 69.6669921875 -193.333984375 65 -204.000976562 c 0
 60.3330078125 -215.333984375 57 -223.666992188 55 -229 c 1
 54 -229 l 1
 54 -225 53.6669921875 -218.666992188 53 -210 c 0
 52.3330078125 -201.333007812 52 -195 52 -191 c 0
 60.6669921875 -106.333007812 86.6669921875 -0.3330078125 130 127 c 0
 131.333007812 133 133.333007812 139.333007812 136 146 c 1
 100 152.666992188 68 163.666992188 40 179 c 1
 59 209 l 1
EndSplineSet
Validated: 1
EndChar

StartChar: eight
Encoding: 56 56 25
Width: 240
GlyphClass: 2
Flags: W
LayerCount: 2
Fore
SplineSet
92 276 m 1
 69.3330078125 314 57.998046875 347 57.998046875 375 c 0
 57.998046875 414.333007812 74.3310546875 442.333007812 106.998046875 459 c 0
 118.998046875 465 131.665039062 468.333007812 144.998046875 469 c 0
 179.665039062 468.333007812 202.998046875 450.666015625 214.998046875 415.999023438 c 0
 219.665039062 403.999023438 221.998046875 391.33203125 221.998046875 377.999023438 c 0
 221.331054688 355.33203125 213.331054688 332.999023438 197.998046875 310.999023438 c 1
 196.998046875 310.999023438 l 1
 193.665039062 316.999023438 188.665039062 337.33203125 181.998046875 371.999023438 c 1
 170.665039062 406.666015625 155.665039062 425.333007812 136.998046875 428 c 1
 107.665039062 423.333007812 91.6650390625 407 88.998046875 379 c 0
 88.998046875 353.666992188 97.3310546875 326 113.998046875 296 c 0
 115.331054688 296.666992188 116.998046875 297.666992188 118.998046875 299 c 0
 121.665039062 300.333007812 123.33203125 301.333007812 123.999023438 302 c 0
 135.33203125 300 143.33203125 294.666992188 147.999023438 286 c 0
 147.999023438 285.333007812 147.83203125 284 147.499023438 282 c 0
 147.166015625 280 146.999023438 278.666992188 146.999023438 278 c 0
 144.33203125 272.666992188 139.33203125 268.666992188 131.999023438 266 c 1
 132.666015625 265.333007812 133.333007812 264.333007812 134 263 c 2
 136 264 l 1
 136 263 l 1
 135 262 l 1
 163.666992188 220 181 192.666992188 187 180 c 0
 197.666992188 157.333007812 203.666992188 134.333007812 205 111 c 0
 205 73 190.666992188 43.6669921875 162 23 c 0
 146 12.3330078125 129 7 111 7 c 0
 70.3330078125 7 44.666015625 27 33.9990234375 67 c 0
 31.33203125 78.3330078125 29.9990234375 90 29.9990234375 102 c 0
 30.666015625 175.333007812 51.3330078125 233.333007812 92 276 c 1
110.998046875 35 m 0
 140.331054688 35 159.998046875 49.0009765625 169.998046875 77.0009765625 c 0
 172.665039062 85.66796875 173.998046875 94.3349609375 173.998046875 103.001953125 c 0
 173.998046875 120.334960938 170.998046875 137.66796875 164.998046875 155.000976562 c 0
 158.998046875 172.333984375 152.498046875 186.666992188 145.498046875 198 c 0
 138.498046875 209.333007812 129.331054688 223 117.998046875 239 c 2
 116.998046875 240 l 1
 85.6650390625 194.666992188 68.998046875 147 66.998046875 97 c 0
 66.998046875 63.6669921875 77.6650390625 43.6669921875 98.998046875 37 c 0
 102.998046875 35.6669921875 106.998046875 35 110.998046875 35 c 0
EndSplineSet
Validated: 1
EndChar

StartChar: nine
Encoding: 57 57 26
Width: 275
GlyphClass: 2
Flags: W
LayerCount: 2
Fore
SplineSet
201 242 m 1
 153.666992188 195.333007812 103.666015625 166.666992188 50.9990234375 156 c 1
 26.9990234375 156.666992188 13.33203125 167 9.9990234375 187 c 0
 9.33203125 189.666992188 8.9990234375 192.333984375 8.9990234375 195.000976562 c 0
 12.9990234375 250.333984375 38.9990234375 289.000976562 86.9990234375 311.000976562 c 0
 104.999023438 319.000976562 124.666015625 324.000976562 145.999023438 326.000976562 c 0
 181.33203125 324.000976562 203.999023438 316.66796875 213.999023438 304.000976562 c 1
 217.999023438 311.333984375 221.666015625 318.666992188 224.999023438 326 c 0
 224.999023438 327.333007812 224.666015625 328.666015625 223.999023438 329.999023438 c 0
 222.666015625 333.33203125 221.999023438 335.665039062 221.999023438 336.998046875 c 0
 221.999023438 338.998046875 222.999023438 339.998046875 224.999023438 339.998046875 c 0
 230.33203125 339.331054688 244.665039062 328.998046875 267.998046875 308.998046875 c 1
 259.331054688 283.665039062 241.331054688 217.33203125 213.998046875 109.999023438 c 0
 185.998046875 0.666015625 153.998046875 -78.6669921875 117.998046875 -128 c 0
 113.331054688 -134 108.998046875 -139.333007812 104.998046875 -144 c 0
 78.998046875 -170.666992188 55.998046875 -184.666992188 35.998046875 -186 c 0
 20.6650390625 -186 10.33203125 -177.666992188 4.9990234375 -161 c 0
 3.666015625 -156.333007812 2.9990234375 -152 2.9990234375 -148 c 0
 2.9990234375 -140.666992188 7.9990234375 -130.333984375 17.9990234375 -117.000976562 c 0
 19.9990234375 -113.66796875 21.666015625 -111.000976562 22.9990234375 -109.000976562 c 2
 24.9990234375 -109.000976562 l 2
 25.666015625 -109.66796875 30.3330078125 -120.000976562 39 -140.000976562 c 1
 39 -143.000976562 l 1
 89.6669921875 -103.000976562 129.666992188 -30.66796875 159 73.9990234375 c 0
 165 95.9990234375 173.333007812 129.33203125 184 173.999023438 c 0
 191.333007812 204.666015625 197 227.333007812 201 242 c 1
200.999023438 283.000976562 m 1
 193 281.000976562 l 1
 181.666992188 283.66796875 169.666992188 285.000976562 157 285.000976562 c 0
 112.333007812 285.000976562 79.3330078125 267.66796875 58 233.000976562 c 0
 51.3330078125 221.000976562 46.666015625 208.000976562 43.9990234375 194.000976562 c 0
 45.33203125 186.66796875 48.9990234375 182.66796875 54.9990234375 182.000976562 c 0
 112.999023438 194.000976562 161.666015625 227.66796875 200.999023438 283.000976562 c 1
EndSplineSet
Validated: 1
EndChar

StartChar: colon
Encoding: 58 58 27
Width: 130
GlyphClass: 2
Flags: W
LayerCount: 2
Fore
SplineSet
97 216 m 0
 95.6669921875 203.333007812 89.66796875 196.666992188 79.0009765625 196 c 0
 73.0009765625 196 68.0009765625 201.666992188 64.0009765625 213 c 0
 63.333984375 215.666992188 62.6669921875 217.666992188 62 219 c 2
 80 244 l 1
 89.3330078125 238 95 228.666992188 97 216 c 0
67.0009765625 32.0009765625 m 0
 65.66796875 19.333984375 59.6689453125 12.66796875 49.001953125 12.0009765625 c 0
 43.001953125 12.0009765625 38.001953125 17.66796875 34.001953125 29.0009765625 c 0
 33.3349609375 31.66796875 32.66796875 33.66796875 32.0009765625 35.0009765625 c 2
 50.0009765625 60.0009765625 l 1
 59.333984375 54.0009765625 65.0009765625 44.66796875 67.0009765625 32.0009765625 c 0
EndSplineSet
Validated: 1
EndChar

StartChar: semicolon
Encoding: 59 59 28
Width: 145
GlyphClass: 2
Flags: W
LayerCount: 2
Fore
SplineSet
124 216 m 0
 122.666992188 203.333007812 116.66796875 196.666992188 106.000976562 196 c 0
 100.000976562 196 95.0009765625 201.666992188 91.0009765625 213 c 0
 90.333984375 215.666992188 89.6669921875 217.666992188 89 219 c 2
 107 244 l 1
 116.333007812 238 122 228.666992188 124 216 c 0
42.0009765625 6.0009765625 m 2
 42.0009765625 8.0009765625 l 2
 42.0009765625 10.66796875 40.333984375 16.66796875 37.0009765625 26.0009765625 c 0
 34.333984375 34.66796875 32.6669921875 40.66796875 32 44.0009765625 c 0
 32 55.333984375 38 64.0009765625 50 70.0009765625 c 0
 52.6669921875 71.333984375 55.333984375 72.0009765625 58.0009765625 72.0009765625 c 0
 70.66796875 68.0009765625 78.0009765625 57.66796875 80.0009765625 41.0009765625 c 0
 76.66796875 9.0009765625 64.66796875 -15.666015625 44.0009765625 -32.9990234375 c 0
 37.333984375 -37.666015625 31.333984375 -40.9990234375 26.0009765625 -42.9990234375 c 1
 22.0009765625 -40.9990234375 l 1
 23.333984375 -33.666015625 28.333984375 -22.9990234375 37.0009765625 -8.9990234375 c 0
 40.333984375 -4.33203125 42.0009765625 0.66796875 42.0009765625 6.0009765625 c 2
EndSplineSet
Validated: 1
EndChar

StartChar: less
Encoding: 60 60 29
Width: 215
GlyphClass: 2
Flags: W
LayerCount: 2
Fore
SplineSet
10 190 m 0
 10.6669921875 195.333007812 12.3359375 199.666992188 15.0029296875 203 c 0
 27.0029296875 208.333007812 44.669921875 216.666015625 68.0029296875 227.999023438 c 0
 124.002929688 253.999023438 167.669921875 271.33203125 199.002929688 279.999023438 c 0
 199.669921875 279.999023438 201.002929688 279.666015625 203.002929688 278.999023438 c 2
 197.002929688 253.999023438 l 1
 149.669921875 237.33203125 103.002929688 217.33203125 57.0029296875 193.999023438 c 1
 108.3359375 156.666015625 147.668945312 121.666015625 175.001953125 88.9990234375 c 0
 176.334960938 85.666015625 177.66796875 80.3330078125 179.000976562 73 c 1
 176.000976562 70 l 1
 149.333984375 74 121.333984375 90 92.0009765625 118 c 0
 66.66796875 141.333007812 48.0009765625 156.333007812 36.0009765625 163 c 0
 19.333984375 174.333007812 10.6669921875 183.333007812 10 190 c 0
44.001953125 186.000976562 m 1
 34.0029296875 179.000976562 l 1
 37.3359375 179.66796875 40.6689453125 182.000976562 44.001953125 186.000976562 c 1
EndSplineSet
Validated: 1
EndChar

StartChar: equal
Encoding: 61 61 30
Width: 247
GlyphClass: 2
Flags: W
LayerCount: 2
Fore
SplineSet
22 138 m 1
 31.3330078125 139.333007812 63.6669921875 140.66796875 119 142.000976562 c 0
 164.333007812 140.000976562 193 135.66796875 205 129.000976562 c 1
 205 126.000976562 l 1
 184.333007812 115.333984375 143.333007812 108.666992188 82 106 c 0
 56 105.333007812 36.3330078125 104 23 102 c 1
 22 138 l 1
42.0009765625 210.001953125 m 1
 51.333984375 211.334960938 83.66796875 212.669921875 139.000976562 214.002929688 c 0
 184.333984375 212.002929688 213.000976562 207.669921875 225.000976562 201.002929688 c 1
 225.000976562 198.002929688 l 1
 204.333984375 187.3359375 163.333984375 180.668945312 102.000976562 178.001953125 c 0
 76.0009765625 177.334960938 56.333984375 176.001953125 43.0009765625 174.001953125 c 1
 42.0009765625 210.001953125 l 1
EndSplineSet
Validated: 1
EndChar

StartChar: greater
Encoding: 62 62 31
Width: 217
GlyphClass: 2
Flags: W
LayerCount: 2
Fore
SplineSet
201 158 m 0
 200.333007812 151.333007812 198.66796875 147.333007812 196.000976562 146 c 0
 122.000976562 109.333007812 67.66796875 85.666015625 33.0009765625 74.9990234375 c 0
 25.66796875 72.9990234375 19.0009765625 71.33203125 13.0009765625 69.9990234375 c 2
 10.0009765625 69.9990234375 l 2
 9.333984375 70.666015625 8.6669921875 70.9990234375 8 70.9990234375 c 1
 15 93.9990234375 l 1
 75 118.666015625 121.333007812 139.333007812 154 156 c 1
 146.666992188 162.666992188 135 171.666992188 119 183 c 0
 81.6669921875 210.333007812 56.6669921875 234 44 254 c 0
 39.3330078125 261.333007812 35.666015625 268.333007812 32.9990234375 275 c 1
 35.9990234375 279 l 1
 61.9990234375 275.666992188 89.666015625 259.666992188 118.999023438 231 c 0
 144.33203125 207 162.999023438 191.666992188 174.999023438 185 c 0
 191.666015625 173.666992188 200.333007812 164.666992188 201 158 c 0
EndSplineSet
Validated: 1
EndChar

StartChar: question
Encoding: 63 63 32
Width: 277
GlyphClass: 2
Flags: W
LayerCount: 2
Fore
SplineSet
57 35 m 2
 54.9990234375 35 l 2
 44.33203125 35 37.33203125 38.6669921875 33.9990234375 46 c 0
 33.33203125 47.3330078125 32.9990234375 48.3330078125 32.9990234375 49 c 2
 32.9990234375 50 l 1
 77.9990234375 63 l 2
 78.666015625 61 78.9990234375 59 78.9990234375 57 c 0
 78.33203125 45 72.33203125 38 60.9990234375 36 c 0
 59.666015625 35.3330078125 58.3330078125 35 57 35 c 2
58.9990234375 132 m 1
 58.9990234375 134.666992188 58.6669921875 138 58 142 c 0
 57.3330078125 147.333007812 57 151 57 153 c 2
 57 168 l 1
 65 206.666992188 91 242.333984375 135 275.000976562 c 0
 141 279.000976562 150 285.333984375 162 294.000976562 c 0
 203.333007812 322.66796875 230.666015625 347.000976562 243.999023438 367.000976562 c 0
 257.33203125 388.333984375 263.999023438 412.333984375 263.999023438 439.000976562 c 0
 263.999023438 461.000976562 252.33203125 475.66796875 228.999023438 483.000976562 c 0
 221.666015625 485.000976562 214.333007812 486.000976562 207 486.000976562 c 0
 139 486.000976562 87.6669921875 443.000976562 53 357.000976562 c 0
 51.6669921875 353.66796875 50.6669921875 351.000976562 50 349.000976562 c 2
 50 336.000976562 l 2
 47.3330078125 330.000976562 43 326.66796875 37 326.000976562 c 0
 28.3330078125 326.000976562 22.666015625 330.000976562 19.9990234375 338.000976562 c 0
 19.33203125 339.333984375 18.9990234375 340.666992188 18.9990234375 342 c 0
 32.33203125 404 63.33203125 451.333007812 111.999023438 484 c 0
 143.999023438 505.333007812 178.999023438 516 216.999023438 516 c 0
 248.33203125 516 270.665039062 502.333007812 283.998046875 475 c 0
 289.998046875 463.666992188 292.998046875 451.666992188 292.998046875 439 c 0
 292.998046875 389.666992188 270.665039062 346.666992188 225.998046875 310 c 0
 216.665039062 302.666992188 202.33203125 292 182.999023438 278 c 0
 139.666015625 247.333007812 110.666015625 221 95.9990234375 199 c 0
 89.9990234375 189 84.9990234375 179.333007812 80.9990234375 170 c 2
 60.9990234375 138 l 2
 59.666015625 135.333007812 58.9990234375 133.333007812 58.9990234375 132 c 1
EndSplineSet
Validated: 1
EndChar

StartChar: at
Encoding: 64 64 33
Width: 333
GlyphClass: 2
Flags: W
LayerCount: 2
Fore
SplineSet
224 316 m 0
 149.333007812 316 97 284.666992188 67 222 c 0
 53 191.333007812 46 156.333007812 46 117 c 0
 46 78.3330078125 61 50 91 32 c 0
 106.333007812 23.3330078125 123 19 141 19 c 0
 182.333007812 20.3330078125 231.333007812 33.666015625 288 58.9990234375 c 1
 289 57.9990234375 l 1
 251 29.33203125 222.666992188 10.9990234375 204 2.9990234375 c 0
 182 -5.0009765625 159 -9.0009765625 135 -9.0009765625 c 0
 89.6669921875 -9.0009765625 55.6669921875 8.666015625 33 43.9990234375 c 0
 21 62.666015625 15 82.9990234375 15 104.999023438 c 0
 15 188.33203125 39.6669921875 251.999023438 89 295.999023438 c 0
 123.666992188 326.666015625 165 341.999023438 213 341.999023438 c 0
 261 341.999023438 294.666992188 328.666015625 314 301.999023438 c 0
 322.666992188 289.999023438 327 276.999023438 327 262.999023438 c 0
 327 216.999023438 309 186.999023438 273 172.999023438 c 0
 264.333007812 169.666015625 255.333007812 167.333007812 246 166 c 0
 227.333007812 166 216.333007812 179 213 205 c 0
 212.333007812 207.666992188 212 210 212 212 c 1
 189.333007812 191.333007812 173.333007812 179 164 175 c 0
 155.333007812 171 146.333007812 168 137 166 c 0
 122.333007812 168.666992188 114.333007812 176.666992188 113 190 c 0
 119 225.333007812 146 246.333007812 194 253 c 0
 199.333007812 253.666992188 204.666015625 254 209.999023438 254 c 0
 239.33203125 252 255.33203125 241 257.999023438 221 c 0
 257.33203125 213.666992188 254.33203125 209 248.999023438 207 c 0
 248.33203125 207.666992188 247.33203125 208.333984375 245.999023438 209.000976562 c 0
 244.666015625 210.333984375 243.666015625 211.000976562 242.999023438 211.000976562 c 1
 243.666015625 198.333984375 246.999023438 190.666992188 252.999023438 188 c 1
 283.666015625 200.666992188 299.333007812 225 300 261 c 0
 300 287.666992188 283.666992188 305 251 313 c 0
 242.333007812 315 233.333007812 316 224 316 c 0
157 202 m 2
 157 200.666992188 155.333007812 198.666015625 152 195.999023438 c 2
 151 194.999023438 l 1
 155 196.999023438 159 199.33203125 163 201.999023438 c 0
 167 204.666015625 170.333007812 207.333007812 173 210 c 2
 177 213 l 1
 167.666992188 209 161 205.666992188 157 203 c 1
 157 202 l 2
EndSplineSet
Validated: 1
EndChar

StartChar: A
Encoding: 65 65 34
Width: 285
GlyphClass: 2
Flags: W
LayerCount: 2
Fore
SplineSet
193 51 m 1
 193 55.6669921875 192.666992188 62.3330078125 192 71 c 0
 191.333007812 80.3330078125 191 87 191 91 c 0
 191 104.333007812 192.666992188 143 196 207 c 1
 184 203 l 2
 176 200.333007812 170 198 166 196 c 2
 106 177 l 1
 94 150 l 2
 89.3330078125 138 85.666015625 129.333007812 82.9990234375 124 c 1
 127.666015625 102 164.333007812 77.6669921875 193 51 c 1
30 152.999023438 m 1
 34.6669921875 148.999023438 38.9990234375 145.999023438 42.9990234375 143.999023438 c 0
 49.666015625 139.999023438 59.3330078125 134.999023438 72 128.999023438 c 1
 78 142.999023438 84.6669921875 157.33203125 92 171.999023438 c 1
 30 152.999023438 l 1
122.999023438 211.999023438 m 1
 160.33203125 217.999023438 185 221.331054688 197 221.998046875 c 1
 200.333007812 266.665039062 205.666015625 324.998046875 212.999023438 396.998046875 c 1
 202.33203125 377.665039062 173.33203125 318.33203125 125.999023438 218.999023438 c 0
 124.666015625 216.33203125 123.666015625 213.999023438 122.999023438 211.999023438 c 1
56 94.998046875 m 0
 53.3330078125 96.3310546875 48.666015625 98.3330078125 41.9990234375 101 c 0
 7.33203125 116.333007812 -10.66796875 131 -12.0009765625 145 c 0
 -11.333984375 173.666992188 29.3330078125 195.333984375 110 210.000976562 c 1
 150 298.66796875 184 377.000976562 212 445.000976562 c 0
 218 460.333984375 223.333007812 468.666992188 228 470 c 0
 230 470.666992188 231.333007812 471 232 471 c 0
 239.333007812 471 246 468 252 462 c 0
 254 458.666992188 255 456 255 454 c 0
 255 451.333007812 254.333007812 446.666015625 253 439.999023438 c 0
 251.666992188 435.33203125 251 432.33203125 251 430.999023438 c 0
 251 430.33203125 249 417.665039062 245 392.998046875 c 0
 237 338.998046875 231 283.331054688 227 225.998046875 c 1
 231 226.665039062 248.333007812 230.665039062 279 237.998046875 c 1
 279 235.998046875 l 1
 246.333007812 226.665039062 228.666015625 221.33203125 225.999023438 219.999023438 c 0
 225.999023438 215.33203125 225.83203125 209.83203125 225.499023438 203.499023438 c 2
 224.499023438 184.499023438 l 2
 224.166015625 178.166015625 223.999023438 171.666015625 223.999023438 164.999023438 c 0
 223.999023438 158.33203125 223.83203125 152.33203125 223.499023438 146.999023438 c 0
 223.166015625 141.666015625 222.999023438 136.666015625 222.999023438 131.999023438 c 2
 222.999023438 120.999023438 l 1
 222.999023438 116.999023438 l 2
 222.999023438 70.9990234375 224.999023438 34.33203125 228.999023438 6.9990234375 c 1
 243.666015625 -16.333984375 250.999023438 -36.0009765625 250.999023438 -52.0009765625 c 0
 250.999023438 -60.0009765625 241.33203125 -66.0009765625 221.999023438 -70.0009765625 c 0
 218.666015625 -70.66796875 215.666015625 -71.3349609375 212.999023438 -72.001953125 c 2
 211.999023438 -72.001953125 l 2
 206.666015625 -72.001953125 201.666015625 -52.001953125 196.999023438 -12.001953125 c 1
 174.999023438 23.998046875 132.33203125 57.998046875 68.9990234375 89.998046875 c 1
 51.666015625 49.998046875 25.666015625 -9.6689453125 -9.0009765625 -89.001953125 c 1
 -30.0009765625 -90.001953125 l 1
 -28.66796875 -82.6689453125 -21.0009765625 -65.6689453125 -7.0009765625 -39.001953125 c 0
 -6.333984375 -37.001953125 -5.6669921875 -35.3349609375 -5 -34.001953125 c 0
 0.3330078125 -23.3349609375 8.3330078125 -6.3349609375 19 16.998046875 c 0
 35 50.998046875 47.3330078125 76.998046875 56 94.998046875 c 0
EndSplineSet
Validated: 1
EndChar

StartChar: B
Encoding: 66 66 35
Width: 624
GlyphClass: 2
Flags: W
LayerCount: 2
Fore
SplineSet
4 370 m 0
 4 424 54.3359375 467.333007812 155.002929688 500 c 0
 231.669921875 524.666992188 309.669921875 537 389.002929688 537 c 0
 458.3359375 537 516.668945312 525.666992188 564.001953125 503 c 0
 602.668945312 483 622.3359375 458 623.002929688 428 c 0
 622.3359375 402 604.3359375 377.666992188 569.002929688 355 c 0
 533.669921875 333 496.336914062 316.666992188 457.00390625 306 c 1
 516.336914062 264 548.669921875 218.333007812 554.002929688 169 c 1
 558.669921875 165 569.002929688 155 585.002929688 139 c 1
 584.002929688 138 l 1
 570.669921875 146 560.669921875 151.333007812 554.002929688 154 c 1
 548.669921875 91.3330078125 513.669921875 49.3330078125 449.002929688 28 c 0
 427.002929688 20.6669921875 403.002929688 16.333984375 377.002929688 15.0009765625 c 0
 343.002929688 15.0009765625 317.669921875 26.66796875 301.002929688 50.0009765625 c 0
 293.002929688 61.333984375 289.002929688 73.0009765625 289.002929688 85.0009765625 c 0
 292.3359375 139.66796875 322.3359375 176.66796875 379.002929688 196.000976562 c 0
 402.3359375 203.333984375 427.3359375 207.000976562 454.002929688 207.000976562 c 2
 456.002929688 207.000976562 l 2
 476.669921875 207.000976562 495.336914062 203.333984375 512.00390625 196.000976562 c 1
 495.336914062 238.000976562 463.336914062 271.66796875 416.00390625 297.000976562 c 1
 376.00390625 289.66796875 335.00390625 285.000976562 293.00390625 283.000976562 c 2
 285.00390625 283.000976562 l 1
 243.00390625 124.333984375 206.670898438 -6.666015625 176.00390625 -109.999023438 c 1
 170.00390625 -107.33203125 165.00390625 -104.665039062 161.00390625 -101.998046875 c 0
 160.336914062 -101.998046875 158.00390625 -102.665039062 154.00390625 -103.998046875 c 1
 174.00390625 -32.6650390625 206.336914062 97.3349609375 251.00390625 286.001953125 c 1
 221.00390625 290.001953125 203.00390625 301.001953125 197.00390625 319.001953125 c 1
 197.00390625 339.668945312 211.00390625 353.668945312 239.00390625 361.001953125 c 0
 247.670898438 363.668945312 256.337890625 365.001953125 265.004882812 365.001953125 c 2
 270.004882812 365.001953125 l 1
 276.004882812 392.001953125 l 2
 279.337890625 404.001953125 281.670898438 412.668945312 283.00390625 418.001953125 c 1
 279.670898438 412.668945312 271.00390625 396.668945312 257.00390625 370.001953125 c 1
 239.00390625 375.001953125 l 1
 243.670898438 382.334960938 258.00390625 411.001953125 282.00390625 461.001953125 c 0
 288.00390625 473.668945312 293.336914062 484.3359375 298.00390625 493.002929688 c 1
 303.336914062 494.3359375 308.00390625 495.002929688 312.00390625 495.002929688 c 0
 313.336914062 495.002929688 316.169921875 494.8359375 320.502929688 494.502929688 c 0
 324.8359375 494.169921875 327.668945312 494.002929688 329.001953125 494.002929688 c 2
 332.001953125 494.002929688 l 1
 332.001953125 483.002929688 l 2
 332.668945312 477.669921875 333.001953125 474.002929688 333.001953125 472.002929688 c 0
 327.001953125 447.3359375 317.334960938 410.002929688 304.001953125 360.002929688 c 1
 348.668945312 353.3359375 385.668945312 343.668945312 415.001953125 331.001953125 c 1
 460.334960938 340.334960938 501.001953125 355.66796875 537.001953125 377.000976562 c 0
 567.001953125 394.333984375 582.668945312 409.666992188 584.001953125 423 c 0
 584.001953125 466.333007812 538.001953125 495 446.001953125 509 c 0
 419.334960938 513 393.334960938 515 368.001953125 515 c 0
 280.001953125 515 201.001953125 502 131.001953125 476 c 0
 60.3349609375 448.666992188 24.66796875 414 24.0009765625 372 c 0
 24.66796875 366 29.66796875 360 39.0009765625 354 c 1
 40.0009765625 354 l 1
 31.0009765625 338 l 1
 16.333984375 342 7.6669921875 350.666992188 5 364 c 0
 4.3330078125 366.666992188 4 368.666992188 4 370 c 0
243.002929688 326 m 1
 249.669921875 323.333007812 255.002929688 321.666992188 259.002929688 321 c 0
 259.669921875 321.666992188 260.002929688 323 260.002929688 325 c 0
 260.669921875 327 261.002929688 328.333007812 261.002929688 329 c 1
 253.002929688 329 l 2
 252.3359375 329 251.002929688 328.666992188 249.002929688 328 c 0
 246.3359375 326.666992188 244.3359375 326 243.002929688 326 c 1
350.002929688 321.000976562 m 1
 332.669921875 325.000976562 315.002929688 327.999023438 297.002929688 329.999023438 c 0
 296.3359375 328.666015625 295.668945312 326.666015625 295.001953125 323.999023438 c 0
 293.668945312 320.666015625 293.001953125 318.333007812 293.001953125 317 c 1
 308.001953125 317 l 2
 312.668945312 317.666992188 320.3359375 318.333984375 331.002929688 319.000976562 c 0
 339.669921875 320.333984375 346.002929688 321.000976562 350.002929688 321.000976562 c 1
521.002929688 163.999023438 m 0
 497.669921875 169.999023438 474.002929688 172.997070312 450.002929688 172.997070312 c 0
 385.3359375 172.997070312 345.3359375 153.330078125 330.002929688 113.997070312 c 0
 326.669921875 106.6640625 324.669921875 98.9970703125 324.002929688 90.9970703125 c 0
 324.002929688 70.330078125 339.002929688 56.9970703125 369.002929688 50.9970703125 c 0
 375.669921875 49.6640625 382.336914062 48.9970703125 389.00390625 48.9970703125 c 0
 472.336914062 58.330078125 516.669921875 94.330078125 522.002929688 156.997070312 c 0
 522.002929688 157.6640625 521.8359375 158.831054688 521.502929688 160.498046875 c 0
 521.169921875 162.165039062 521.002929688 163.33203125 521.002929688 163.999023438 c 0
EndSplineSet
Validated: 1
EndChar

StartChar: C
Encoding: 67 67 36
Width: 335
GlyphClass: 2
Flags: W
LayerCount: 2
Fore
SplineSet
264 308 m 0
 248 308 238 317.3359375 234 336.002929688 c 0
 233.333007812 340.002929688 233 343.669921875 233 347.002929688 c 0
 233 363.669921875 238.666992188 387.336914062 250 418.00390625 c 0
 254 429.336914062 257 435.336914062 259 436.00390625 c 2
 287 426.00390625 l 1
 287 425.00390625 l 2
 285.666992188 419.00390625 283 410.670898438 279 400.00390625 c 0
 271.666992188 378.670898438 268 361.670898438 268 349.00390625 c 2
 268 339.00390625 l 1
 269.333007812 340.336914062 272.333007812 342.669921875 277 346.002929688 c 0
 280.333007812 348.669921875 282.333007812 350.336914062 283 351.00390625 c 0
 296.333007812 370.336914062 303 392.669921875 303 418.002929688 c 0
 303 442.002929688 297 457.3359375 285 464.002929688 c 0
 281.666992188 465.3359375 278.666992188 466.002929688 276 466.002929688 c 0
 239.333007812 466.002929688 195.333007812 434.669921875 144 372.002929688 c 0
 88.6669921875 305.3359375 52 237.668945312 34 169.001953125 c 0
 28.6669921875 147.668945312 26 128.668945312 26 112.001953125 c 0
 32 50.6689453125 66.3330078125 18.6689453125 129 16.001953125 c 0
 141 16.001953125 171.333007812 20.3349609375 220 29.001953125 c 0
 222.666992188 29.6689453125 225 30.001953125 227 30.001953125 c 1
 227 28.001953125 l 1
 190.333007812 8.001953125 168.666015625 -3.3310546875 161.999023438 -5.998046875 c 0
 143.33203125 -12.6650390625 124.33203125 -15.998046875 104.999023438 -15.998046875 c 0
 29.666015625 -9.998046875 -9.6669921875 28.6689453125 -13 100.001953125 c 0
 -13 167.334960938 13.3330078125 243.334960938 66 328.001953125 c 0
 113.333007812 404.001953125 163.666015625 456.001953125 216.999023438 484.001953125 c 0
 238.33203125 494.668945312 257.999023438 500.001953125 275.999023438 500.001953125 c 0
 303.33203125 500.001953125 320.999023438 484.334960938 328.999023438 453.001953125 c 0
 330.999023438 444.334960938 331.999023438 435.66796875 331.999023438 427.000976562 c 0
 331.999023438 398.333984375 323.666015625 369.333984375 306.999023438 340.000976562 c 0
 291.666015625 319.333984375 277.333007812 308.666992188 264 308 c 0
EndSplineSet
Validated: 1
EndChar

StartChar: D
Encoding: 68 68 37
Width: 612
GlyphClass: 2
Flags: W
LayerCount: 2
Fore
SplineSet
541 158 m 1
 509.666992188 168 475.666992188 173 439 173 c 0
 399.666992188 173 368 162 344 140 c 0
 330 126 322.666992188 110.666992188 322 94 c 0
 322 72 336.333007812 57.6669921875 365 51 c 0
 373 49.6669921875 380.333007812 49 387 49 c 0
 455 49.6669921875 506.333007812 86 541 158 c 1
310 495 m 0
 311.333007812 495 314 494.831054688 318 494.498046875 c 0
 322 494.165039062 325 493.998046875 327 493.998046875 c 2
 330 493.998046875 l 1
 330 482.998046875 l 2
 330.666992188 477.665039062 331 473.998046875 331 471.998046875 c 0
 273.666992188 243.331054688 221.333984375 49.3310546875 174.000976562 -110.001953125 c 1
 168.000976562 -107.334960938 163.000976562 -104.66796875 159.000976562 -102.000976562 c 0
 158.333984375 -102.000976562 156.000976562 -102.66796875 152.000976562 -104.000976562 c 1
 169.333984375 -42.0009765625 206.666992188 108.33203125 264 346.999023438 c 0
 270 372.999023438 275.666992188 396.666015625 281 417.999023438 c 1
 277.666992188 412.666015625 269 396.666015625 255 369.999023438 c 1
 237 374.999023438 l 1
 241.666992188 382.33203125 256 410.999023438 280 460.999023438 c 0
 286 473.666015625 291.333007812 484.333007812 296 493 c 1
 301.333007812 494.333007812 306 495 310 495 c 0
568 152.998046875 m 0
 569.333007812 151.665039062 571.999023438 149.33203125 575.999023438 145.999023438 c 2
 582.999023438 138.999023438 l 1
 581.999023438 137.999023438 l 1
 575.33203125 141.999023438 569.999023438 144.999023438 565.999023438 146.999023438 c 1
 527.33203125 68.33203125 473.33203125 24.6650390625 403.999023438 15.998046875 c 0
 396.666015625 15.3310546875 389.333007812 14.998046875 382 14.998046875 c 0
 343.333007812 14.998046875 315.333007812 27.998046875 298 53.998046875 c 0
 290.666992188 65.3310546875 287 77.6640625 287 90.9970703125 c 0
 287 134.997070312 312.333007812 167.997070312 363 189.997070312 c 0
 389.666992188 201.330078125 417.666992188 206.997070312 447 206.997070312 c 2
 455 206.997070312 l 2
 487.666992188 206.330078125 518.333984375 194.997070312 547.000976562 172.997070312 c 1
 562.333984375 212.330078125 570.000976562 255.330078125 570.000976562 301.997070312 c 0
 570.000976562 401.997070312 539.000976562 465.997070312 477.000976562 493.997070312 c 0
 445.66796875 507.997070312 405.334960938 514.997070312 356.001953125 514.997070312 c 0
 216.001953125 514.330078125 109.668945312 477.330078125 37.001953125 403.997070312 c 0
 27.6689453125 391.997070312 22.6689453125 381.330078125 22.001953125 371.997070312 c 0
 22.6689453125 365.997070312 27.6689453125 359.997070312 37.001953125 353.997070312 c 1
 38.001953125 353.997070312 l 1
 29.001953125 337.997070312 l 1
 14.3349609375 341.997070312 5.66796875 350.6640625 3.0009765625 363.997070312 c 0
 2.333984375 366.6640625 2.0009765625 368.6640625 2.0009765625 369.997070312 c 0
 5.333984375 396.6640625 23.6669921875 421.331054688 57 443.998046875 c 0
 59.6669921875 445.998046875 63.6669921875 448.665039062 69 451.998046875 c 0
 74.3330078125 455.331054688 78.3330078125 457.998046875 81 459.998046875 c 0
 169 510.665039062 269.666992188 535.998046875 383 535.998046875 c 0
 505 535.998046875 576.666992188 484.665039062 598 381.998046875 c 0
 602 361.998046875 604 340.331054688 604 316.998046875 c 0
 604 259.665039062 592 204.998046875 568 152.998046875 c 0
EndSplineSet
Validated: 1
EndChar

StartChar: E
Encoding: 69 69 38
Width: 465
GlyphClass: 2
Flags: W
LayerCount: 2
Fore
SplineSet
89 238 m 1
 85.6669921875 310 66.9990234375 385.333007812 32.9990234375 464 c 0
 22.9990234375 487.333007812 17.9990234375 500.666015625 17.9990234375 503.999023438 c 0
 17.9990234375 507.999023438 18.666015625 512.999023438 19.9990234375 518.999023438 c 1
 38.666015625 532.999023438 48.3330078125 540.33203125 49 540.999023438 c 0
 54.3330078125 542.999023438 67.666015625 543.999023438 88.9990234375 543.999023438 c 0
 126.999023438 543.999023438 184.33203125 537.999023438 260.999023438 525.999023438 c 0
 314.999023438 516.666015625 349.33203125 510.333007812 363.999023438 507 c 0
 387.33203125 502.333007812 402.999023438 498.666015625 410.999023438 495.999023438 c 0
 420.33203125 491.33203125 429.33203125 486.999023438 437.999023438 482.999023438 c 0
 445.33203125 478.999023438 454.999023438 475.33203125 466.999023438 471.999023438 c 0
 474.33203125 469.999023438 480.33203125 468.33203125 484.999023438 466.999023438 c 1
 483.999023438 465.999023438 l 1
 452.999023438 469.999023438 l 2
 451.666015625 469.999023438 448.999023438 469.666015625 444.999023438 468.999023438 c 0
 422.33203125 468.999023438 391.665039062 472.33203125 352.998046875 478.999023438 c 0
 338.998046875 480.999023438 317.665039062 484.666015625 288.998046875 489.999023438 c 0
 204.331054688 505.33203125 139.331054688 512.999023438 93.998046875 512.999023438 c 0
 91.998046875 512.999023438 88.6650390625 512.666015625 83.998046875 511.999023438 c 2
 73.998046875 511.999023438 l 2
 71.998046875 511.999023438 67.3310546875 510.666015625 59.998046875 507.999023438 c 0
 53.998046875 505.999023438 49.6650390625 504.666015625 46.998046875 503.999023438 c 0
 46.998046875 502.666015625 47.3310546875 500.833007812 47.998046875 498.5 c 0
 48.6650390625 496.166992188 49.33203125 494.166992188 49.9990234375 492.5 c 0
 50.666015625 490.833007812 51.3330078125 488.833007812 52 486.5 c 0
 52.6669921875 484.166992188 53.1669921875 482.333984375 53.5 481.000976562 c 0
 53.8330078125 479.66796875 54.3330078125 478.000976562 55 476.000976562 c 2
 56 474.000976562 l 1
 81.3330078125 406.66796875 97.3330078125 343.66796875 104 285.000976562 c 1
 119 342.000976562 l 2
 130.333007812 381.333984375 138.333007812 410.666992188 143 430 c 0
 154.333007812 470.666992188 161.666015625 494.333984375 164.999023438 501.000976562 c 1
 190.999023438 498.000976562 l 2
 190.999023438 495.333984375 190.33203125 491.666992188 188.999023438 487 c 0
 187.666015625 483.666992188 186.999023438 481.333984375 186.999023438 480.000976562 c 0
 174.999023438 434.66796875 153.666015625 357.000976562 122.999023438 247.000976562 c 1
 139.666015625 251.000976562 155.999023438 253.000976562 171.999023438 253.000976562 c 0
 187.33203125 253.000976562 198.33203125 252.000976562 204.999023438 250.000976562 c 0
 206.999023438 249.333984375 209.999023438 247.333984375 213.999023438 244.000976562 c 0
 217.999023438 241.333984375 220.666015625 239.666992188 221.999023438 239 c 2
 220.999023438 236 l 1
 210.999023438 232 180.666015625 225.333007812 129.999023438 216 c 0
 123.999023438 215.333007812 118.666015625 214.333007812 113.999023438 213 c 0
 113.999023438 211 113.33203125 208.666992188 111.999023438 206 c 0
 110.666015625 202 109.999023438 199.333007812 109.999023438 198 c 0
 108.666015625 151.333007812 103.333007812 105.666015625 94 60.9990234375 c 1
 125.333007812 82.9990234375 162 96.33203125 204 100.999023438 c 0
 208 101.666015625 214.666992188 101.999023438 224 101.999023438 c 0
 233.333007812 102.666015625 240 102.999023438 244 102.999023438 c 0
 311.333007812 99.666015625 361.333007812 90.3330078125 394 75 c 2
 402 71 l 2
 406 69 411.666992188 65.3330078125 419 60 c 0
 425 55.3330078125 429.333007812 52.3330078125 432 51 c 0
 434.666992188 49 439.333984375 46.3330078125 446.000976562 43 c 0
 452.000976562 39 456.333984375 36.3330078125 459.000976562 35 c 1
 458.000976562 34 l 1
 441.333984375 38.6669921875 427.000976562 41.6669921875 415.000976562 43 c 0
 408.333984375 43.6669921875 400.000976562 44.6669921875 390.000976562 46 c 2
 342.000976562 55 l 2
 297.333984375 64.3330078125 263.666992188 69 241 69 c 0
 206.333007812 69 172.333007812 62.6669921875 139 50 c 0
 114.333007812 40.6669921875 94.3330078125 23.6669921875 79 -1 c 0
 77.6669921875 -3 76.333984375 -6.6669921875 75.0009765625 -12 c 0
 73.0009765625 -18 71.0009765625 -22 69.0009765625 -24 c 0
 57.0009765625 -31.3330078125 48.0009765625 -35 42.0009765625 -35 c 0
 35.333984375 -34.3330078125 32.0009765625 -29 32.0009765625 -19 c 0
 32.0009765625 -14.3330078125 32.66796875 -7.666015625 34.0009765625 1.0009765625 c 0
 34.66796875 4.333984375 35.0009765625 6.6669921875 35.0009765625 8 c 0
 43.66796875 46.6669921875 60.0009765625 113 84.0009765625 207 c 1
 81.0009765625 207 l 1
 61.0009765625 217 l 1
 66.333984375 226.333007812 75.6669921875 233.333007812 89 238 c 1
EndSplineSet
Validated: 1
EndChar

StartChar: F
Encoding: 70 70 39
Width: 458
GlyphClass: 2
Flags: W
LayerCount: 2
Fore
SplineSet
89 238 m 1
 85.6669921875 310 67.001953125 385.333984375 33.001953125 464.000976562 c 0
 23.001953125 487.333984375 18.001953125 500.666992188 18.001953125 504 c 0
 18.001953125 508 18.6689453125 513 20.001953125 519 c 1
 38.6689453125 533 48.3359375 540.333007812 49.0029296875 541 c 0
 54.3359375 543 67.6689453125 544 89.001953125 544 c 0
 127.001953125 544 184.334960938 538 261.001953125 526 c 0
 315.001953125 516.666992188 349.334960938 510.333984375 364.001953125 507.000976562 c 0
 387.334960938 502.333984375 403.001953125 498.666992188 411.001953125 496 c 0
 420.334960938 491.333007812 429.334960938 487 438.001953125 483 c 0
 445.334960938 479 455.001953125 475.333007812 467.001953125 472 c 0
 474.334960938 470 480.334960938 468.333007812 485.001953125 467 c 1
 484.001953125 466 l 1
 453.001953125 470 l 2
 451.668945312 470 449.001953125 469.666992188 445.001953125 469 c 0
 422.334960938 469 391.66796875 472.333007812 353.000976562 479 c 0
 339.000976562 481 317.66796875 484.666992188 289.000976562 490 c 0
 204.333984375 505.333007812 139.333984375 513 94.0009765625 513 c 0
 92.0009765625 513 88.66796875 512.666992188 84.0009765625 512 c 2
 74.0009765625 512 l 2
 72.0009765625 512 67.333984375 510.666992188 60.0009765625 508 c 0
 54.0009765625 506 49.66796875 504.666992188 47.0009765625 504 c 0
 47.0009765625 502.666992188 47.333984375 500.833984375 48.0009765625 498.500976562 c 0
 48.66796875 496.16796875 49.3349609375 494.16796875 50.001953125 492.500976562 c 0
 50.6689453125 490.833984375 51.3359375 488.833984375 52.0029296875 486.500976562 c 0
 52.669921875 484.16796875 53.169921875 482.334960938 53.5029296875 481.001953125 c 0
 53.8359375 479.668945312 54.3359375 478.001953125 55.0029296875 476.001953125 c 2
 56.0029296875 474.001953125 l 1
 81.3359375 406.668945312 97.3359375 343.668945312 104.002929688 285.001953125 c 1
 119.002929688 342.001953125 l 2
 130.3359375 381.334960938 138.3359375 410.66796875 143.002929688 430.000976562 c 0
 154.3359375 470.66796875 161.668945312 494.334960938 165.001953125 501.001953125 c 1
 191.001953125 498.001953125 l 2
 191.001953125 495.334960938 190.334960938 491.66796875 189.001953125 487.000976562 c 0
 187.668945312 483.66796875 187.001953125 481.334960938 187.001953125 480.001953125 c 0
 175.001953125 434.668945312 153.668945312 357.001953125 123.001953125 247.001953125 c 1
 139.668945312 251.001953125 156.001953125 253.001953125 172.001953125 253.001953125 c 0
 187.334960938 253.001953125 198.334960938 252.001953125 205.001953125 250.001953125 c 0
 207.001953125 249.334960938 210.001953125 247.334960938 214.001953125 244.001953125 c 0
 218.001953125 241.334960938 220.668945312 239.66796875 222.001953125 239.000976562 c 2
 221.001953125 236.000976562 l 1
 211.001953125 232.000976562 180.668945312 225.333984375 130.001953125 216.000976562 c 0
 124.001953125 215.333984375 118.668945312 214.333984375 114.001953125 213.000976562 c 0
 114.001953125 211.000976562 113.334960938 208.66796875 112.001953125 206.000976562 c 0
 110.668945312 202.000976562 110.001953125 199.333984375 110.001953125 198.000976562 c 0
 108.668945312 131.333984375 98.001953125 65.6669921875 78.001953125 1 c 0
 77.3349609375 -1 76.66796875 -4 76.0009765625 -8 c 0
 74.0009765625 -16.6669921875 71.66796875 -22 69.0009765625 -24 c 0
 57.0009765625 -31.3330078125 48.0009765625 -35 42.0009765625 -35 c 0
 35.333984375 -34.3330078125 32.0009765625 -29 32.0009765625 -19 c 0
 32.0009765625 -14.3330078125 32.66796875 -7.666015625 34.0009765625 1.0009765625 c 0
 34.66796875 4.333984375 35.0009765625 6.6669921875 35.0009765625 8 c 0
 43.66796875 46.6669921875 60.0009765625 113 84.0009765625 207 c 1
 81.0009765625 207 l 1
 61.0009765625 217 l 1
 66.333984375 226.333007812 75.6669921875 233.333007812 89 238 c 1
EndSplineSet
Validated: 1
EndChar

StartChar: G
Encoding: 71 71 40
Width: 459
GlyphClass: 2
Flags: W
LayerCount: 2
Fore
SplineSet
374 109 m 1
 334.666992188 58.3330078125 300.333007812 21.6708984375 271 -0.99609375 c 0
 238.333007812 -24.3291015625 208.333007812 -35.99609375 181 -35.99609375 c 0
 137.666992188 -34.6630859375 115.666992188 -5.330078125 115 52.0029296875 c 0
 115 144.002929688 142 235.669921875 196 327.002929688 c 0
 242 403.669921875 293 455.669921875 349 483.002929688 c 0
 352.333007812 484.3359375 363.666015625 487.668945312 382.999023438 493.001953125 c 1
 399.666015625 491.001953125 409.333007812 489.668945312 412 489.001953125 c 0
 428.666992188 483.001953125 438.333984375 469.668945312 441.000976562 449.001953125 c 0
 441.66796875 446.334960938 442.000976562 443.66796875 442.000976562 441.000976562 c 0
 441.333984375 414.333984375 431.000976562 388.666992188 411.000976562 364 c 0
 404.333984375 357.333007812 400.333984375 353.666015625 399.000976562 352.999023438 c 2
 383.000976562 361.999023438 l 1
 383.000976562 364.999023438 l 2
 385.66796875 372.33203125 389.000976562 379.999023438 393.000976562 387.999023438 c 2
 401.000976562 403.999023438 l 2
 406.333984375 417.999023438 409.000976562 428.999023438 409.000976562 436.999023438 c 0
 409.000976562 448.999023438 403.66796875 456.33203125 393.000976562 458.999023438 c 0
 391.66796875 459.666015625 390.334960938 459.999023438 389.001953125 459.999023438 c 0
 377.001953125 459.999023438 363.668945312 456.33203125 349.001953125 448.999023438 c 0
 298.334960938 423.666015625 251.334960938 371.666015625 208.001953125 292.999023438 c 0
 162.668945312 208.999023438 140.001953125 129.33203125 140.001953125 53.9990234375 c 0
 141.334960938 9.9990234375 158.001953125 -12.66796875 190.001953125 -14.0009765625 c 0
 211.334960938 -13.333984375 232.66796875 -4.6669921875 254.000976562 12 c 0
 289.333984375 40.6669921875 325.000976562 82 361.000976562 136 c 0
 367.66796875 146.666992188 375.334960938 159.333984375 384.001953125 174.000976562 c 0
 384.668945312 174.66796875 385.001953125 175.334960938 385.001953125 176.001953125 c 2
 391.001953125 185.001953125 l 1
 415.001953125 179.668945312 427.668945312 174.001953125 429.001953125 168.001953125 c 0
 429.001953125 161.334960938 428.001953125 152.66796875 426.001953125 142.000976562 c 0
 396.668945312 37.333984375 362.668945312 -46.3330078125 324.001953125 -109 c 0
 270.001953125 -195 204.001953125 -247.666992188 126.001953125 -267 c 0
 115.334960938 -269 104.66796875 -270 94.0009765625 -270 c 0
 66.0009765625 -270 43.333984375 -266 26.0009765625 -258 c 0
 24.0009765625 -257.333007812 12.0009765625 -249.666015625 -9.9990234375 -234.999023438 c 0
 -11.9990234375 -233.666015625 -13.33203125 -232.666015625 -13.9990234375 -231.999023438 c 0
 -16.666015625 -227.999023438 -20.666015625 -221.33203125 -25.9990234375 -211.999023438 c 0
 -31.9990234375 -201.999023438 -36.33203125 -194.999023438 -38.9990234375 -190.999023438 c 1
 -37.9990234375 -189.999023438 l 1
 -19.9990234375 -201.999023438 l 2
 -11.33203125 -207.33203125 -4.9990234375 -210.999023438 -0.9990234375 -212.999023438 c 0
 29.0009765625 -224.999023438 48.66796875 -231.33203125 58.0009765625 -231.999023438 c 0
 63.333984375 -232.666015625 69.0009765625 -232.999023438 75.0009765625 -232.999023438 c 0
 90.333984375 -232.999023438 107.000976562 -230.666015625 125.000976562 -225.999023438 c 0
 181.000976562 -212.666015625 233.66796875 -169.333007812 283.000976562 -96 c 0
 320.333984375 -39.3330078125 350.666992188 29 374 109 c 1
EndSplineSet
Validated: 1
EndChar

StartChar: H
Encoding: 72 72 41
Width: 463
GlyphClass: 2
Flags: W
LayerCount: 2
Fore
SplineSet
266 217 m 1
 282.666992188 215.666992188 315.334960938 214 364.001953125 212 c 1
 370.668945312 251.333007812 385.668945312 324.333007812 409.001953125 431 c 0
 421.001953125 485 428.001953125 515.333007812 430.001953125 522 c 0
 434.668945312 535.333007812 439.001953125 544.333007812 443.001953125 549 c 1
 465.001953125 532 l 1
 467.001953125 534 l 1
 467.668945312 533.333007812 468.001953125 532.333007812 468.001953125 531 c 2
 466.001953125 519 l 2
 464.001953125 507 460.334960938 489 455.001953125 465 c 0
 451.001953125 449 448.334960938 437 447.001953125 429 c 0
 417.001953125 291.666992188 401.334960938 219 400.001953125 211 c 1
 402.668945312 211 418.001953125 210.333007812 446.001953125 209 c 1
 445.001953125 207 l 2
 440.334960938 206.333007812 432.66796875 205.666015625 422.000976562 204.999023438 c 0
 411.333984375 203.666015625 403.666992188 202.999023438 399 202.999023438 c 1
 395.666992188 184.999023438 390 157.33203125 382 119.999023438 c 0
 374 83.33203125 368.333007812 55.9990234375 365 37.9990234375 c 0
 351 -8.0009765625 340.666992188 -44.66796875 334 -72.0009765625 c 0
 333.333007812 -76.0009765625 332.666015625 -79.66796875 331.999023438 -83.0009765625 c 2
 330.999023438 -83.0009765625 l 1
 332.999023438 -56.333984375 334.999023438 -16.6669921875 336.999023438 36 c 2
 336.999023438 38 l 1
 349.666015625 129.333007812 357.666015625 184 360.999023438 202 c 1
 316.999023438 200.666992188 283.666015625 200 260.999023438 200 c 1
 236.33203125 116 219.665039062 63.3330078125 210.998046875 42 c 0
 205.665039062 30 200.33203125 18.6669921875 194.999023438 8 c 0
 172.33203125 -36 148.33203125 -63 122.999023438 -73 c 0
 112.999023438 -77 102.666015625 -79 91.9990234375 -79 c 0
 83.33203125 -79 75.9990234375 -77.6669921875 69.9990234375 -75 c 0
 31.33203125 -58.3330078125 3.6650390625 -12.3330078125 -13.001953125 63 c 0
 -15.001953125 69.6669921875 -16.6689453125 77 -18.001953125 85 c 0
 -18.001953125 88.3330078125 -18.3349609375 93.3330078125 -19.001953125 100 c 0
 -19.6689453125 107.333007812 -20.001953125 112.666015625 -20.001953125 115.999023438 c 0
 -19.3349609375 143.999023438 -12.001953125 165.666015625 1.998046875 180.999023438 c 0
 24.6650390625 205.666015625 65.33203125 218.999023438 123.999023438 220.999023438 c 2
 153.999023438 220.999023438 l 2
 171.999023438 220.999023438 199.33203125 220.33203125 235.999023438 218.999023438 c 1
 263.33203125 313.666015625 282.999023438 393.333007812 294.999023438 458 c 0
 295.666015625 462.666992188 296.666015625 471.333984375 297.999023438 484.000976562 c 0
 299.33203125 492.66796875 300.33203125 499.000976562 300.999023438 503.000976562 c 1
 299.999023438 502.000976562 l 2
 294.666015625 498.000976562 286.666015625 490.66796875 275.999023438 480.000976562 c 0
 264.666015625 468.66796875 256.333007812 461.000976562 251 457.000976562 c 0
 219 428.333984375 197.333007812 410.666992188 186 404 c 1
 184 421 l 1
 208 432.333007812 236 456.333007812 268 493 c 0
 276 502.333007812 281 508.333007812 283 511 c 0
 295 525 302.333007812 532.666992188 305 534 c 0
 307.666992188 535.333007812 309.666992188 536 311 536 c 0
 314.333007812 535.333007812 321 531 331 523 c 1
 332.333007812 512.333007812 333 504.333007812 333 499 c 0
 333 480.333007812 327.333007812 450 316 408 c 0
 308 374.666992188 291.333007812 311 266 217 c 1
229.000976562 199 m 1
 159.000976562 197 123.668945312 195.999023438 123.001953125 195.999023438 c 0
 83.001953125 189.999023438 58.6689453125 185.33203125 50.001953125 181.999023438 c 0
 42.001953125 179.33203125 35.6689453125 175.999023438 31.001953125 171.999023438 c 0
 16.3349609375 158.666015625 9.001953125 139.666015625 9.001953125 114.999023438 c 0
 9.6689453125 68.9990234375 21.6689453125 28.666015625 45.001953125 -6.0009765625 c 0
 60.3349609375 -27.333984375 76.66796875 -38.333984375 94.0009765625 -39.0009765625 c 0
 119.333984375 -39.0009765625 141.333984375 -22.0009765625 160.000976562 11.9990234375 c 0
 160.66796875 13.33203125 161.000976562 14.33203125 161.000976562 14.9990234375 c 0
 178.333984375 46.33203125 199.333984375 101.999023438 224.000976562 181.999023438 c 0
 226.000976562 188.666015625 227.66796875 194.333007812 229.000976562 199 c 1
EndSplineSet
Validated: 1
EndChar

StartChar: I
Encoding: 73 73 42
Width: 326
GlyphClass: 2
Flags: W
LayerCount: 2
Fore
SplineSet
295 503 m 1
 294.002929688 502.002929688 l 2
 288.669921875 498.002929688 280.669921875 490.669921875 270.002929688 480.002929688 c 0
 258.669921875 468.669921875 250.336914062 461.002929688 245.00390625 457.002929688 c 0
 213.00390625 428.3359375 191.336914062 410.668945312 180.00390625 404.001953125 c 1
 178.00390625 421.001953125 l 1
 201.336914062 432.334960938 228.669921875 456.001953125 260.002929688 492.001953125 c 0
 268.002929688 501.334960938 273.3359375 507.66796875 276.002929688 511.000976562 c 0
 290.669921875 527.000976562 300.336914062 535.333984375 305.00390625 536.000976562 c 0
 308.336914062 535.333984375 315.00390625 531.000976562 325.00390625 523.000976562 c 1
 326.336914062 512.333984375 327.00390625 504.333984375 327.00390625 499.000976562 c 0
 327.00390625 480.333984375 321.336914062 450.000976562 310.00390625 408.000976562 c 0
 303.336914062 378.000976562 291.669921875 333.333984375 275.002929688 274.000976562 c 0
 266.3359375 242.000976562 260.002929688 218.000976562 256.002929688 202.000976562 c 0
 229.3359375 109.333984375 206.668945312 44.6669921875 188.001953125 8 c 0
 166.668945312 -34 144.668945312 -60.3330078125 122.001953125 -71 c 0
 110.668945312 -76.3330078125 98.6689453125 -79 86.001953125 -79 c 0
 76.6689453125 -79 69.001953125 -77.6669921875 63.001953125 -75 c 0
 24.3349609375 -58.3330078125 -3.33203125 -12.3330078125 -19.9990234375 63 c 0
 -21.9990234375 69.6669921875 -23.666015625 77 -24.9990234375 85 c 0
 -24.9990234375 88.3330078125 -25.33203125 93.3330078125 -25.9990234375 100 c 0
 -26.666015625 107.333007812 -26.9990234375 112.666015625 -26.9990234375 115.999023438 c 1
 3.0009765625 114.999023438 l 1
 3.66796875 68.9990234375 15.66796875 28.666015625 39.0009765625 -6.0009765625 c 0
 54.333984375 -27.333984375 70.6669921875 -38.333984375 88 -39.0009765625 c 0
 113.333007812 -39.0009765625 135.333007812 -22.0009765625 154 11.9990234375 c 0
 154.666992188 13.33203125 155 14.33203125 155 14.9990234375 c 0
 172.333007812 46.33203125 193.333007812 101.999023438 218 181.999023438 c 0
 220.666992188 191.33203125 223 198.999023438 225 204.999023438 c 0
 257.666992188 319.666015625 279 403.999023438 289 457.999023438 c 0
 289.666992188 462.666015625 290.666992188 471.333007812 292 484 c 0
 293.333007812 492.666992188 294.333007812 499 295 503 c 1
EndSplineSet
Validated: 1
EndChar

StartChar: J
Encoding: 74 74 43
Width: 414
GlyphClass: 2
Flags: W
LayerCount: 2
Fore
SplineSet
217 -22 m 1
 147 -24 111.66796875 -25 111.000976562 -25 c 0
 69.66796875 -31 48.66796875 -34 48.0009765625 -34 c 0
 35.333984375 -38 25.333984375 -42.6669921875 18.0009765625 -48 c 0
 4.0009765625 -60.6669921875 -2.9990234375 -79.6669921875 -2.9990234375 -105 c 0
 -2.33203125 -151 9.66796875 -191.333007812 33.0009765625 -226 c 0
 48.333984375 -247.333007812 64.6669921875 -258.333007812 82 -259 c 0
 107.333007812 -258.333007812 129.333007812 -240.333007812 148 -205 c 0
 166.666992188 -172.333007812 188.666992188 -114.333007812 214 -31 c 0
 215.333007812 -27.6669921875 216.333007812 -24.6669921875 217 -22 c 1
223.000976562 -1 m 1
 263.000976562 145.666992188 297.333007812 287.333007812 326 424 c 0
 329.333007812 438 331.666015625 449.333007812 332.999023438 458 c 0
 333.666015625 462.666992188 334.666015625 471.333984375 335.999023438 484.000976562 c 0
 337.33203125 492.66796875 338.33203125 499.000976562 338.999023438 503.000976562 c 1
 337.999023438 502.000976562 l 2
 332.666015625 498.000976562 324.666015625 490.66796875 313.999023438 480.000976562 c 0
 302.666015625 468.66796875 294.333007812 461.000976562 289 457.000976562 c 0
 257 428.333984375 235.333007812 410.666992188 224 404 c 1
 222 421 l 1
 246 432.333007812 274 456.333007812 306 493 c 0
 314 502.333007812 319 508.333007812 321 511 c 0
 333 525 340.333007812 532.666992188 343 534 c 0
 345.666992188 535.333007812 347.666992188 536 349 536 c 0
 352.333007812 535.333007812 359 531 369 523 c 1
 370.333007812 512.333007812 371 504.333007812 371 499 c 0
 371 480.333007812 365.333007812 450 354 408 c 0
 316.666992188 246.666992188 283.333984375 109.666992188 254.000976562 -3 c 1
 274.000976562 -4.3330078125 334.000976562 -7 434.000976562 -11 c 1
 433.000976562 -13 l 1
 401.000976562 -16.3330078125 339.66796875 -18.666015625 249.000976562 -19.9990234375 c 1
 223.66796875 -106.666015625 204.66796875 -163.999023438 192.000976562 -191.999023438 c 0
 188.66796875 -199.33203125 185.334960938 -205.999023438 182.001953125 -211.999023438 c 0
 160.668945312 -253.999023438 138.668945312 -280.33203125 116.001953125 -290.999023438 c 0
 104.668945312 -296.33203125 92.6689453125 -298.999023438 80.001953125 -298.999023438 c 0
 70.6689453125 -298.999023438 63.001953125 -297.666015625 57.001953125 -294.999023438 c 0
 18.3349609375 -278.33203125 -9.33203125 -232.33203125 -25.9990234375 -156.999023438 c 0
 -27.9990234375 -150.33203125 -29.666015625 -142.999023438 -30.9990234375 -134.999023438 c 0
 -30.9990234375 -131.666015625 -31.33203125 -126.666015625 -31.9990234375 -119.999023438 c 0
 -32.666015625 -112.666015625 -32.9990234375 -107.333007812 -32.9990234375 -104 c 0
 -32.33203125 -76.6669921875 -24.6650390625 -55 -9.998046875 -39 c 0
 12.6689453125 -14.3330078125 52.6689453125 -1 110.001953125 1 c 2
 141.001953125 1 l 2
 160.334960938 1 187.66796875 0.3330078125 223.000976562 -1 c 1
EndSplineSet
Validated: 1
EndChar

StartChar: K
Encoding: 75 75 44
Width: 517
GlyphClass: 2
Flags: W
LayerCount: 2
Fore
SplineSet
160 538 m 0
 120 514.666992188 85.0009765625 488 55.0009765625 458 c 0
 54.333984375 457.333007812 53.333984375 456 52.0009765625 454 c 0
 49.333984375 450 47.333984375 447.666992188 46.0009765625 447 c 2
 27.0009765625 439 l 1
 26.333984375 441 26.0009765625 443 26.0009765625 445 c 0
 26.0009765625 454.333007812 37.0009765625 468 59.0009765625 486 c 0
 61.0009765625 487.333007812 62.333984375 488.333007812 63.0009765625 489 c 0
 65.0009765625 491 69.66796875 495 77.0009765625 501 c 0
 135.000976562 551 176.000976562 576.333007812 200.000976562 577 c 0
 219.333984375 575.666992188 229.333984375 559.333984375 230.000976562 528.000976562 c 0
 230.000976562 506.66796875 225.000976562 468.000976562 215.000976562 412.000976562 c 0
 199.000976562 331.333984375 182.333984375 261.000976562 165.000976562 201.000976562 c 1
 195.66796875 221.66796875 237.000976562 255.334960938 289.000976562 302.001953125 c 0
 383.000976562 392.001953125 450.66796875 464.668945312 492.000976562 520.001953125 c 0
 494.000976562 522.668945312 495.66796875 525.001953125 497.000976562 527.001953125 c 0
 497.66796875 528.334960938 499.000976562 530.66796875 501.000976562 534.000976562 c 0
 505.000976562 540.66796875 508.333984375 544.66796875 511.000976562 546.000976562 c 0
 519.000976562 546.66796875 528.333984375 548.334960938 539.000976562 551.001953125 c 0
 539.66796875 549.001953125 540.000976562 546.668945312 540.000976562 544.001953125 c 0
 539.333984375 537.334960938 535.666992188 528.334960938 529 517.001953125 c 0
 523.666992188 508.334960938 514.666992188 496.001953125 502 480.001953125 c 0
 456.666992188 426.668945312 392.333984375 363.668945312 309.000976562 291.001953125 c 0
 268.333984375 255.668945312 228.666992188 223.3359375 190 194.002929688 c 1
 202 189.3359375 217.333007812 180.3359375 236 167.002929688 c 0
 261.333007812 149.002929688 280.666015625 135.002929688 293.999023438 125.002929688 c 0
 329.999023438 100.3359375 354.666015625 85.3359375 367.999023438 80.0029296875 c 0
 385.33203125 74.0029296875 403.33203125 71.0029296875 421.999023438 71.0029296875 c 0
 434.666015625 71.0029296875 463.666015625 75.0029296875 508.999023438 83.0029296875 c 1
 508.999023438 82.0029296875 l 1
 504.33203125 78.669921875 497.999023438 74.0029296875 489.999023438 68.0029296875 c 0
 465.999023438 51.3359375 444.666015625 41.6689453125 425.999023438 39.001953125 c 0
 418.666015625 38.3349609375 411.333007812 38.001953125 404 38.001953125 c 0
 360.666992188 38.001953125 316.333984375 55.001953125 271.000976562 89.001953125 c 0
 233.000976562 117.001953125 212.66796875 132.001953125 210.000976562 134.001953125 c 0
 182.000976562 150.001953125 164.000976562 158.668945312 156.000976562 160.001953125 c 2
 152.000976562 160.001953125 l 1
 124.000976562 79.3349609375 97.0009765625 23.3349609375 71.0009765625 -7.998046875 c 0
 68.333984375 -9.998046875 66.333984375 -11.998046875 65.0009765625 -13.998046875 c 0
 41.66796875 -39.998046875 18.66796875 -52.998046875 -3.9990234375 -52.998046875 c 0
 -17.9990234375 -52.998046875 -27.33203125 -47.3310546875 -31.9990234375 -35.998046875 c 0
 -32.666015625 -33.3310546875 -32.9990234375 -30.998046875 -32.9990234375 -28.998046875 c 0
 -32.9990234375 -25.6650390625 -31.9990234375 -20.33203125 -29.9990234375 -12.9990234375 c 0
 -28.666015625 -7.666015625 -27.9990234375 -3.666015625 -27.9990234375 -0.9990234375 c 2
 -25.9990234375 0.0009765625 l 1
 -9.9990234375 -9.9990234375 l 2
 -9.33203125 -9.9990234375 -8.33203125 -10.4990234375 -6.9990234375 -11.4990234375 c 0
 -5.666015625 -12.4990234375 -4.3330078125 -13.33203125 -3 -13.9990234375 c 2
 -1 -14.9990234375 l 1
 0 -14.9990234375 l 1
 32 1.66796875 59.3330078125 34.0009765625 82 82.0009765625 c 0
 95.3330078125 109.333984375 106.333007812 135.000976562 115 159.000976562 c 0
 113.666992188 161.000976562 113 163.66796875 113 167.000976562 c 0
 113.666992188 175.66796875 118 183.000976562 126 189.000976562 c 1
 140 232.333984375 158 307.000976562 180 413.000976562 c 0
 181.333007812 421.66796875 183.333007812 433.000976562 186 447.000976562 c 0
 191.333007812 475.000976562 194 497.66796875 194 515.000976562 c 0
 193.333007812 537.000976562 190 548.333984375 184 549.000976562 c 0
 178.666992188 548.333984375 170.666992188 544.666992188 160 538 c 0
EndSplineSet
Validated: 1
EndChar

StartChar: L
Encoding: 76 76 45
Width: 474
GlyphClass: 2
Flags: W
LayerCount: 2
Fore
SplineSet
95 42 m 1
 134.333007812 82.6669921875 189.998046875 102.997070312 261.998046875 102.997070312 c 2
 267.998046875 102.997070312 l 2
 336.665039062 99.6640625 387.33203125 90.3310546875 419.999023438 74.998046875 c 0
 422.666015625 73.6650390625 424.999023438 72.33203125 426.999023438 70.9990234375 c 0
 430.999023438 68.9990234375 436.666015625 65.33203125 443.999023438 59.9990234375 c 0
 449.999023438 55.33203125 454.33203125 52.33203125 456.999023438 50.9990234375 c 0
 460.33203125 48.9990234375 464.665039062 46.33203125 469.998046875 42.9990234375 c 0
 475.998046875 38.9990234375 480.331054688 36.33203125 482.998046875 34.9990234375 c 1
 481.998046875 33.9990234375 l 1
 464.665039062 38.666015625 450.33203125 41.666015625 438.999023438 42.9990234375 c 0
 432.33203125 43.666015625 424.33203125 44.666015625 414.999023438 45.9990234375 c 2
 366.999023438 54.9990234375 l 2
 321.666015625 64.33203125 287.666015625 68.9990234375 264.999023438 68.9990234375 c 0
 230.999023438 68.9990234375 197.33203125 62.666015625 163.999023438 49.9990234375 c 0
 138.666015625 39.9990234375 118.333007812 22.9990234375 103 -1.0009765625 c 0
 101.666992188 -3.0009765625 100.333984375 -6.66796875 99.0009765625 -12.0009765625 c 0
 97.0009765625 -18.66796875 95.0009765625 -22.66796875 93.0009765625 -24.0009765625 c 0
 81.0009765625 -31.333984375 72.333984375 -35.0009765625 67.0009765625 -35.0009765625 c 0
 60.333984375 -34.333984375 56.6669921875 -29.0009765625 56 -19.0009765625 c 0
 56 -9.0009765625 57 -0.0009765625 59 7.9990234375 c 0
 63 24.666015625 86 110.999023438 128 266.999023438 c 0
 142.666992188 323.666015625 154.333984375 372.333007812 163.000976562 413 c 0
 164.333984375 421 166.000976562 431.333007812 168.000976562 444 c 0
 173.333984375 472.666992188 176.000976562 496.333984375 176.000976562 515.000976562 c 0
 175.333984375 537.000976562 172.333984375 548.333984375 167.000976562 549.000976562 c 0
 161.000976562 548.333984375 152.66796875 544.666992188 142.000976562 538 c 0
 104.000976562 515.333007812 69.333984375 488.666015625 38.0009765625 457.999023438 c 0
 37.333984375 457.33203125 36.333984375 455.999023438 35.0009765625 453.999023438 c 0
 32.333984375 449.999023438 30.333984375 447.666015625 29.0009765625 446.999023438 c 2
 9.0009765625 438.999023438 l 1
 8.333984375 440.999023438 8.0009765625 442.999023438 8.0009765625 444.999023438 c 0
 8.0009765625 453.666015625 19.0009765625 466.999023438 41.0009765625 484.999023438 c 0
 43.0009765625 486.999023438 44.66796875 488.33203125 46.0009765625 488.999023438 c 0
 48.0009765625 490.999023438 53.0009765625 494.999023438 61.0009765625 500.999023438 c 0
 117.66796875 550.999023438 158.000976562 576.33203125 182.000976562 576.999023438 c 0
 202.000976562 575.666015625 212.333984375 559.333007812 213.000976562 528 c 0
 213.000976562 506.666992188 208.000976562 468 198.000976562 412 c 0
 191.333984375 378 170.666992188 306.666992188 136 198 c 0
 116.666992188 136 103 84 95 42 c 1
EndSplineSet
Validated: 1
EndChar

StartChar: M
Encoding: 77 77 46
Width: 500
GlyphClass: 2
Flags: W
LayerCount: 2
Fore
SplineSet
456 510 m 1
 438 476 392.66796875 382.997070312 320.000976562 230.997070312 c 0
 310.000976562 209.6640625 300.66796875 190.331054688 292.000976562 172.998046875 c 0
 280.000976562 149.665039062 273.66796875 137.33203125 273.000976562 135.999023438 c 0
 270.333984375 132.666015625 260.333984375 121.666015625 243.000976562 102.999023438 c 1
 225.66796875 108.999023438 216.000976562 112.666015625 214.000976562 113.999023438 c 0
 210.66796875 117.33203125 209.000976562 126.999023438 209.000976562 142.999023438 c 0
 209.000976562 145.666015625 209.16796875 148.499023438 209.500976562 151.499023438 c 0
 209.833984375 154.499023438 210.000976562 156.999023438 210.000976562 158.999023438 c 2
 210.000976562 161.999023438 l 2
 211.333984375 178.666015625 213.666992188 204.666015625 217 239.999023438 c 0
 222.333007812 299.33203125 225 342.665039062 225 369.998046875 c 2
 225 377.998046875 l 1
 197.666992188 337.331054688 167.666992188 282.6640625 135 213.997070312 c 0
 95 127.997070312 62.3330078125 50.330078125 37 -19.0029296875 c 1
 34 -31.0029296875 l 2
 31.3330078125 -42.3359375 28.3330078125 -49.6689453125 25 -53.001953125 c 0
 9 -67.001953125 -2.6669921875 -74.3349609375 -10 -75.001953125 c 0
 -16 -73.6689453125 -19.3330078125 -68.001953125 -20 -58.001953125 c 0
 -20 -54.6689453125 -19.3330078125 -49.3359375 -18 -42.0029296875 c 0
 -16.6669921875 -37.3359375 -16 -34.0029296875 -16 -32.0029296875 c 0
 17.3330078125 157.330078125 56.3330078125 329.663085938 101 484.99609375 c 0
 107 505.663085938 114 519.99609375 122 527.99609375 c 0
 124.666992188 526.663085938 128.666992188 525.330078125 134 523.997070312 c 0
 140 521.330078125 144.333007812 519.663085938 147 518.99609375 c 0
 146.333007812 512.99609375 142.666015625 499.99609375 135.999023438 479.99609375 c 0
 90.666015625 342.663085938 53.666015625 190.99609375 24.9990234375 24.99609375 c 1
 36.33203125 49.6630859375 52.33203125 87.6630859375 72.9990234375 138.99609375 c 0
 116.999023438 247.663085938 154.666015625 326.330078125 185.999023438 374.997070312 c 0
 187.33203125 376.997070312 189.33203125 380.330078125 191.999023438 384.997070312 c 0
 207.999023438 408.997070312 221.666015625 421.6640625 232.999023438 422.997070312 c 0
 242.33203125 422.330078125 250.999023438 418.997070312 258.999023438 412.997070312 c 0
 264.33203125 407.6640625 266.999023438 397.6640625 266.999023438 382.997070312 c 2
 266.999023438 369.997070312 l 2
 266.999023438 346.6640625 262.33203125 299.331054688 252.999023438 227.998046875 c 0
 249.666015625 201.998046875 247.666015625 179.331054688 246.999023438 159.998046875 c 1
 279.666015625 209.998046875 323.999023438 293.331054688 379.999023438 409.998046875 c 2
 406.999023438 463.998046875 l 2
 437.666015625 524.665039062 458.333007812 571.33203125 469 603.999023438 c 0
 469.666992188 605.33203125 470 607.665039062 470 610.998046875 c 0
 472 617.665039062 474 621.665039062 476 622.998046875 c 0
 480 624.331054688 485.666992188 624.998046875 493 624.998046875 c 0
 495.666992188 624.998046875 500 624.665039062 506 623.998046875 c 2
 518 623.998046875 l 1
 521 623.998046875 l 1
 521 621.331054688 520.666992188 616.998046875 520 610.998046875 c 0
 519.333007812 598.998046875 518.666015625 590.331054688 517.999023438 584.998046875 c 0
 516.666015625 578.998046875 514.333007812 569.665039062 511 556.998046875 c 0
 508.333007812 548.331054688 506.333007812 541.998046875 505 537.998046875 c 0
 469 407.331054688 443 294.998046875 427 200.998046875 c 0
 413.666992188 126.998046875 406 82.3310546875 404 66.998046875 c 0
 402.666992188 54.998046875 401 42.3310546875 399 28.998046875 c 0
 398.333007812 23.6650390625 397 15.33203125 395 3.9990234375 c 0
 391.666992188 -14.0009765625 389.666992188 -27.333984375 389 -36.0009765625 c 0
 388.333007812 -47.333984375 388 -63.6669921875 388 -85 c 1
 386 -85 l 1
 378 -34.3330078125 374 2 374 24 c 0
 374 68.6669921875 380.666992188 128 394 202 c 0
 402 245.333007812 415.333007812 312.333007812 434 403 c 0
 444 451 451.333007812 486.666992188 456 510 c 1
EndSplineSet
Validated: 1
EndChar

StartChar: N
Encoding: 78 78 47
Width: 330
GlyphClass: 2
Flags: W
LayerCount: 2
Fore
SplineSet
6 -67 m 1
 3.9970703125 -67 l 2
 1.9970703125 -67 -1.0029296875 -67.3330078125 -5.0029296875 -68 c 2
 -14.0029296875 -68 l 2
 -21.3359375 -67.3330078125 -25.6689453125 -65 -27.001953125 -61 c 0
 -27.001953125 -59.6669921875 -25.6689453125 -57 -23.001953125 -53 c 2
 -19.001953125 -45 l 1
 -7.001953125 3.6669921875 11.6650390625 84.333984375 36.998046875 197.000976562 c 0
 40.3310546875 210.333984375 62.3310546875 308.000976562 102.998046875 490.000976562 c 1
 103.998046875 492.000976562 l 2
 107.998046875 505.333984375 109.665039062 511.666992188 108.998046875 511 c 1
 112.331054688 514.333007812 115.6640625 516 118.997070312 516 c 0
 123.6640625 515.333007812 128.6640625 514 133.997070312 512 c 0
 137.997070312 510 139.997070312 505.333007812 139.997070312 498 c 2
 139.997070312 494 l 2
 137.330078125 473.333007812 125.663085938 425.666015625 104.99609375 350.999023438 c 0
 103.663085938 345.666015625 102.330078125 340.999023438 100.997070312 336.999023438 c 0
 94.9970703125 314.33203125 69.9970703125 213.33203125 25.9970703125 33.9990234375 c 1
 39.330078125 60.666015625 58.330078125 99.9990234375 82.9970703125 151.999023438 c 0
 108.997070312 206.666015625 128.997070312 247.999023438 142.997070312 275.999023438 c 0
 193.6640625 376.666015625 221.331054688 431.333007812 225.998046875 440 c 0
 226.665039062 442 227.33203125 443.333007812 227.999023438 444 c 0
 237.33203125 460 243.33203125 469.333007812 245.999023438 472 c 0
 257.999023438 482.666992188 266.999023438 488 272.999023438 488 c 0
 281.666015625 488 289.333007812 480 296 464 c 0
 298.666992188 457.333007812 300.666992188 453 302 451 c 0
 300 415.666992188 291 344 275 236 c 0
 273 218 271 202.333007812 269 189 c 0
 267 172.333007812 264.333007812 154.333007812 261 135 c 0
 257.666992188 115.666992188 256 100.333984375 256 89.0009765625 c 0
 256 77.66796875 257 61.3349609375 259 40.001953125 c 0
 259.666992188 34.001953125 260 25.6689453125 260 15.001953125 c 0
 262 -13.6650390625 266.333007812 -35.998046875 273 -51.998046875 c 0
 273.666992188 -53.998046875 274.666992188 -55.8310546875 276 -57.498046875 c 0
 277.333007812 -59.1650390625 279.166015625 -61.33203125 281.499023438 -63.9990234375 c 0
 283.83203125 -66.666015625 285.499023438 -68.4990234375 286.499023438 -69.4990234375 c 0
 287.499023438 -70.4990234375 289.33203125 -72.666015625 291.999023438 -75.9990234375 c 2
 296.999023438 -79.9990234375 l 1
 295.999023438 -82.9990234375 l 2
 293.999023438 -82.9990234375 290.33203125 -83.666015625 284.999023438 -84.9990234375 c 0
 278.33203125 -86.9990234375 273.33203125 -87.9990234375 269.999023438 -87.9990234375 c 0
 259.33203125 -87.33203125 249.999023438 -78.9990234375 241.999023438 -62.9990234375 c 0
 232.666015625 -44.9990234375 225.999023438 -13.33203125 221.999023438 32.0009765625 c 1
 221.999023438 36.0009765625 l 2
 223.999023438 103.333984375 226.666015625 154.333984375 229.999023438 189.000976562 c 0
 231.999023438 210.333984375 235.999023438 242.000976562 241.999023438 284.000976562 c 0
 250.666015625 351.333984375 255.666015625 402.000976562 256.999023438 436.000976562 c 1
 249.666015625 428.000976562 239.333007812 414.000976562 226 394.000976562 c 0
 205.333007812 363.333984375 182 322.666992188 156 272 c 0
 142 244 110.666992188 172 62 56 c 0
 40.6669921875 4.6669921875 22 -36.3330078125 6 -67 c 1
EndSplineSet
Validated: 1
EndChar

StartChar: O
Encoding: 79 79 48
Width: 402
GlyphClass: 2
Flags: W
LayerCount: 2
Fore
SplineSet
51 -102 m 0
 9 -100.666992188 -12.333984375 -68.66796875 -13.0009765625 -6.0009765625 c 0
 -7.66796875 119.999023438 20.33203125 237.999023438 70.9990234375 347.999023438 c 0
 107.666015625 426.666015625 149.999023438 483.999023438 197.999023438 519.999023438 c 0
 211.999023438 529.999023438 227.33203125 534.999023438 243.999023438 534.999023438 c 0
 256.666015625 534.33203125 271.333007812 525.665039062 288 508.998046875 c 1
 274 497.998046875 l 1
 265.333007812 503.998046875 255 507.998046875 243 509.998046875 c 0
 181.666992188 508.665039062 127.666992188 441.998046875 81 309.998046875 c 0
 46.3330078125 211.331054688 25.3330078125 112.6640625 18 13.9970703125 c 0
 17.3330078125 7.9970703125 17 2.6640625 17 -2.0029296875 c 0
 18.3330078125 -45.3359375 33.666015625 -67.6689453125 62.9990234375 -69.001953125 c 1
 132.999023438 -51.001953125 197.33203125 0.3310546875 255.999023438 84.998046875 c 0
 314.666015625 170.331054688 348.333007812 259.998046875 357 353.998046875 c 0
 358.333007812 367.331054688 359 379.998046875 359 391.998046875 c 0
 358.333007812 439.998046875 345.666015625 466.665039062 320.999023438 471.998046875 c 1
 272.999023438 464.665039062 236.666015625 430.665039062 211.999023438 369.998046875 c 0
 197.999023438 334.665039062 190.999023438 296.998046875 190.999023438 256.998046875 c 0
 190.999023438 247.665039062 193.999023438 231.33203125 199.999023438 207.999023438 c 1
 198.999023438 207.999023438 l 1
 164.33203125 233.33203125 146.665039062 264.665039062 145.998046875 301.998046875 c 0
 145.998046875 350.665039062 168.998046875 399.665039062 214.998046875 448.998046875 c 0
 249.665039062 485.665039062 283.33203125 507.665039062 315.999023438 514.998046875 c 1
 355.999023438 513.665039062 380.999023438 491.665039062 390.999023438 448.998046875 c 0
 393.666015625 437.665039062 394.999023438 426.33203125 394.999023438 414.999023438 c 0
 389.666015625 326.999023438 363.333007812 233.666015625 316 134.999023438 c 0
 261.333007812 21.666015625 198 -51.6669921875 126 -85 c 0
 100.666992188 -96.3330078125 75.6669921875 -102 51 -102 c 0
EndSplineSet
Validated: 1
EndChar

StartChar: P
Encoding: 80 80 49
Width: 591
GlyphClass: 2
Flags: W
LayerCount: 2
Fore
SplineSet
154 -104 m 1
 168 -54.6669921875 187.33984375 27.6650390625 212.006835938 142.998046875 c 1
 205.33984375 148.331054688 200.33984375 155.998046875 197.006835938 165.998046875 c 0
 197.673828125 183.331054688 207.006835938 195.998046875 225.006835938 203.998046875 c 1
 242.33984375 281.331054688 259.006835938 348.6640625 275.006835938 405.997070312 c 1
 266.006835938 387.997070312 l 2
 262.006835938 379.330078125 259.006835938 373.330078125 257.006835938 369.997070312 c 2
 239.006835938 374.997070312 l 1
 244.33984375 382.997070312 251.672851562 404.6640625 261.005859375 439.997070312 c 0
 269.005859375 471.330078125 281.672851562 488.997070312 299.005859375 492.997070312 c 0
 303.672851562 494.330078125 308.005859375 494.997070312 312.005859375 494.997070312 c 0
 313.338867188 494.997070312 316.171875 494.830078125 320.504882812 494.497070312 c 0
 324.837890625 494.1640625 327.670898438 493.997070312 329.00390625 493.997070312 c 2
 332.00390625 493.997070312 l 1
 332.00390625 492.6640625 332.336914062 489.831054688 333.00390625 485.498046875 c 0
 333.670898438 481.165039062 334.00390625 478.33203125 334.00390625 476.999023438 c 0
 319.336914062 414.33203125 296.669921875 325.665039062 266.002929688 210.998046875 c 1
 305.3359375 208.998046875 338.668945312 197.998046875 366.001953125 177.998046875 c 1
 430.668945312 199.998046875 481.001953125 238.331054688 517.001953125 292.998046875 c 0
 539.001953125 326.998046875 550.334960938 359.998046875 551.001953125 391.998046875 c 0
 551.001953125 441.998046875 525.334960938 477.665039062 474.001953125 498.998046875 c 0
 446.001953125 509.665039062 413.001953125 514.998046875 375.001953125 514.998046875 c 0
 300.334960938 514.998046875 223.66796875 500.331054688 145.000976562 470.998046875 c 0
 65.66796875 440.331054688 25.3349609375 407.331054688 24.001953125 371.998046875 c 0
 24.6689453125 365.998046875 29.6689453125 359.998046875 39.001953125 353.998046875 c 1
 40.001953125 353.998046875 l 1
 31.001953125 337.998046875 l 1
 15.001953125 344.665039062 6.001953125 354.33203125 4.001953125 366.999023438 c 0
 4.001953125 425.666015625 55.3349609375 470.999023438 158.001953125 502.999023438 c 0
 229.334960938 524.999023438 303.66796875 535.999023438 381.000976562 535.999023438 c 0
 499.000976562 535.999023438 567.333984375 502.999023438 586.000976562 436.999023438 c 0
 588.66796875 425.666015625 590.000976562 414.333007812 590.000976562 403 c 0
 589.333984375 348.333007812 563.666992188 293.666015625 513 238.999023438 c 0
 454.333007812 176.33203125 385.333007812 139.999023438 306 129.999023438 c 0
 294.666992188 128.666015625 284 127.999023438 274 127.999023438 c 0
 262.666992188 127.999023438 252.666992188 128.999023438 244 130.999023438 c 1
 233.333007812 92.9990234375 218 37.9990234375 198 -34.0009765625 c 0
 188 -68.66796875 180.666992188 -94.0009765625 176 -110.000976562 c 1
 170 -107.333984375 165 -104.666992188 161 -102 c 0
 160.333007812 -102 158 -102.666992188 154 -104 c 1
338.006835938 169.999023438 m 1
 284.008789062 177 l 2
 281.341796875 177 276.674804688 176.666992188 270.0078125 176 c 0
 263.340820312 175.333007812 258.673828125 175 256.006835938 175 c 1
 256.006835938 174.333007812 255.673828125 173.333007812 255.006835938 172 c 0
 254.33984375 170 254.006835938 168.666992188 254.006835938 168 c 0
 266.006835938 164.666992188 278.006835938 163 290.006835938 163 c 0
 309.33984375 164.333007812 325.33984375 166.666015625 338.006835938 169.999023438 c 1
EndSplineSet
Validated: 1
EndChar

StartChar: Q
Encoding: 81 81 50
Width: 439
GlyphClass: 2
Flags: W
LayerCount: 2
Fore
SplineSet
220 -12 m 1
 256.666992188 -38.6669921875 282.665039062 -55 297.998046875 -61 c 0
 316.665039062 -68.3330078125 335.998046875 -72 355.998046875 -72 c 0
 365.998046875 -72 393.665039062 -68 438.998046875 -60 c 0
 440.998046875 -59.3330078125 442.331054688 -59 442.998046875 -59 c 1
 442.998046875 -60 l 1
 437.665039062 -63.3330078125 430.998046875 -68 422.998046875 -74 c 0
 399.665039062 -90.6669921875 378.998046875 -100.333984375 360.998046875 -103.000976562 c 0
 353.665039062 -103.66796875 346.33203125 -104.000976562 338.999023438 -104.000976562 c 0
 287.666015625 -103.333984375 237.333007812 -83.333984375 188 -44.0009765625 c 1
 163.333007812 -66.0009765625 121.333007812 -84.66796875 62 -100.000976562 c 0
 56 -102.000976562 52 -103.000976562 50 -103.000976562 c 1
 51 -102.000976562 l 1
 9 -100.66796875 -12.3330078125 -68.66796875 -13 -6.0009765625 c 0
 -7.6669921875 119.999023438 20.3330078125 237.999023438 71 347.999023438 c 0
 107.666992188 426.666015625 150 483.999023438 198 519.999023438 c 0
 212 529.999023438 227.333007812 534.999023438 244 534.999023438 c 0
 256.666992188 534.33203125 271.333984375 525.665039062 288.000976562 508.998046875 c 1
 274.000976562 497.998046875 l 1
 265.333984375 503.998046875 255.000976562 507.998046875 243.000976562 509.998046875 c 0
 181.66796875 508.665039062 127.66796875 441.998046875 81.0009765625 309.998046875 c 0
 46.333984375 211.331054688 25.333984375 112.6640625 18.0009765625 13.9970703125 c 0
 17.333984375 7.9970703125 17.0009765625 2.6640625 17.0009765625 -2.0029296875 c 0
 18.333984375 -45.3359375 33.6669921875 -67.6689453125 63 -69.001953125 c 1
 93.6669921875 -61.001953125 125.666992188 -44.3349609375 159 -19.001953125 c 1
 157 -17.6689453125 154.666992188 -16.001953125 152 -14.001953125 c 0
 148 -11.3349609375 145.333007812 -9.3349609375 144 -8.001953125 c 0
 140.666992188 -6.001953125 135.333984375 -2.001953125 128.000976562 3.998046875 c 0
 94.0009765625 29.998046875 68.333984375 43.3310546875 51.0009765625 43.998046875 c 1
 97.0009765625 56.998046875 l 1
 117.66796875 56.3310546875 144.334960938 43.6640625 177.001953125 18.9970703125 c 0
 183.668945312 14.330078125 188.3359375 10.9970703125 191.002929688 8.9970703125 c 0
 256.3359375 72.330078125 304.3359375 152.330078125 335.002929688 248.997070312 c 0
 351.002929688 299.6640625 359.002929688 347.331054688 359.002929688 391.998046875 c 0
 358.3359375 439.998046875 345.668945312 466.665039062 321.001953125 471.998046875 c 1
 273.001953125 464.665039062 236.668945312 430.665039062 212.001953125 369.998046875 c 0
 198.001953125 334.665039062 191.001953125 296.998046875 191.001953125 256.998046875 c 0
 191.001953125 247.665039062 194.001953125 231.33203125 200.001953125 207.999023438 c 1
 199.001953125 207.999023438 l 1
 164.334960938 233.33203125 146.66796875 264.665039062 146.000976562 301.998046875 c 0
 146.000976562 350.665039062 169.000976562 399.665039062 215.000976562 448.998046875 c 0
 249.66796875 485.665039062 283.334960938 507.665039062 316.001953125 514.998046875 c 1
 356.001953125 513.665039062 381.001953125 491.665039062 391.001953125 448.998046875 c 0
 393.668945312 437.665039062 395.001953125 426.33203125 395.001953125 414.999023438 c 0
 390.334960938 327.666015625 363.66796875 234.333007812 315.000976562 135 c 0
 286.333984375 76.3330078125 254.666992188 27.3330078125 220 -12 c 1
EndSplineSet
Validated: 1
EndChar

StartChar: R
Encoding: 82 82 51
Width: 662
GlyphClass: 2
Flags: W
LayerCount: 2
Fore
SplineSet
154 -104 m 1
 166.666992188 -59.3330078125 186.004882812 23 212.004882812 143 c 1
 205.337890625 148.333007812 200.337890625 156 197.004882812 166 c 0
 197.671875 183.333007812 207.004882812 196 225.004882812 204 c 1
 239.671875 270.666992188 256.671875 338 276.004882812 406 c 1
 274.004882812 402 270.671875 396 266.004882812 388 c 2
 257.004882812 370 l 1
 239.004882812 375 l 1
 244.337890625 383 251.670898438 404.666992188 261.00390625 440 c 0
 269.00390625 471.333007812 281.670898438 489 299.00390625 493 c 0
 303.670898438 494.333007812 308.00390625 495 312.00390625 495 c 0
 313.336914062 495 316.169921875 494.833007812 320.502929688 494.5 c 0
 324.8359375 494.166992188 327.668945312 494 329.001953125 494 c 2
 332.001953125 494 l 1
 332.001953125 492.666992188 332.334960938 490.333984375 333.001953125 487.000976562 c 0
 333.668945312 482.333984375 334.001953125 479.000976562 334.001953125 477.000976562 c 0
 319.334960938 414.333984375 296.66796875 325.666992188 266.000976562 211 c 1
 296.66796875 209 331.000976562 198.333007812 369.000976562 179 c 1
 433.000976562 201.666992188 482.66796875 240.333984375 518.000976562 295.000976562 c 0
 540.000976562 329.000976562 551.000976562 361.333984375 551.000976562 392.000976562 c 0
 551.000976562 442.000976562 525.333984375 477.66796875 474.000976562 499.000976562 c 0
 446.000976562 509.66796875 413.000976562 515.000976562 375.000976562 515.000976562 c 0
 300.333984375 515.000976562 223.666992188 500.333984375 145 471.000976562 c 0
 65.6669921875 440.333984375 25.333984375 407.333984375 24.0009765625 372.000976562 c 0
 24.66796875 366.000976562 29.66796875 360.000976562 39.0009765625 354.000976562 c 1
 40.0009765625 354.000976562 l 1
 31.0009765625 338.000976562 l 1
 15.0009765625 344.66796875 6.0009765625 354.334960938 4.0009765625 367.001953125 c 0
 4.0009765625 425.668945312 55.333984375 471.001953125 158.000976562 503.001953125 c 0
 229.333984375 525.001953125 303.666992188 536.001953125 381 536.001953125 c 0
 499 536.001953125 567.333007812 503.668945312 586 439.001953125 c 0
 588.666992188 428.334960938 590 417.334960938 590 406.001953125 c 0
 590 352.001953125 565.333007812 297.668945312 516 243.001953125 c 0
 482.666992188 206.334960938 444.666992188 178.001953125 402 158.001953125 c 1
 404.666992188 156.001953125 411.666992188 151.001953125 423 143.001953125 c 0
 444.333007812 127.668945312 457 118.668945312 461 116.001953125 c 0
 496.333007812 91.3349609375 519.666015625 76.66796875 530.999023438 72.0009765625 c 0
 549.666015625 64.66796875 568.999023438 61.0009765625 588.999023438 61.0009765625 c 0
 598.999023438 61.0009765625 626.666015625 65.0009765625 671.999023438 73.0009765625 c 0
 673.999023438 73.66796875 675.33203125 74.0009765625 675.999023438 74.0009765625 c 1
 675.999023438 73.0009765625 l 1
 671.33203125 69.66796875 664.999023438 65.0009765625 656.999023438 59.0009765625 c 0
 632.999023438 42.333984375 611.666015625 32.6669921875 592.999023438 30 c 0
 585.666015625 29.3330078125 578.333007812 29 571 29 c 0
 523 29 475 47.6669921875 427 85 c 0
 421.666992188 89 413.666992188 95.3330078125 403 104 c 0
 391.666992188 113.333007812 383 120.333007812 377 125 c 0
 375 126.333007812 371.333007812 129 366 133 c 0
 362 136.333007812 359 138.666015625 357 139.999023438 c 0
 329.666992188 131.999023438 302 127.999023438 274 127.999023438 c 0
 262.666992188 127.999023438 252.666992188 128.999023438 244 130.999023438 c 1
 233.333007812 92.9990234375 218 37.9990234375 198 -34.0009765625 c 0
 188 -68.66796875 180.666992188 -94.0009765625 176 -110.000976562 c 1
 170 -107.333984375 165 -104.666992188 161 -102 c 0
 160.333007812 -102 158 -102.666992188 154 -104 c 1
254.004882812 168 m 0
 264.004882812 164.666992188 274.33984375 163 285.006835938 163 c 0
 297.006835938 163 308.33984375 164 319.006835938 166 c 1
 312.33984375 169.333007812 305.006835938 172.333007812 297.006835938 175 c 2
 284.006835938 177 l 2
 281.33984375 177 276.672851562 176.666992188 270.005859375 176 c 0
 263.338867188 175.333007812 258.671875 175 256.004882812 175 c 1
 256.004882812 174.333007812 255.671875 173.333007812 255.004882812 172 c 0
 254.337890625 170 254.004882812 168.666992188 254.004882812 168 c 0
EndSplineSet
Validated: 1
EndChar

StartChar: S
Encoding: 83 83 52
Width: 345
GlyphClass: 2
Flags: W
LayerCount: 2
Fore
SplineSet
303 416 m 0
 301.666992188 464 280.6640625 488.331054688 239.997070312 488.998046875 c 0
 160.6640625 488.331054688 104.6640625 465.6640625 71.9970703125 420.997070312 c 0
 62.6640625 408.330078125 55.9970703125 394.330078125 51.9970703125 378.997070312 c 1
 61.9970703125 344.997070312 86.6640625 300.997070312 125.997070312 246.997070312 c 0
 165.997070312 191.6640625 191.330078125 147.331054688 201.997070312 113.998046875 c 0
 210.6640625 86.6650390625 214.997070312 58.998046875 214.997070312 30.998046875 c 0
 214.997070312 -39.001953125 194.330078125 -91.6689453125 152.997070312 -127.001953125 c 0
 129.6640625 -147.001953125 102.331054688 -158.001953125 70.998046875 -160.001953125 c 0
 44.3310546875 -160.001953125 24.998046875 -142.668945312 12.998046875 -108.001953125 c 0
 9.6650390625 -96.6689453125 7.6650390625 -85.6689453125 6.998046875 -75.001953125 c 2
 6.998046875 -50.001953125 l 2
 8.3310546875 14.6650390625 34.998046875 75.6650390625 86.998046875 132.998046875 c 1
 87.998046875 132.998046875 l 1
 69.3310546875 69.6650390625 58.3310546875 27.33203125 54.998046875 5.9990234375 c 0
 51.6650390625 -16.66796875 49.33203125 -39.66796875 47.9990234375 -63.0009765625 c 0
 50.666015625 -100.333984375 63.9990234375 -120.000976562 87.9990234375 -122.000976562 c 1
 130.666015625 -109.333984375 158.999023438 -76.6669921875 172.999023438 -24 c 0
 177.666015625 -6.6669921875 180.333007812 11.3330078125 181 30 c 0
 179.666992188 91.3330078125 155.333984375 155 108.000976562 221 c 0
 105.333984375 225 102.666992188 228.666992188 100 232 c 0
 98 235.333007812 91 245 79 261 c 0
 37.6669921875 315.666992188 16.6669921875 354 16 376 c 0
 16 430.666992188 54 472 130 500 c 0
 161.333007812 512 194 519.666992188 228 523 c 2
 253 523 l 2
 285.666992188 521 311 505.333007812 329 476 c 0
 338.333007812 460 343 443 343 425 c 0
 340.333007812 378.333007812 326.333007812 335.333007812 301 296 c 1
 272 305 l 1
 292.666992188 342.333007812 303 379.333007812 303 416 c 0
EndSplineSet
Validated: 1
EndChar

StartChar: T
Encoding: 84 84 53
Width: 622
GlyphClass: 2
Flags: W
LayerCount: 2
Fore
SplineSet
353 493 m 0
 352.333007812 491.666992188 351.997070312 489.334960938 351.997070312 486.001953125 c 0
 350.6640625 483.334960938 349.997070312 481.334960938 349.997070312 480.001953125 c 2
 271.997070312 198.001953125 l 1
 270.6640625 129.334960938 260.331054688 63.66796875 240.998046875 1.0009765625 c 0
 240.331054688 -0.9990234375 239.6640625 -3.666015625 238.997070312 -6.9990234375 c 0
 236.330078125 -15.666015625 233.663085938 -21.3330078125 230.99609375 -24 c 0
 218.99609375 -31.3330078125 210.329101562 -35 204.99609375 -35 c 0
 198.329101562 -34.3330078125 194.99609375 -29 194.99609375 -19 c 0
 194.99609375 -14.3330078125 195.663085938 -7.666015625 196.99609375 1.0009765625 c 0
 197.663085938 4.333984375 197.99609375 6.6669921875 197.99609375 8 c 0
 211.329101562 68 228.99609375 139.666992188 250.99609375 223 c 1
 244.99609375 255.666992188 216.99609375 289 166.99609375 323 c 0
 159.663085938 327.666992188 148.330078125 335 132.997070312 345 c 0
 83.6640625 376.333007812 51.9970703125 401.666015625 37.9970703125 420.999023438 c 0
 25.9970703125 438.33203125 19.9970703125 455.999023438 19.9970703125 473.999023438 c 0
 19.9970703125 475.999023438 20.9970703125 480.999023438 22.9970703125 488.999023438 c 0
 24.9970703125 490.33203125 27.9970703125 492.999023438 31.9970703125 496.999023438 c 0
 40.6640625 504.33203125 46.9970703125 508.999023438 50.9970703125 510.999023438 c 0
 83.6640625 524.33203125 167.997070312 530.999023438 303.997070312 530.999023438 c 0
 339.997070312 530.999023438 370.830078125 529.999023438 396.497070312 527.999023438 c 0
 422.1640625 525.999023438 441.331054688 523.83203125 453.998046875 521.499023438 c 0
 466.665039062 519.166015625 490.33203125 514.333007812 524.999023438 507 c 1
 525.999023438 507 l 1
 549.33203125 502.333007812 564.999023438 498.666015625 572.999023438 495.999023438 c 0
 600.33203125 482.666015625 617.33203125 475.333007812 623.999023438 474 c 0
 636.666015625 470 644.666015625 467.666992188 647.999023438 467 c 1
 646.999023438 466 l 1
 614.999023438 470 l 2
 613.666015625 470 611.333007812 469.666992188 608 469 c 0
 585.333007812 469 554.666015625 472.333007812 515.999023438 479 c 0
 466.666015625 486.333007812 412.333007812 491 353 493 c 0
324.997070312 494.000976562 m 1
 284.998046875 494.001953125 l 2
 180.331054688 494.001953125 101.331054688 487.668945312 47.998046875 475.001953125 c 1
 49.998046875 441.001953125 74.3310546875 406.668945312 120.998046875 372.001953125 c 0
 128.998046875 366.001953125 141.331054688 357.334960938 157.998046875 346.001953125 c 0
 206.665039062 312.668945312 237.998046875 285.668945312 251.998046875 265.001953125 c 0
 254.665039062 261.001953125 256.998046875 257.334960938 258.998046875 254.001953125 c 1
 264.331054688 275.334960938 272.6640625 307.001953125 283.997070312 349.001953125 c 0
 293.997070312 385.001953125 301.330078125 412.001953125 305.997070312 430.001953125 c 0
 316.6640625 467.334960938 322.997070312 488.66796875 324.997070312 494.000976562 c 1
EndSplineSet
Validated: 1
EndChar

StartChar: U
Encoding: 85 85 54
Width: 404
GlyphClass: 2
Flags: W
LayerCount: 2
Fore
SplineSet
341 422 m 0
 341.666992188 425.333007812 341.997070312 431.666992188 341.997070312 441 c 0
 344.6640625 477 350.6640625 495.333007812 359.997070312 496 c 0
 363.997070312 495.333007812 370.997070312 494.666015625 380.997070312 493.999023438 c 0
 400.330078125 492.666015625 411.663085938 491.333007812 414.99609375 490 c 1
 350.329101562 354 317.99609375 218 317.99609375 82 c 0
 317.99609375 59.3330078125 321.663085938 36.666015625 328.99609375 13.9990234375 c 1
 326.99609375 13.9990234375 l 1
 300.99609375 33.9990234375 284.99609375 64.666015625 278.99609375 105.999023438 c 0
 278.329101562 113.33203125 277.99609375 120.33203125 277.99609375 126.999023438 c 0
 277.99609375 158.999023438 282.99609375 195.999023438 292.99609375 237.999023438 c 1
 242.99609375 120.666015625 195.329101562 33.9990234375 149.99609375 -22.0009765625 c 0
 129.99609375 -46.0009765625 108.99609375 -67.0009765625 86.99609375 -85.0009765625 c 0
 83.6630859375 -87.66796875 71.330078125 -93.3349609375 49.9970703125 -102.001953125 c 0
 47.330078125 -103.334960938 44.9970703125 -104.334960938 42.9970703125 -105.001953125 c 0
 17.6640625 -100.334960938 4.6640625 -82.001953125 3.9970703125 -50.001953125 c 0
 3.9970703125 23.998046875 19.330078125 121.998046875 49.9970703125 243.998046875 c 0
 79.330078125 362.665039062 96.6630859375 448.998046875 101.99609375 502.998046875 c 0
 102.663085938 508.998046875 103.330078125 514.665039062 103.997070312 519.998046875 c 1
 88.6640625 509.331054688 70.3310546875 484.998046875 48.998046875 446.998046875 c 0
 45.6650390625 441.665039062 42.998046875 437.33203125 40.998046875 433.999023438 c 2
 27.998046875 434.999023438 l 1
 41.3310546875 494.999023438 63.998046875 533.999023438 95.998046875 551.999023438 c 0
 97.3310546875 552.666015625 99.3310546875 553.999023438 101.998046875 555.999023438 c 0
 109.998046875 561.33203125 115.998046875 563.665039062 119.998046875 562.998046875 c 0
 136.665039062 557.665039062 145.33203125 544.33203125 145.999023438 522.999023438 c 2
 145.999023438 515.999023438 l 1
 139.999023438 459.999023438 121.33203125 375.666015625 89.9990234375 262.999023438 c 0
 58.666015625 149.666015625 41.9990234375 57.666015625 39.9990234375 -13.0009765625 c 2
 39.9990234375 -32.0009765625 l 2
 39.9990234375 -60.66796875 42.666015625 -76.0009765625 47.9990234375 -78.0009765625 c 1
 141.33203125 6.666015625 225.33203125 138.999023438 299.999023438 318.999023438 c 0
 311.999023438 347.666015625 324.33203125 378.666015625 336.999023438 411.999023438 c 0
 337.666015625 413.33203125 338.333007812 414.999023438 339 416.999023438 c 0
 340.333007812 419.666015625 341 421.333007812 341 422 c 0
EndSplineSet
Validated: 1
EndChar

StartChar: V
Encoding: 86 86 55
Width: 302
GlyphClass: 2
Flags: W
LayerCount: 2
Fore
SplineSet
88 481 m 1
 65.3330078125 469.666992188 45.6640625 448.671875 28.9970703125 418.004882812 c 1
 3.9970703125 420.004882812 l 1
 23.330078125 470.671875 52.330078125 502.004882812 90.9970703125 514.004882812 c 1
 113.6640625 503.337890625 125.331054688 480.004882812 125.998046875 444.004882812 c 0
 125.998046875 412.004882812 120.331054688 342.337890625 108.998046875 235.004882812 c 0
 104.331054688 185.671875 101.998046875 144.004882812 101.998046875 110.004882812 c 0
 101.998046875 88.0048828125 102.998046875 65.671875 104.998046875 43.0048828125 c 2
 104.998046875 -0.9951171875 l 2
 105.665039062 -23.662109375 109.33203125 -38.3291015625 115.999023438 -44.99609375 c 1
 147.999023438 2.3369140625 179.666015625 78.669921875 210.999023438 184.002929688 c 0
 240.33203125 282.669921875 254.999023438 365.669921875 254.999023438 433.002929688 c 0
 254.999023438 437.002929688 252.666015625 461.669921875 247.999023438 507.002929688 c 0
 246.666015625 516.3359375 245.999023438 524.668945312 245.999023438 532.001953125 c 2
 245.999023438 540.001953125 l 2
 246.666015625 543.334960938 246.999023438 545.66796875 246.999023438 547.000976562 c 0
 246.999023438 553.66796875 244.999023438 560.66796875 240.999023438 568.000976562 c 1
 244.999023438 571.000976562 l 1
 276.999023438 555.66796875 292.999023438 522.000976562 292.999023438 470.000976562 c 0
 289.666015625 363.333984375 266.666015625 249.666992188 223.999023438 129 c 0
 217.33203125 109.666992188 206.665039062 80 191.998046875 40 c 0
 178.665039062 4 168.665039062 -23.3330078125 161.998046875 -42 c 0
 152.665039062 -64 140.998046875 -75.3330078125 126.998046875 -76 c 2
 124.998046875 -76 l 2
 123.665039062 -76 121.33203125 -76.1669921875 117.999023438 -76.5 c 0
 114.666015625 -76.8330078125 112.333007812 -77 111 -77 c 0
 86.3330078125 -73.6669921875 73.3330078125 -52 72 -12 c 2
 72 -1 l 1
 72 52 l 2
 72 84 76 183 84 349 c 0
 86.6669921875 399.666992188 88 443.666992188 88 481 c 1
EndSplineSet
Validated: 1
EndChar

StartChar: W
Encoding: 87 87 56
Width: 428
GlyphClass: 2
Flags: W
LayerCount: 2
Fore
SplineSet
72 -3 m 1
 169.333007812 102.333007812 241.000976562 225.998046875 287.000976562 367.998046875 c 1
 289.000976562 367.331054688 292.66796875 366.331054688 298.000976562 364.998046875 c 0
 313.333984375 360.331054688 322.000976562 354.6640625 324.000976562 347.997070312 c 1
 294.66796875 283.997070312 280.000976562 227.997070312 280.000976562 179.997070312 c 0
 280.66796875 175.330078125 281.000976562 167.997070312 281.000976562 157.997070312 c 0
 281.66796875 123.997070312 287.66796875 102.6640625 299.000976562 93.9970703125 c 0
 302.333984375 91.9970703125 306.000976562 90.330078125 310.000976562 88.9970703125 c 0
 343.333984375 123.6640625 365.000976562 174.6640625 375.000976562 241.997070312 c 0
 377.66796875 261.330078125 379.000976562 279.997070312 379.000976562 297.997070312 c 0
 376.333984375 417.330078125 330.666992188 489.997070312 242 515.997070312 c 1
 242.666992188 517.330078125 247.333984375 518.330078125 256.000976562 518.997070312 c 2
 258.000976562 518.997070312 l 2
 329.333984375 518.997070312 377.666992188 481.6640625 403 406.997070312 c 0
 414.333007812 374.997070312 420 338.997070312 420 298.997070312 c 0
 420 226.330078125 404.666992188 163.997070312 374 111.997070312 c 0
 360 87.9970703125 348 72.6640625 338 65.9970703125 c 0
 328 60.6640625 315.333007812 56.6640625 300 53.9970703125 c 1
 263.333007812 59.330078125 245 88.9970703125 245 142.997070312 c 0
 246.333007812 165.6640625 248.333007812 188.6640625 251 211.997070312 c 1
 209 118.6640625 170.666992188 52.9970703125 136 14.9970703125 c 0
 127.333007812 6.330078125 119 -1.669921875 111 -9.0029296875 c 0
 92.3330078125 -24.3359375 77 -32.3359375 65 -33.0029296875 c 0
 37 -32.3359375 22.6669921875 -10.0029296875 22 33.9970703125 c 0
 23.3330078125 83.9970703125 35.666015625 157.997070312 58.9990234375 255.997070312 c 0
 78.33203125 340.6640625 87.9990234375 407.6640625 87.9990234375 456.997070312 c 2
 87.9990234375 466.997070312 l 2
 88.666015625 472.997070312 88.9990234375 477.6640625 88.9990234375 480.997070312 c 1
 77.666015625 474.997070312 62.9990234375 459.997070312 44.9990234375 435.997070312 c 0
 41.666015625 431.997070312 38.9990234375 428.6640625 36.9990234375 425.997070312 c 0
 34.9990234375 425.997070312 31.33203125 426.6640625 25.9990234375 427.997070312 c 0
 21.33203125 429.330078125 17.9990234375 429.997070312 15.9990234375 429.997070312 c 1
 40.666015625 480.6640625 68.666015625 509.331054688 99.9990234375 515.998046875 c 0
 108.666015625 515.998046875 115.999023438 508.998046875 121.999023438 494.998046875 c 0
 124.666015625 488.998046875 125.999023438 483.331054688 125.999023438 477.998046875 c 0
 122.666015625 434.665039062 109.333007812 367.33203125 86 275.999023438 c 0
 64.6669921875 194.666015625 54 128.333007812 54 77 c 0
 56.6669921875 41 58.333984375 21.3330078125 59.0009765625 18 c 0
 62.333984375 8 66.6669921875 1 72 -3 c 1
EndSplineSet
Validated: 1
EndChar

StartChar: X
Encoding: 88 88 57
Width: 408
GlyphClass: 2
Flags: W
LayerCount: 2
Fore
SplineSet
347 -9 m 2
 347.666992188 -9 355.326171875 -0.0029296875 369.993164062 17.9970703125 c 0
 374.66015625 22.6640625 377.66015625 25.3310546875 378.993164062 25.998046875 c 2
 379.993164062 25.998046875 l 1
 377.993164062 21.998046875 374.993164062 14.3310546875 370.993164062 2.998046875 c 0
 359.66015625 -29.6689453125 347.66015625 -48.3359375 334.993164062 -53.0029296875 c 0
 331.66015625 -54.3359375 328.327148438 -55.0029296875 324.994140625 -55.0029296875 c 0
 301.661132812 -54.3359375 284.661132812 -36.0029296875 273.994140625 -0.0029296875 c 0
 272.661132812 3.9970703125 270.994140625 10.330078125 268.994140625 18.9970703125 c 0
 266.994140625 25.6640625 265.661132812 30.3310546875 264.994140625 32.998046875 c 0
 251.661132812 79.6650390625 236.661132812 138.665039062 219.994140625 209.998046875 c 1
 138.661132812 95.3310546875 54.328125 -0.6689453125 -33.0048828125 -78.001953125 c 1
 -34.0048828125 -78.001953125 l 1
 85.9951171875 85.3310546875 166.995117188 198.331054688 208.995117188 260.998046875 c 1
 179.662109375 383.665039062 154.329101562 472.998046875 132.99609375 528.998046875 c 1
 109.663085938 514.998046875 84.6630859375 486.998046875 57.99609375 444.998046875 c 0
 57.3291015625 442.998046875 55.99609375 440.665039062 53.99609375 437.998046875 c 0
 51.99609375 434.665039062 50.6630859375 432.33203125 49.99609375 430.999023438 c 2
 26.99609375 434.999023438 l 1
 54.99609375 492.999023438 84.3291015625 531.999023438 114.99609375 551.999023438 c 0
 121.663085938 555.999023438 128.330078125 559.666015625 134.997070312 562.999023438 c 0
 139.6640625 562.999023438 144.1640625 562.33203125 148.497070312 560.999023438 c 0
 152.830078125 559.666015625 156.830078125 557.499023438 160.497070312 554.499023438 c 0
 164.1640625 551.499023438 167.331054688 548.83203125 169.998046875 546.499023438 c 0
 172.665039062 544.166015625 175.33203125 540.333007812 177.999023438 535 c 0
 180.666015625 529.666992188 182.833007812 525.666992188 184.5 523 c 0
 186.166992188 520.333007812 188 515.666015625 190 508.999023438 c 0
 192 502.33203125 193.333007812 497.999023438 194 495.999023438 c 0
 194.666992188 493.999023438 196 489.33203125 198 481.999023438 c 2
 200 471.999023438 l 2
 217.333007812 403.999023438 230.333007812 348.666015625 239 305.999023438 c 1
 309 410.666015625 367.666992188 512.333007812 415 611 c 1
 440 607 l 1
 382 475.666992188 318.666992188 357.666992188 250 253 c 1
 271.333007812 144.333007812 292 60.666015625 312 1.9990234375 c 0
 312 -3.333984375 316 -10.6669921875 324 -20 c 0
 328 -23.3330078125 331.333007812 -25.3330078125 334 -26 c 0
 336.666992188 -22.6669921875 338.666992188 -20 340 -18 c 0
 341.333007812 -16 342.5 -14.3330078125 343.5 -13 c 0
 344.5 -11.6669921875 345.333007812 -10.6669921875 346 -10 c 2
 347 -9 l 2
EndSplineSet
Validated: 1
EndChar

StartChar: Y
Encoding: 89 89 58
Width: 419
GlyphClass: 2
Flags: W
LayerCount: 2
Fore
SplineSet
429 528 m 2
 429.998046875 528.001953125 l 1
 429.331054688 526.001953125 428.331054688 523.334960938 426.998046875 520.001953125 c 2
 423.998046875 511.001953125 l 1
 424.998046875 511.001953125 l 1
 416.331054688 482.334960938 395.331054688 395.334960938 361.998046875 250.001953125 c 0
 329.331054688 108.001953125 292.6640625 2.3349609375 251.997070312 -66.998046875 c 0
 227.997070312 -107.665039062 200.997070312 -142.665039062 170.997070312 -171.998046875 c 0
 168.330078125 -172.665039062 164.330078125 -174.33203125 158.997070312 -176.999023438 c 0
 148.997070312 -180.999023438 141.997070312 -182.999023438 137.997070312 -182.999023438 c 0
 120.6640625 -180.999023438 110.6640625 -167.666015625 107.997070312 -142.999023438 c 1
 115.997070312 -104.33203125 139.997070312 -65.33203125 179.997070312 -25.9990234375 c 0
 216.6640625 9.333984375 237.331054688 30.0009765625 241.998046875 36.0009765625 c 1
 243.998046875 35.0009765625 l 1
 221.998046875 13.66796875 197.998046875 -29.33203125 171.998046875 -93.9990234375 c 0
 166.665039062 -107.999023438 162.998046875 -117.33203125 160.998046875 -121.999023438 c 1
 174.998046875 -108.666015625 190.998046875 -85.3330078125 208.998046875 -52 c 0
 251.665039062 24.6669921875 288.998046875 124 320.998046875 246 c 1
 283.665039062 177.333007812 241.33203125 123 193.999023438 83 c 1
 184.999023438 80 l 2
 176.33203125 76 169.999023438 74 165.999023438 74 c 0
 129.33203125 80 110.999023438 125 110.999023438 209 c 0
 110.999023438 244.333007812 117.999023438 319.666015625 131.999023438 434.999023438 c 0
 135.33203125 465.666015625 136.999023438 487.333007812 136.999023438 500 c 0
 136.999023438 512.666992188 136.33203125 522.333984375 134.999023438 529.000976562 c 1
 109.666015625 509.000976562 77.3330078125 472.333984375 38 419.000976562 c 0
 30 408.333984375 23.6669921875 400.000976562 19 394.000976562 c 1
 -3 406.000976562 l 1
 4.3330078125 415.333984375 15.3330078125 429.666992188 30 449 c 0
 70 501.666992188 102 539 126 561 c 0
 130 562.333007812 140.333007812 563.666015625 157 564.999023438 c 1
 167 544.999023438 172.333007812 531.33203125 173 523.999023438 c 0
 172.333007812 510.666015625 164.666015625 456.333007812 149.999023438 361 c 0
 139.999023438 299.666992188 134.999023438 251.333984375 134.999023438 216.000976562 c 0
 135.666015625 156.66796875 147.999023438 118.000976562 171.999023438 100.000976562 c 1
 236.666015625 152.000976562 291.999023438 238.000976562 337.999023438 358.000976562 c 0
 346.666015625 381.333984375 356.333007812 408.333984375 367 439.000976562 c 0
 373 466.333984375 379.333007812 492.666992188 386 518 c 0
 386.666992188 518 388 518.333007812 390 519 c 0
 391.333007812 519.666992188 392.333007812 520 393 520 c 1
 392 522 l 1
 392.666992188 521.333007812 394 521 396 521 c 0
 411.333007812 525.666992188 422.333007812 528 429 528 c 2
391.998046875 522.001953125 m 1
 391.331054688 522.001953125 390.665039062 522.334960938 389.998046875 523.001953125 c 1
 390.998046875 522.001953125 l 1
 391.998046875 522.001953125 l 1
EndSplineSet
Validated: 1
EndChar

StartChar: Z
Encoding: 90 90 59
Width: 496
GlyphClass: 2
Flags: W
LayerCount: 2
Fore
SplineSet
257 492 m 1
 271.001953125 492.000976562 l 2
 295.668945312 492.000976562 352.3359375 497.000976562 441.002929688 507.000976562 c 0
 453.669921875 509.000976562 464.669921875 510.333984375 474.002929688 511.000976562 c 0
 489.3359375 511.000976562 499.3359375 503.66796875 504.002929688 489.000976562 c 0
 504.669921875 485.66796875 505.002929688 482.334960938 505.002929688 479.001953125 c 0
 472.3359375 400.334960938 419.3359375 310.66796875 346.002929688 210.000976562 c 1
 392.002929688 204.66796875 432.002929688 196.334960938 466.002929688 185.001953125 c 1
 444.669921875 176.334960938 408.002929688 172.001953125 356.002929688 172.001953125 c 2
 338.002929688 172.001953125 l 2
 329.3359375 172.668945312 322.668945312 173.001953125 318.001953125 173.001953125 c 0
 272.668945312 115.001953125 230.001953125 59.3349609375 190.001953125 6.001953125 c 1
 246.001953125 -5.3310546875 312.334960938 -36.998046875 389.001953125 -88.998046875 c 0
 431.001953125 -117.665039062 458.001953125 -134.665039062 470.001953125 -139.998046875 c 1
 469.001953125 -141.998046875 l 1
 440.334960938 -131.998046875 416.66796875 -125.331054688 398.000976562 -121.998046875 c 0
 388.66796875 -119.998046875 378.66796875 -117.998046875 368.000976562 -115.998046875 c 0
 356.000976562 -113.331054688 331.000976562 -101.998046875 293.000976562 -81.998046875 c 0
 248.333984375 -59.3310546875 203.000976562 -44.3310546875 157.000976562 -36.998046875 c 1
 109.000976562 -92.3310546875 59.0009765625 -129.331054688 7.0009765625 -147.998046875 c 1
 -17.666015625 -144.665039062 -31.3330078125 -130.665039062 -34 -105.998046875 c 1
 -26 -50.6650390625 5.6669921875 -14.33203125 61 3.0009765625 c 0
 80.3330078125 9.0009765625 101.333007812 12.0009765625 124 12.0009765625 c 2
 132 12.0009765625 l 1
 142 12.0009765625 l 2
 147.333007812 11.333984375 151 11.0009765625 153 11.0009765625 c 0
 192.333007812 54.333984375 235 109.000976562 281 175.000976562 c 1
 217 177.66796875 165.666992188 183.66796875 127 193.000976562 c 1
 140 222.000976562 l 2
 140.666992188 222.66796875 147.333984375 223.66796875 160.000976562 225.000976562 c 2
 235.000976562 219.000976562 l 2
 267.66796875 217.000976562 291.66796875 215.333984375 307.000976562 214.000976562 c 1
 359.000976562 292.000976562 410.000976562 374.66796875 460.000976562 462.000976562 c 0
 462.000976562 465.333984375 465.66796875 468.333984375 471.000976562 471.000976562 c 1
 467.000976562 473.66796875 460.000976562 475.000976562 450.000976562 475.000976562 c 0
 436.000976562 474.333984375 414.66796875 472.666992188 386.000976562 470 c 0
 323.333984375 464.666992188 277.000976562 462 247.000976562 462 c 0
 186.333984375 462 137.666992188 470 101 486 c 1
 117 512 l 1
 119 512 l 1
 142.333007812 500.666992188 182.333007812 494 239 492 c 2
 257 492 l 1
113.001953125 -31.9990234375 m 1
 106.000976562 -32 l 2
 103.333984375 -31.3330078125 101.333984375 -31 100.000976562 -31 c 0
 48.66796875 -31.6669921875 16.0009765625 -56 2.0009765625 -104 c 1
 10.66796875 -108 15.3349609375 -110 16.001953125 -110 c 0
 23.3349609375 -110 35.001953125 -103.333007812 51.001953125 -90 c 0
 52.3349609375 -89.3330078125 53.3349609375 -88.666015625 54.001953125 -87.9990234375 c 2
 113.001953125 -31.9990234375 l 1
EndSplineSet
Validated: 1
EndChar

StartChar: bracketleft
Encoding: 91 91 60
Width: 141
GlyphClass: 2
Flags: W
LayerCount: 2
Fore
SplineSet
10 -156 m 1
 10 -151.333007812 9.333984375 -146.666015625 8.0009765625 -141.999023438 c 2
 8.0009765625 -137.999023438 l 1
 8.0009765625 -134.999023438 l 1
 9.0009765625 -134.999023438 l 1
 15.0009765625 -46.9990234375 32.66796875 113.333984375 62.0009765625 346.000976562 c 0
 68.0009765625 392.66796875 73.0009765625 433.000976562 77.0009765625 467.000976562 c 1
 73.66796875 466.333984375 69.0009765625 466.000976562 63.0009765625 466.000976562 c 2
 61.0009765625 466.000976562 l 1
 62.0009765625 486.000976562 l 1
 102.000976562 496.000976562 130.000976562 502.000976562 146.000976562 504.000976562 c 0
 151.333984375 504.000976562 157.666992188 502.66796875 165 500.000976562 c 1
 165 497.000976562 l 1
 150.333007812 484.333984375 129.666015625 475.666992188 102.999023438 471 c 1
 102.999023438 469 l 1
 98.33203125 437.666992188 81.9990234375 300.666992188 53.9990234375 58 c 0
 45.9990234375 -12.6669921875 38.33203125 -73.333984375 30.9990234375 -124.000976562 c 1
 50.9990234375 -116.66796875 68.9990234375 -113.000976562 84.9990234375 -113.000976562 c 0
 101.666015625 -113.66796875 115.333007812 -117.000976562 126 -123.000976562 c 1
 125 -127.000976562 l 1
 113.666992188 -135.66796875 88 -142.66796875 48 -148.000976562 c 0
 37.3330078125 -150.000976562 29 -151.66796875 23 -153.000976562 c 0
 22.3330078125 -155.000976562 21.3330078125 -157.333984375 20 -160.000976562 c 0
 18 -163.333984375 16.6669921875 -165.666992188 16 -167 c 2
 14 -167 l 1
 11 -156 l 1
 10 -156 l 1
EndSplineSet
Validated: 1
EndChar

StartChar: backslash
Encoding: 92 92 61
Width: 132
GlyphClass: 2
Flags: W
LayerCount: 2
Fore
SplineSet
97 -37 m 1
 77.6669921875 25 60.6669921875 112.333984375 46 225.000976562 c 0
 38 290.333984375 30.3330078125 340.666992188 23 376 c 1
 36 379 l 1
 44 369 l 1
 72.6669921875 263 91.6669921875 129 101 -33 c 1
 101 -37 l 1
 97 -37 l 1
EndSplineSet
Validated: 1
EndChar

StartChar: bracketright
Encoding: 93 93 62
Width: 146
GlyphClass: 2
Flags: W
LayerCount: 2
Fore
SplineSet
127 493 m 1
 127 488.333007812 127.666992188 483.666015625 129 478.999023438 c 2
 129 474.999023438 l 1
 129 471.999023438 l 1
 128 471.999023438 l 1
 122 383.999023438 104.333007812 223.666015625 75 -9.0009765625 c 0
 69 -55.66796875 64 -96.0009765625 60 -130.000976562 c 1
 63.3330078125 -129.333984375 68 -129.000976562 74 -129.000976562 c 2
 76 -129.000976562 l 1
 75 -150.000976562 l 1
 41 -158.66796875 13 -164.334960938 -9 -167.001953125 c 0
 -14.3330078125 -167.001953125 -20.666015625 -165.668945312 -27.9990234375 -163.001953125 c 1
 -27.9990234375 -160.001953125 l 1
 -13.33203125 -147.334960938 7.3349609375 -138.66796875 34.001953125 -134.000976562 c 1
 34.001953125 -132.000976562 l 1
 38.6689453125 -100.66796875 55.001953125 36.33203125 83.001953125 278.999023438 c 0
 91.001953125 349.666015625 98.6689453125 410.333007812 106.001953125 461 c 1
 86.001953125 453.666992188 68.001953125 450 52.001953125 450 c 0
 35.3349609375 450.666992188 21.66796875 454 11.0009765625 460 c 1
 12.0009765625 464 l 1
 23.333984375 472 48.6669921875 478.666992188 88 484 c 0
 99.3330078125 486 108.333007812 487.666992188 115 489 c 1
 121 504 l 1
 123 504 l 1
 126 493 l 1
 127 493 l 1
EndSplineSet
Validated: 1
EndChar

StartChar: asciicircum
Encoding: 94 94 63
Width: 210
GlyphClass: 2
Flags: W
LayerCount: 2
Fore
SplineSet
186 456 m 0
 186 447.333007812 185.000976562 434.333984375 183.000976562 417.000976562 c 0
 181.66796875 401.000976562 181.000976562 390.000976562 181.000976562 384.000976562 c 2
 181.000976562 379.000976562 l 2
 179.000976562 368.333984375 175.000976562 356.666992188 169.000976562 344 c 1
 166.000976562 344 l 1
 156.000976562 356.666992188 151.000976562 379 151.000976562 411 c 0
 151.000976562 415.666992188 151.333984375 422.666992188 152.000976562 432 c 2
 152.000976562 452 l 1
 152.000976562 461 l 1
 147.333984375 456.333007812 128.333984375 433 95.0009765625 391 c 0
 78.333984375 371 63.333984375 355.333007812 50.0009765625 344 c 0
 49.333984375 344 48.1669921875 343.666992188 46.5 343 c 0
 44.8330078125 342.333007812 43.666015625 342 42.9990234375 342 c 0
 37.666015625 344 34.666015625 347 33.9990234375 351 c 0
 33.9990234375 353 34.666015625 355.666992188 35.9990234375 359 c 2
 43.9990234375 364 l 1
 70.666015625 390.666992188 102.333007812 432 139 488 c 0
 147 498.666992188 154.333007812 504.666992188 161 506 c 2
 164 506 l 1
 178.666992188 500 186 483.333007812 186 456 c 0
164.000976562 472.000976562 m 1
 166.66796875 474.000976562 169.333007812 476.333984375 172 479.000976562 c 1
 170.666992188 478.333984375 169.333984375 477.333984375 168.000976562 476.000976562 c 2
 164.000976562 472.000976562 l 1
EndSplineSet
Validated: 1
EndChar

StartChar: underscore
Encoding: 95 95 64
Width: 253
GlyphClass: 2
Flags: W
LayerCount: 2
Fore
SplineSet
-2067 -215 m 1
 -2034.33300781 -229 -1976.66601562 -238.999023438 -1893.99902344 -244.999023438 c 0
 -1879.33203125 -245.666015625 -1868.33203125 -246.333007812 -1860.99902344 -247 c 0
 -1855.66601562 -247.666992188 -1847.33300781 -248.666992188 -1836 -250 c 0
 -1825.33300781 -250.666992188 -1817.33300781 -251.333984375 -1812 -252.000976562 c 2
 -1765 -255.000976562 l 2
 -1732.33300781 -257.000976562 -1702 -260.333984375 -1674 -265.000976562 c 1
 -1681 -283.000976562 l 1
 -1682 -283.000976562 l 1
 -1683 -283.000976562 l 1
 -1684 -283.000976562 l 1
 -1685 -283.000976562 l 1
 -1686 -283.000976562 l 1
 -1687 -282.000976562 l 1
 -1688 -282.000976562 l 1
 -1689 -282.000976562 l 1
 -1690 -282.000976562 l 1
 -1691 -282.000976562 l 1
 -1692 -282.000976562 l 1
 -1693 -282.000976562 l 1
 -1694 -282.000976562 l 1
 -1695 -282.000976562 l 1
 -1696 -282.000976562 l 1
 -1697 -282.000976562 l 1
 -1698 -282.000976562 l 1
 -1699 -281.000976562 l 1
 -1700 -281.000976562 l 1
 -1701 -281.000976562 l 1
 -1702 -281.000976562 l 1
 -1703 -281.000976562 l 1
 -1704 -281.000976562 l 1
 -1705 -281.000976562 l 1
 -1706 -281.000976562 l 1
 -1707 -281.000976562 l 1
 -1708 -281.000976562 l 1
 -1709 -281.000976562 l 1
 -1710 -281.000976562 l 1
 -1711 -280.000976562 l 1
 -1712 -280.000976562 l 1
 -1713 -280.000976562 l 1
 -1714 -280.000976562 l 1
 -1715 -280.000976562 l 1
 -1716 -280.000976562 l 1
 -1717 -280.000976562 l 1
 -1718 -280.000976562 l 1
 -1719 -280.000976562 l 1
 -1720 -280.000976562 l 1
 -1721 -280.000976562 l 1
 -1722 -280.000976562 l 1
 -1723 -279.000976562 l 1
 -1724 -279.000976562 l 1
 -1725 -279.000976562 l 1
 -1726 -279.000976562 l 1
 -1727 -279.000976562 l 1
 -1728 -279.000976562 l 1
 -1729 -279.000976562 l 1
 -1730 -279.000976562 l 1
 -1731 -279.000976562 l 1
 -1732 -279.000976562 l 1
 -1733 -279.000976562 l 1
 -1734 -279.000976562 l 1
 -1735 -278.000976562 l 1
 -1736 -278.000976562 l 1
 -1737 -278.000976562 l 1
 -1738 -278.000976562 l 1
 -1739 -278.000976562 l 1
 -1740 -278.000976562 l 1
 -1741 -278.000976562 l 1
 -1742 -278.000976562 l 1
 -1743 -278.000976562 l 1
 -1744 -278.000976562 l 1
 -1745 -278.000976562 l 1
 -1746 -278.000976562 l 1
 -1747 -277.000976562 l 1
 -1748 -277.000976562 l 1
 -1749 -277.000976562 l 1
 -1750 -277.000976562 l 1
 -1751 -277.000976562 l 1
 -1752 -277.000976562 l 1
 -1753 -277.000976562 l 1
 -1754 -277.000976562 l 1
 -1755 -277.000976562 l 1
 -1756 -277.000976562 l 1
 -1757 -277.000976562 l 1
 -1758 -276.000976562 l 1
 -1759 -276.000976562 l 1
 -1760 -276.000976562 l 1
 -1761 -276.000976562 l 1
 -1762 -276.000976562 l 1
 -1763 -276.000976562 l 1
 -1764 -276.000976562 l 1
 -1765 -276.000976562 l 1
 -1766 -276.000976562 l 1
 -1767 -276.000976562 l 1
 -1768 -276.000976562 l 1
 -1769 -276.000976562 l 1
 -1770 -275.000976562 l 1
 -1771 -275.000976562 l 1
 -1772 -275.000976562 l 1
 -1773 -275.000976562 l 1
 -1774 -275.000976562 l 1
 -1775 -275.000976562 l 1
 -1776 -275.000976562 l 1
 -1777 -275.000976562 l 1
 -1778 -275.000976562 l 1
 -1779 -275.000976562 l 1
 -1780 -275.000976562 l 1
 -1781 -275.000976562 l 1
 -1782 -274.000976562 l 1
 -1783 -274.000976562 l 1
 -1784 -274.000976562 l 1
 -1785 -274.000976562 l 1
 -1786 -274.000976562 l 1
 -1787 -274.000976562 l 1
 -1788 -274.000976562 l 1
 -1789 -274.000976562 l 1
 -1790 -274.000976562 l 1
 -1791 -274.000976562 l 1
 -1792 -274.000976562 l 1
 -1793 -274.000976562 l 1
 -1794 -273.000976562 l 1
 -1795 -273.000976562 l 1
 -1796 -273.000976562 l 1
 -1797 -273.000976562 l 1
 -1798 -273.000976562 l 1
 -1799 -273.000976562 l 1
 -1800 -273.000976562 l 1
 -1801 -273.000976562 l 1
 -1802 -273.000976562 l 1
 -1803 -273.000976562 l 1
 -1804 -273.000976562 l 1
 -1805 -273.000976562 l 1
 -1806 -272.000976562 l 1
 -1807 -272.000976562 l 1
 -1808 -272.000976562 l 1
 -1809 -272.000976562 l 1
 -1810 -272.000976562 l 1
 -1811 -272.000976562 l 1
 -1812 -272.000976562 l 1
 -1813 -272.000976562 l 1
 -1814 -272.000976562 l 1
 -1815 -272.000976562 l 1
 -1816 -272.000976562 l 1
 -1817 -272.000976562 l 1
 -1818 -271.000976562 l 1
 -1819 -271.000976562 l 1
 -1820 -271.000976562 l 1
 -1821 -271.000976562 l 1
 -1822 -271.000976562 l 1
 -1824 -271.000976562 l 1
 -1938 -261.000976562 -2000 -255.333984375 -2010 -254.000976562 c 0
 -2027.33300781 -251.333984375 -2043.33300781 -248.666992188 -2058 -246 c 0
 -2077.33300781 -240 -2087.33300781 -231.666992188 -2088 -221 c 0
 -2088 -199.666992188 -2062.33300781 -187 -2011 -183 c 0
 -1992.33300781 -181.666992188 -1982 -181 -1980 -181 c 0
 -1758.66699219 -161.666992188 -1423 -147.333984375 -973 -138.000976562 c 0
 -787.666992188 -134.000976562 -654 -130.66796875 -572 -128.000976562 c 2
 -558 -128.000976562 l 2
 -534 -128.000976562 -498.333007812 -128.66796875 -451 -130.000976562 c 0
 -404.333007812 -131.333984375 -369.333007812 -132.000976562 -346 -132.000976562 c 0
 -320.666992188 -132.000976562 -302 -131.66796875 -290 -131.000976562 c 1
 -290 -132.000976562 l 1
 -461.333007812 -150.000976562 -722.333007812 -162.000976562 -1073 -168.000976562 c 0
 -1421 -173.333984375 -1672.66699219 -182.666992188 -1828 -196 c 0
 -1906 -202.666992188 -1979 -210.666992188 -2047 -220 c 0
 -2049 -220 -2052.33300781 -219.333007812 -2057 -218 c 0
 -2061.66699219 -216.666992188 -2065 -215.666992188 -2067 -215 c 1
EndSplineSet
Validated: 1
EndChar

StartChar: grave
Encoding: 96 96 65
Width: 115
GlyphClass: 2
Flags: W
LayerCount: 2
Fore
SplineSet
55 411 m 0
 55 419 52 436.334960938 46 463.001953125 c 0
 44.6669921875 469.668945312 44 475.668945312 44 481.001953125 c 0
 44.6669921875 495.668945312 49 503.668945312 57 505.001953125 c 2
 58 505.001953125 l 2
 70 505.001953125 79.3330078125 497.668945312 86 483.001953125 c 0
 89.3330078125 476.334960938 91 469.334960938 91 462.001953125 c 0
 87.6669921875 418.668945312 86 392.668945312 86 384.001953125 c 2
 86 379.001953125 l 2
 84 368.334960938 80 356.66796875 74 344.000976562 c 1
 71 344.000976562 l 1
 60.3330078125 357.333984375 55 379.666992188 55 411 c 0
EndSplineSet
Validated: 1
EndChar

StartChar: a
Encoding: 97 97 66
Width: 429
GlyphClass: 2
Flags: W
LayerCount: 2
Fore
SplineSet
331 128 m 0
 331 119.333007812 326.66796875 100.33203125 318.000976562 70.9990234375 c 0
 314.000976562 57.666015625 312.000976562 46.3330078125 312.000976562 37 c 0
 313.333984375 19.6669921875 318.000976562 10 326.000976562 8 c 0
 356.000976562 8 405.66796875 32 475.000976562 80 c 0
 496.333984375 95.3330078125 511.666992188 107.666015625 521 116.999023438 c 1
 531 103.999023438 l 1
 510.333007812 83.33203125 476 57.6650390625 428 26.998046875 c 0
 370.666992188 -9.6689453125 327.666992188 -28.001953125 299 -28.001953125 c 0
 273 -26.6689453125 259.666992188 -11.001953125 259 18.998046875 c 0
 259 32.998046875 262 50.6650390625 268 71.998046875 c 0
 268.666992188 73.998046875 269.666992188 77.3310546875 271 81.998046875 c 2
 274 90.998046875 l 2
 274.666992188 92.998046875 276 95.998046875 278 99.998046875 c 0
 280.666992188 103.998046875 282 106.665039062 282 107.998046875 c 2
 280 109.998046875 l 1
 264 101.331054688 243.666992188 89.3310546875 219 73.998046875 c 0
 175.666992188 47.3310546875 140 30.998046875 112 24.998046875 c 0
 106.666992188 23.6650390625 101.666992188 22.6650390625 97 21.998046875 c 0
 80.3330078125 21.998046875 68.666015625 29.998046875 61.9990234375 45.998046875 c 0
 59.9990234375 50.6650390625 58.9990234375 55.33203125 58.9990234375 59.9990234375 c 0
 58.9990234375 83.33203125 76.33203125 109.999023438 110.999023438 139.999023438 c 0
 154.999023438 176.666015625 200.33203125 195.333007812 246.999023438 196 c 0
 279.666015625 195.333007812 300.333007812 184 309 162 c 1
 323 158 330.333007812 146.666992188 331 128 c 0
275.000976562 152.999023438 m 1
 266.333984375 160.999023438 255.002929688 164.997070312 241.002929688 164.997070312 c 0
 199.669921875 164.997070312 157.669921875 141.997070312 115.002929688 95.9970703125 c 0
 96.3359375 75.330078125 86.6689453125 61.330078125 86.001953125 53.9970703125 c 0
 86.6689453125 47.330078125 93.001953125 43.9970703125 105.001953125 43.9970703125 c 0
 137.001953125 49.330078125 169.001953125 65.9970703125 201.001953125 93.9970703125 c 0
 232.334960938 120.6640625 252.001953125 136.997070312 260.001953125 142.997070312 c 0
 261.334960938 143.6640625 264.001953125 145.331054688 268.001953125 147.998046875 c 0
 271.334960938 150.665039062 273.66796875 152.33203125 275.000976562 152.999023438 c 1
EndSplineSet
Validated: 1
EndChar

StartChar: b
Encoding: 98 98 67
Width: 400
GlyphClass: 2
Flags: W
LayerCount: 2
Fore
SplineSet
52 -10 m 1
 90 229.333007812 128 418.99609375 166 558.99609375 c 0
 170 573.663085938 173.666992188 586.663085938 177 597.99609375 c 1
 209 598.99609375 l 1
 209 588.99609375 l 1
 203 556.99609375 191 497.663085938 173 410.99609375 c 0
 135 223.663085938 110 94.6630859375 98 23.99609375 c 1
 102.666992188 33.99609375 110 49.3291015625 120 69.99609375 c 0
 149.333007812 133.99609375 174 176.329101562 194 196.99609375 c 0
 216.666992188 218.99609375 242 229.99609375 270 229.99609375 c 0
 315.333007812 228.663085938 338.333007812 203.330078125 339 153.997070312 c 0
 339 97.9970703125 312 53.9970703125 258 21.9970703125 c 0
 256.666992188 21.330078125 255.666992188 20.6630859375 255 19.99609375 c 1
 354.333007812 25.99609375 433.666015625 58.3291015625 492.999023438 116.99609375 c 1
 502.999023438 103.99609375 l 1
 429.666015625 30.6630859375 315.333007812 -8.669921875 160 -14.0029296875 c 0
 149.333007812 -14.669921875 138.333007812 -15.0029296875 127 -15.0029296875 c 2
 115 -15.0029296875 l 1
 107.666992188 -31.0029296875 101.333984375 -44.669921875 96.0009765625 -56.0029296875 c 1
 79.333984375 -70.0029296875 68.0009765625 -77.0029296875 62.0009765625 -77.0029296875 c 0
 56.66796875 -77.669921875 52.3349609375 -73.3369140625 49.001953125 -64.00390625 c 0
 47.6689453125 -60.00390625 47.001953125 -56.3369140625 47.001953125 -53.00390625 c 0
 47.001953125 -50.3369140625 47.1689453125 -47.669921875 47.501953125 -45.0029296875 c 0
 47.8349609375 -42.3359375 48.16796875 -39.1689453125 48.5009765625 -35.501953125 c 0
 48.833984375 -31.8349609375 49.1669921875 -29.16796875 49.5 -27.5009765625 c 0
 49.8330078125 -25.833984375 50.3330078125 -22.6669921875 51 -18 c 2
 52 -10 l 1
134 26.99609375 m 1
 211.333007812 36.3291015625 262 65.3291015625 286 113.99609375 c 0
 294 131.329101562 298 150.329101562 298 170.99609375 c 0
 296 183.663085938 289.333007812 190.330078125 278 190.997070312 c 0
 234.666992188 190.330078125 186.666992188 135.663085938 134 26.99609375 c 1
EndSplineSet
Validated: 1
EndChar

StartChar: c
Encoding: 99 99 68
Width: 236
GlyphClass: 2
Flags: W
LayerCount: 2
Fore
SplineSet
156 153 m 0
 149.333007812 153 138.666015625 142.33203125 123.999023438 120.999023438 c 0
 107.33203125 96.33203125 98.9990234375 73.9990234375 98.9990234375 53.9990234375 c 0
 100.33203125 33.9990234375 112.999023438 23.666015625 136.999023438 22.9990234375 c 0
 176.33203125 22.9990234375 226.33203125 43.33203125 286.999023438 83.9990234375 c 0
 305.666015625 96.666015625 319.666015625 107.666015625 328.999023438 116.999023438 c 1
 338.999023438 103.999023438 l 1
 311.666015625 76.666015625 271.999023438 50.9990234375 219.999023438 26.9990234375 c 0
 180.666015625 8.33203125 147.333007812 -1.0009765625 120 -1.0009765625 c 0
 91.3330078125 -1.0009765625 72.666015625 10.9990234375 63.9990234375 34.9990234375 c 0
 61.33203125 41.666015625 59.9990234375 48.3330078125 59.9990234375 55 c 0
 59.9990234375 86.3330078125 74.9990234375 118.333007812 104.999023438 151 c 0
 127.666015625 175 148.666015625 187.333007812 167.999023438 188 c 0
 184.666015625 186.666992188 193.333007812 178.666992188 194 164 c 1
 190 148 l 2
 186 140 176.333007812 135 161 133 c 1
 158 134 l 2
 158 135.333007812 158.333007812 137.333007812 159 140 c 0
 159.666992188 142 160 143.333007812 160 144 c 0
 159.333007812 149.333007812 158 152.333007812 156 153 c 0
EndSplineSet
Validated: 1
EndChar

StartChar: d
Encoding: 100 100 69
Width: 390
GlyphClass: 2
Flags: W
LayerCount: 2
Fore
SplineSet
60 43 m 2
 60.0009765625 53.00390625 l 1
 76.66796875 120.336914062 115.000976562 171.669921875 175.000976562 207.002929688 c 0
 183.66796875 212.3359375 192.334960938 217.002929688 201.001953125 221.002929688 c 1
 227.668945312 266.3359375 256.668945312 323.002929688 288.001953125 391.002929688 c 0
 294.668945312 407.002929688 301.001953125 415.3359375 307.001953125 416.002929688 c 0
 314.334960938 415.3359375 324.001953125 409.002929688 336.001953125 397.002929688 c 0
 338.001953125 395.002929688 339.001953125 393.002929688 339.001953125 391.002929688 c 0
 339.001953125 388.3359375 337.334960938 383.3359375 334.001953125 376.002929688 c 0
 332.668945312 371.3359375 331.668945312 368.3359375 331.001953125 367.002929688 c 0
 330.334960938 362.3359375 328.66796875 355.3359375 326.000976562 346.002929688 c 0
 323.333984375 336.669921875 321.666992188 329.669921875 321 325.002929688 c 0
 305.666992188 260.3359375 284.333984375 179.3359375 257.000976562 82.0029296875 c 0
 230.333984375 -11.9970703125 217.000976562 -68.330078125 217.000976562 -86.9970703125 c 0
 217.66796875 -98.9970703125 221.334960938 -105.330078125 228.001953125 -105.997070312 c 0
 244.001953125 -105.997070312 290.668945312 -68.9970703125 368.001953125 5.0029296875 c 0
 392.001953125 28.3359375 430.001953125 65.6689453125 482.001953125 117.001953125 c 1
 493.001953125 104.001953125 l 1
 349.668945312 -39.3310546875 259.001953125 -118.998046875 221.001953125 -134.998046875 c 0
 214.334960938 -137.665039062 208.66796875 -138.998046875 204.000976562 -138.998046875 c 0
 191.333984375 -137.665039062 184.666992188 -125.998046875 184 -103.998046875 c 0
 184 -76.6650390625 200 1.001953125 232 129.001953125 c 2
 250 201.001953125 l 1
 238.666992188 199.668945312 227.666992188 197.001953125 217 193.001953125 c 1
 179 129.668945312 152.333007812 87.6689453125 137 67.001953125 c 0
 115 36.3349609375 97 20.66796875 83 20.0009765625 c 0
 75 20.0009765625 68.3330078125 24.333984375 63 33.0009765625 c 0
 61 36.333984375 60 39.6669921875 60 43 c 2
269.000976562 284.00390625 m 1
 265.66796875 278.670898438 261.334960938 270.3359375 256.001953125 259.002929688 c 0
 249.334960938 247.669921875 244.66796875 239.336914062 242.000976562 234.00390625 c 1
 248.66796875 235.336914062 254.000976562 236.00390625 258.000976562 236.00390625 c 0
 259.333984375 241.336914062 261.333984375 250.00390625 264.000976562 262.00390625 c 0
 266.000976562 272.00390625 267.66796875 279.336914062 269.000976562 284.00390625 c 1
104.000976562 77.001953125 m 1
 104.000976562 77.6689453125 104.66796875 78.3349609375 106.000976562 79.001953125 c 2
 108.000976562 80.001953125 l 1
 123.333984375 99.3349609375 140.333984375 123.334960938 159.000976562 152.001953125 c 1
 132.333984375 126.001953125 114.000976562 101.001953125 104.000976562 77.001953125 c 1
EndSplineSet
Validated: 5
EndChar

StartChar: e
Encoding: 101 101 70
Width: 243
GlyphClass: 2
Flags: W
LayerCount: 2
Fore
SplineSet
108 85 m 1
 103.333007812 74.3330078125 101 64.998046875 101 56.998046875 c 0
 102.333007812 34.998046875 116.666015625 23.6650390625 143.999023438 22.998046875 c 0
 183.33203125 22.998046875 233.33203125 43.3310546875 293.999023438 83.998046875 c 0
 312.666015625 96.6650390625 326.666015625 107.665039062 335.999023438 116.998046875 c 1
 345.999023438 103.998046875 l 1
 318.666015625 76.6650390625 278.999023438 50.998046875 226.999023438 26.998046875 c 0
 187.666015625 8.3310546875 154.333007812 -1.001953125 127 -1.001953125 c 0
 95.6669921875 -1.001953125 75 8.998046875 65 28.998046875 c 0
 62.3330078125 35.6650390625 61 42.33203125 61 48.9990234375 c 0
 61 86.9990234375 76 121.999023438 106 153.999023438 c 0
 122.666992188 171.33203125 139.666992188 181.999023438 157 185.999023438 c 0
 163 187.33203125 166.666992188 187.999023438 168 187.999023438 c 0
 184.666992188 186.666015625 193.333984375 178.333007812 194.000976562 163 c 0
 194.000976562 161.666992188 193.000976562 156.666992188 191.000976562 148 c 0
 182.333984375 116.666992188 161.666992188 96.6669921875 129 88 c 0
 121.666992188 86 114.666992188 85 108 85 c 1
116 104.998046875 m 1
 145.333007812 107.665039062 160.333007812 120.99609375 161 144.99609375 c 0
 160.333007812 149.663085938 158.666015625 152.330078125 155.999023438 152.997070312 c 0
 148.666015625 152.997070312 138.333007812 142.330078125 125 120.997070312 c 0
 121.666992188 115.6640625 118.666992188 110.331054688 116 104.998046875 c 1
EndSplineSet
Validated: 1
EndChar

StartChar: f
Encoding: 102 102 71
Width: 231
GlyphClass: 2
Flags: W
LayerCount: 2
Fore
SplineSet
34 -245 m 0
 34 -203.666992188 41.3310546875 -141.331054688 55.998046875 -57.998046875 c 0
 54.6650390625 -45.998046875 53.998046875 -36.998046875 53.998046875 -30.998046875 c 0
 54.6650390625 -5.6650390625 59.998046875 15.66796875 69.998046875 33.0009765625 c 0
 71.3310546875 34.333984375 72.998046875 35.6669921875 74.998046875 37 c 2
 92.998046875 127 l 2
 104.331054688 183.666992188 112.6640625 226 117.997070312 254 c 0
 129.330078125 342.666992188 135.663085938 387.666992188 136.99609375 389 c 0
 142.99609375 389.666992188 149.663085938 390 156.99609375 390 c 0
 169.663085938 389.333007812 176.330078125 384.666015625 176.997070312 375.999023438 c 0
 176.997070312 374.666015625 176.6640625 371.666015625 175.997070312 366.999023438 c 0
 174.6640625 359.666015625 173.997070312 353.666015625 173.997070312 348.999023438 c 0
 166.6640625 314.999023438 155.331054688 263.999023438 139.998046875 195.999023438 c 0
 124.665039062 128.666015625 113.33203125 77.9990234375 105.999023438 43.9990234375 c 1
 159.33203125 47.9990234375 193.665039062 51.666015625 208.998046875 54.9990234375 c 0
 254.998046875 66.33203125 293.331054688 86.9990234375 323.998046875 116.999023438 c 1
 333.998046875 103.999023438 l 1
 297.331054688 67.33203125 239.998046875 40.9990234375 161.998046875 24.9990234375 c 0
 126.665039062 16.9990234375 105.665039062 11.33203125 98.998046875 7.9990234375 c 1
 97.6650390625 1.9990234375 95.998046875 -7.0009765625 93.998046875 -19.0009765625 c 0
 91.998046875 -30.333984375 90.3310546875 -39.6669921875 88.998046875 -47 c 0
 89.6650390625 -57 91.6650390625 -73.6669921875 94.998046875 -97 c 0
 100.998046875 -145 103.998046875 -180.666992188 103.998046875 -204 c 0
 103.998046875 -240 99.998046875 -274.333007812 91.998046875 -307 c 0
 89.3310546875 -308.333007812 85.6640625 -310.666015625 80.9970703125 -313.999023438 c 0
 69.6640625 -321.33203125 60.9970703125 -324.999023438 54.9970703125 -324.999023438 c 0
 53.6640625 -324.999023438 52.3310546875 -324.499023438 50.998046875 -323.499023438 c 0
 49.6650390625 -322.499023438 48.33203125 -321.166015625 46.9990234375 -319.499023438 c 0
 45.666015625 -317.83203125 44.4990234375 -315.999023438 43.4990234375 -313.999023438 c 0
 42.4990234375 -311.999023438 41.666015625 -309.83203125 40.9990234375 -307.499023438 c 2
 38.9990234375 -300.499023438 l 2
 38.33203125 -298.166015625 37.83203125 -295.833007812 37.4990234375 -293.5 c 0
 37.166015625 -291.166992188 36.8330078125 -289.166992188 36.5 -287.5 c 0
 36.1669921875 -285.833007812 36 -284.333007812 36 -283 c 2
 36 -281 l 2
 34.6669921875 -265 34 -253 34 -245 c 0
66.998046875 -270.997070312 m 1
 70.998046875 -250.330078125 72.998046875 -228.997070312 72.998046875 -206.997070312 c 0
 72.998046875 -203.6640625 71.998046875 -188.997070312 69.998046875 -162.997070312 c 1
 66.6650390625 -189.6640625 64.998046875 -212.997070312 64.998046875 -232.997070312 c 0
 64.998046875 -250.330078125 65.6650390625 -262.997070312 66.998046875 -270.997070312 c 1
EndSplineSet
Validated: 1
EndChar

StartChar: g
Encoding: 103 103 72
Width: 370
GlyphClass: 2
Flags: W
LayerCount: 2
Fore
SplineSet
291 99 m 1
 204.333007812 56.3330078125 140.333984375 34.6650390625 99.0009765625 33.998046875 c 0
 71.66796875 35.3310546875 57.66796875 46.3310546875 57.0009765625 66.998046875 c 0
 57.0009765625 86.3310546875 76.0009765625 108.998046875 114.000976562 134.998046875 c 0
 162.000976562 168.331054688 210.000976562 184.998046875 258.000976562 184.998046875 c 0
 291.333984375 184.331054688 312.333984375 173.331054688 321.000976562 151.998046875 c 1
 334.333984375 149.331054688 341.333984375 137.998046875 342.000976562 117.998046875 c 0
 342.000976562 106.665039062 340.66796875 96.6650390625 338.000976562 87.998046875 c 0
 334.000976562 73.3310546875 327.333984375 43.3310546875 318.000976562 -2.001953125 c 0
 304.66796875 -69.3349609375 293.334960938 -120.334960938 284.001953125 -155.001953125 c 1
 312.668945312 -142.334960938 330.668945312 -134.66796875 338.001953125 -132.000976562 c 0
 404.668945312 -109.333984375 459.3359375 -97.333984375 502.002929688 -96.0009765625 c 0
 511.3359375 -96.0009765625 519.002929688 -97.0009765625 525.002929688 -99.0009765625 c 1
 516.002929688 -106.000976562 l 1
 501.3359375 -110.66796875 478.002929688 -116.66796875 446.002929688 -124.000976562 c 0
 395.3359375 -137.333984375 358.668945312 -148.000976562 336.001953125 -156.000976562 c 0
 317.334960938 -163.333984375 296.66796875 -173.000976562 274.000976562 -185.000976562 c 1
 236.66796875 -310.333984375 190.66796875 -380.666992188 136.000976562 -396 c 0
 127.333984375 -398 119.000976562 -399 111.000976562 -399 c 0
 94.333984375 -399 83.6669921875 -389 79 -369 c 0
 77.6669921875 -365 77 -361 77 -357 c 0
 77.6669921875 -297 128 -238.666992188 228 -182 c 1
 256 -90.6669921875 277 3 291 99 c 1
215.000976562 -224.000976562 m 1
 153.000976562 -270.66796875 121.666992188 -313.000976562 121 -351.000976562 c 0
 121.666992188 -352.333984375 122.333984375 -353.000976562 123.000976562 -353.000976562 c 0
 154.333984375 -351.66796875 185.000976562 -308.66796875 215.000976562 -224.000976562 c 1
287 141.999023438 m 1
 277.666992188 150.666015625 266.000976562 154.998046875 252.000976562 154.998046875 c 0
 209.333984375 154.998046875 163.666992188 134.665039062 115 93.998046875 c 0
 96.3330078125 77.998046875 86.666015625 66.998046875 85.9990234375 60.998046875 c 0
 87.33203125 54.998046875 91.6650390625 51.6650390625 98.998046875 50.998046875 c 0
 125.665039062 50.998046875 178.33203125 75.3310546875 256.999023438 123.998046875 c 0
 263.666015625 127.998046875 268.333007812 130.998046875 271 132.998046875 c 0
 273 133.665039062 275.666992188 135.33203125 279 137.999023438 c 2
 287 141.999023438 l 1
EndSplineSet
Validated: 1
EndChar

StartChar: h
Encoding: 104 104 73
Width: 391
GlyphClass: 2
Flags: W
LayerCount: 2
Fore
SplineSet
190 121 m 2
 211.333007812 140.333007812 225.6640625 151.331054688 232.997070312 153.998046875 c 0
 236.330078125 155.331054688 239.663085938 155.998046875 242.99609375 155.998046875 c 0
 246.99609375 155.998046875 249.663085938 155.665039062 250.99609375 154.998046875 c 0
 270.99609375 146.998046875 280.99609375 127.331054688 280.99609375 95.998046875 c 0
 280.99609375 90.6650390625 279.99609375 82.33203125 277.99609375 70.9990234375 c 0
 276.663085938 59.666015625 275.99609375 51.666015625 275.99609375 46.9990234375 c 0
 276.663085938 34.33203125 281.330078125 27.6650390625 289.997070312 26.998046875 c 0
 321.330078125 26.998046875 367.997070312 44.6650390625 429.997070312 79.998046875 c 0
 455.330078125 94.6650390625 472.997070312 106.998046875 482.997070312 116.998046875 c 1
 493.997070312 103.998046875 l 1
 472.6640625 82.6650390625 432.6640625 57.33203125 373.997070312 27.9990234375 c 0
 321.997070312 1.9990234375 282.6640625 -11.0009765625 255.997070312 -11.0009765625 c 1
 237.997070312 -7.0009765625 228.330078125 2.666015625 226.997070312 17.9990234375 c 0
 226.997070312 22.666015625 227.6640625 30.9990234375 228.997070312 42.9990234375 c 0
 230.330078125 61.666015625 230.997070312 76.3330078125 230.997070312 87 c 0
 230.997070312 91.6669921875 230.330078125 98.6669921875 228.997070312 108 c 1
 184.997070312 84 152.330078125 58.6669921875 130.997070312 32 c 2
 129.997070312 31 l 2
 129.330078125 30.3330078125 128.663085938 29.5 127.99609375 28.5 c 0
 127.329101562 27.5 126.329101562 26.1669921875 124.99609375 24.5 c 0
 123.663085938 22.8330078125 122.330078125 21.3330078125 120.997070312 20 c 0
 119.6640625 18.6669921875 118.331054688 17.1669921875 116.998046875 15.5 c 2
 112.998046875 10.5 l 2
 111.665039062 8.8330078125 110.498046875 7.166015625 109.498046875 5.4990234375 c 0
 108.498046875 3.83203125 107.498046875 2.4990234375 106.498046875 1.4990234375 c 0
 105.498046875 0.4990234375 104.665039062 -0.66796875 103.998046875 -2.0009765625 c 2
 101.998046875 -3.0009765625 l 2
 98.6650390625 -5.66796875 93.6650390625 -9.0009765625 86.998046875 -13.0009765625 c 0
 82.3310546875 -16.333984375 78.998046875 -18.6669921875 76.998046875 -20 c 0
 75.6650390625 -19.3330078125 72.998046875 -18.3330078125 68.998046875 -17 c 0
 57.6650390625 -11.6669921875 51.6650390625 -6 50.998046875 0 c 0
 50.998046875 6.6669921875 51.998046875 13 53.998046875 19 c 0
 129.331054688 369 168.998046875 560 172.998046875 592 c 1
 177.998046875 592 l 2
 180.665039062 592.666992188 182.33203125 593 182.999023438 593 c 0
 205.666015625 588.333007812 218.333007812 572 221 544 c 0
 221 522 187.666992188 373.333007812 121 98 c 0
 119.666992188 92.6669921875 118.666992188 89 118 87 c 0
 116 79.6669921875 110 63 100 37 c 1
 107.333007812 45 134.333007812 70 181 112 c 2
 190 121 l 2
EndSplineSet
Validated: 1
EndChar

StartChar: i
Encoding: 105 105 74
Width: 187
GlyphClass: 2
Flags: W
LayerCount: 2
Fore
SplineSet
87 92 m 0
 87 92.6669921875 87.3359375 94.66796875 88.0029296875 98.0009765625 c 0
 90.0029296875 114.000976562 92.3359375 126.333984375 95.0029296875 135.000976562 c 0
 102.3359375 152.333984375 110.668945312 161.333984375 120.001953125 162.000976562 c 1
 130.668945312 157.333984375 137.001953125 146.333984375 139.001953125 129.000976562 c 0
 139.001953125 119.66796875 137.668945312 111.000976562 135.001953125 103.000976562 c 0
 126.334960938 78.333984375 122.001953125 61.0009765625 122.001953125 51.0009765625 c 0
 123.334960938 36.333984375 129.66796875 28.6669921875 141.000976562 28 c 0
 169.66796875 28 211.66796875 53.3330078125 267.000976562 104 c 2
 280.000976562 117 l 1
 290.000976562 104 l 1
 244.000976562 58 198.333984375 26 153.000976562 8 c 0
 134.333984375 0.6669921875 118.000976562 -3 104.000976562 -3 c 0
 87.333984375 -1.6669921875 78.6669921875 10.3330078125 78 33 c 0
 78 50.3330078125 81 70 87 92 c 0
143.002929688 258.000976562 m 1
 126.3359375 272.000976562 115.3359375 289.333984375 110.002929688 310.000976562 c 0
 110.669921875 310.66796875 111.669921875 311.334960938 113.002929688 312.001953125 c 2
 137.002929688 347.001953125 l 1
 153.002929688 338.334960938 162.002929688 324.001953125 164.002929688 304.001953125 c 2
 164.002929688 302.001953125 l 1
 164.002929688 296.001953125 l 2
 163.3359375 294.001953125 163.002929688 292.334960938 163.002929688 291.001953125 c 0
 159.669921875 280.334960938 155.336914062 270.66796875 150.00390625 262.000976562 c 0
 149.336914062 260.66796875 148.669921875 259.66796875 148.002929688 259.000976562 c 2
 143.002929688 258.000976562 l 1
EndSplineSet
Validated: 1
EndChar

StartChar: j
Encoding: 106 106 75
Width: 163
GlyphClass: 2
Flags: W
LayerCount: 2
Fore
SplineSet
-91 -399 m 0
 -107.666992188 -399 -118.333007812 -389.001953125 -123 -369.001953125 c 0
 -124.333007812 -365.001953125 -125 -361.001953125 -125 -357.001953125 c 0
 -124.333007812 -298.334960938 -74.666015625 -240.66796875 24.0009765625 -184.000976562 c 1
 33.333984375 -151.333984375 47.333984375 -89.0009765625 66.0009765625 2.9990234375 c 0
 69.333984375 21.666015625 72.333984375 36.9990234375 75.0009765625 48.9990234375 c 0
 77.66796875 60.33203125 81.66796875 80.33203125 87.0009765625 108.999023438 c 1
 87.0009765625 110.999023438 l 2
 87.0009765625 111.666015625 87.16796875 112.666015625 87.5009765625 113.999023438 c 2
 88.5009765625 117.999023438 l 2
 88.833984375 119.33203125 89.1669921875 120.999023438 89.5 122.999023438 c 2
 90.5 128.999023438 l 1
 91.5 134.999023438 l 1
 92.5 140.999023438 l 2
 92.8330078125 142.999023438 93.166015625 144.666015625 93.4990234375 145.999023438 c 0
 93.83203125 147.33203125 94.33203125 148.33203125 94.9990234375 148.999023438 c 2
 95.9990234375 149.999023438 l 1
 102.999023438 149.999023438 l 2
 108.33203125 149.999023438 116.33203125 148.999023438 126.999023438 146.999023438 c 0
 134.999023438 145.666015625 140.666015625 144.999023438 143.999023438 144.999023438 c 1
 143.999023438 142.999023438 l 1
 143.999023438 126.999023438 l 2
 143.999023438 117.666015625 135.33203125 76.3330078125 117.999023438 3 c 1
 116.999023438 2 l 1
 116.999023438 1 l 1
 103.666015625 -60.3330078125 91.3330078125 -112.333007812 80 -155 c 1
 89.3330078125 -151 108 -143.333007812 136 -132 c 0
 202.666992188 -109.333007812 257.333984375 -97.3330078125 300.000976562 -96 c 0
 310.000976562 -96 318.000976562 -97 324.000976562 -99 c 1
 314.000976562 -106 l 1
 299.333984375 -110.666992188 276.000976562 -116.666992188 244.000976562 -124 c 0
 193.333984375 -137.333007812 156.666992188 -148 134 -156 c 0
 117.333007812 -162.666992188 96.3330078125 -172.666992188 71 -186 c 1
 27 -327.333007812 -27 -398.333007812 -91 -399 c 0
143.000976562 257.998046875 m 1
 126.333984375 271.998046875 115.333984375 289.331054688 110.000976562 309.998046875 c 0
 110.66796875 310.665039062 111.66796875 311.33203125 113.000976562 311.999023438 c 2
 137.000976562 346.999023438 l 1
 153.000976562 338.33203125 162.000976562 323.999023438 164.000976562 303.999023438 c 2
 164.000976562 301.999023438 l 1
 164.000976562 295.999023438 l 2
 163.333984375 293.999023438 163.000976562 292.33203125 163.000976562 290.999023438 c 0
 159.66796875 280.33203125 155.334960938 270.665039062 150.001953125 261.998046875 c 0
 149.334960938 260.665039062 148.66796875 259.665039062 148.000976562 258.998046875 c 2
 143.000976562 257.998046875 l 1
10.0009765625 -225.001953125 m 1
 -49.9990234375 -271.001953125 -80.333984375 -313.001953125 -81.0009765625 -351.001953125 c 0
 -80.333984375 -352.334960938 -79.6669921875 -353.334960938 -79 -354.001953125 c 0
 -48.3330078125 -352.668945312 -18.666015625 -309.668945312 10.0009765625 -225.001953125 c 1
EndSplineSet
Validated: 1
EndChar

StartChar: k
Encoding: 107 107 76
Width: 409
GlyphClass: 2
Flags: W
LayerCount: 2
Fore
SplineSet
44 -82 m 1
 37.3330078125 -71.3330078125 33.998046875 -61.3330078125 33.998046875 -52 c 0
 33.998046875 -48.6669921875 34.6650390625 -42.333984375 35.998046875 -33.0009765625 c 0
 39.3310546875 -9.66796875 47.6640625 23.6650390625 60.9970703125 66.998046875 c 0
 70.9970703125 100.331054688 102.997070312 245.998046875 156.997070312 503.998046875 c 0
 157.6640625 506.665039062 158.331054688 509.998046875 158.998046875 513.998046875 c 0
 160.331054688 519.331054688 160.998046875 522.998046875 160.998046875 524.998046875 c 0
 161.665039062 527.665039062 161.998046875 531.665039062 161.998046875 536.998046875 c 0
 163.998046875 549.665039062 165.998046875 558.665039062 167.998046875 563.998046875 c 2
 195.998046875 580.998046875 l 1
 202.665039062 572.998046875 205.998046875 561.665039062 205.998046875 546.998046875 c 0
 205.998046875 537.665039062 204.331054688 523.33203125 200.998046875 503.999023438 c 0
 176.331054688 368.666015625 148.6640625 240.999023438 117.997070312 120.999023438 c 1
 122.6640625 131.666015625 136.997070312 140.333007812 160.997070312 147 c 0
 163.6640625 147.666992188 165.331054688 148 165.998046875 148 c 0
 206.665039062 183.333007812 238.665039062 208.666015625 261.998046875 223.999023438 c 0
 287.331054688 239.999023438 305.331054688 248.666015625 315.998046875 249.999023438 c 0
 319.331054688 250.666015625 322.331054688 250.999023438 324.998046875 250.999023438 c 0
 338.331054688 247.666015625 345.998046875 239.333007812 347.998046875 226 c 0
 347.331054688 222.666992188 344.331054688 215 338.998046875 203 c 0
 313.665039062 174.333007812 272.33203125 150.333007812 214.999023438 131 c 0
 206.999023438 128.333007812 187.666015625 120.666015625 156.999023438 107.999023438 c 1
 165.666015625 78.666015625 176.999023438 54.9990234375 190.999023438 36.9990234375 c 0
 206.33203125 18.33203125 229.665039062 8.9990234375 260.998046875 8.9990234375 c 0
 313.665039062 8.9990234375 373.33203125 29.33203125 439.999023438 69.9990234375 c 0
 465.33203125 85.33203125 485.999023438 100.999023438 501.999023438 116.999023438 c 1
 511.999023438 103.999023438 l 1
 467.999023438 59.9990234375 414.666015625 24.666015625 351.999023438 -2.0009765625 c 0
 312.666015625 -18.66796875 277.666015625 -27.0009765625 246.999023438 -27.0009765625 c 0
 206.999023438 -26.333984375 176.999023438 -12.6669921875 156.999023438 14 c 0
 136.999023438 45.3330078125 124.33203125 69 118.999023438 85 c 1
 117.666015625 83.6669921875 116.333007812 82.5 115 81.5 c 2
 109 77 l 1
 105 74 l 1
 101 60 86 20.3330078125 60 -45 c 0
 58 -49.6669921875 56.3330078125 -53.6669921875 55 -57 c 0
 51 -67 49 -73 49 -75 c 0
 49 -75.6669921875 49.3330078125 -76.6669921875 50 -78 c 2
 50 -80 l 1
 44 -82 l 1
202.998046875 159 m 1
 251.665039062 173.666992188 287.33203125 191.666992188 309.999023438 213 c 0
 313.999023438 217.666992188 316.33203125 221.333984375 316.999023438 224.000976562 c 0
 316.33203125 225.333984375 314.999023438 226.000976562 312.999023438 226.000976562 c 0
 306.33203125 225.333984375 299.665039062 222.666992188 292.998046875 218 c 0
 262.331054688 204 232.331054688 184.333007812 202.998046875 159 c 1
113.998046875 105 m 1
 114.665039062 106.333007812 114.998046875 108 114.998046875 110 c 1
 114.498046875 107.5 l 1
 113.998046875 105 l 1
EndSplineSet
Validated: 1
EndChar

StartChar: l
Encoding: 108 108 77
Width: 260
GlyphClass: 2
Flags: W
LayerCount: 2
Fore
SplineSet
104 29 m 0
 104.666992188 -3 116.000976562 -19.3330078125 138.000976562 -20 c 0
 173.333984375 -20 230.333984375 13 309.000976562 79 c 0
 327.000976562 93.6669921875 341.333984375 106.333984375 352.000976562 117.000976562 c 1
 362.000976562 104.000976562 l 1
 279.333984375 21.333984375 211.333984375 -29.3330078125 158.000976562 -48 c 0
 146.000976562 -52 135.333984375 -54 126.000976562 -54 c 0
 94.66796875 -54 76.0009765625 -29 70.0009765625 21 c 1
 70.0009765625 23 l 2
 69.333984375 28.3330078125 69.0009765625 36.3330078125 69.0009765625 47 c 0
 69.0009765625 91 77.333984375 150.666992188 94.0009765625 226 c 0
 107.333984375 288 139.333984375 381.333007812 190.000976562 506 c 0
 200.66796875 533.333007812 211.66796875 554.333007812 223.000976562 569 c 2
 227.000976562 573 l 2
 243.66796875 584.333007812 255.66796875 590 263.000976562 590 c 0
 272.333984375 590 279.666992188 584.333007812 285 573 c 0
 286.333007812 569 287 565 287 561 c 0
 287 557.666992188 284 543.666992188 278 519 c 0
 254 452.333007812 208.666992188 361 142 245 c 1
 125.333007812 174.333007812 113 112.333007812 105 59 c 1
 105 48 l 2
 104.333007812 39.3330078125 104 33 104 29 c 0
169.000976562 335 m 1
 220.333984375 427 251.001953125 496.333007812 261.001953125 543 c 1
 234.334960938 499 203.66796875 429.666992188 169.000976562 335 c 1
EndSplineSet
Validated: 1
EndChar

StartChar: m
Encoding: 109 109 78
Width: 503
GlyphClass: 2
Flags: W
LayerCount: 2
Fore
SplineSet
229 55 m 1
 251.998046875 68.0029296875 l 2
 257.998046875 73.3359375 274.998046875 91.0029296875 302.998046875 121.002929688 c 0
 322.331054688 139.002929688 334.998046875 149.3359375 340.998046875 152.002929688 c 0
 346.331054688 154.669921875 350.998046875 156.002929688 354.998046875 156.002929688 c 0
 358.998046875 156.002929688 361.998046875 155.669921875 363.998046875 155.002929688 c 0
 383.331054688 146.3359375 392.998046875 126.668945312 392.998046875 96.001953125 c 0
 392.998046875 90.6689453125 392.331054688 82.3359375 390.998046875 71.0029296875 c 0
 389.665039062 59.669921875 388.998046875 51.669921875 388.998046875 47.0029296875 c 0
 389.665039062 34.3359375 393.998046875 27.6689453125 401.998046875 27.001953125 c 0
 433.331054688 27.001953125 480.331054688 45.001953125 542.998046875 81.001953125 c 0
 568.331054688 95.001953125 585.998046875 107.001953125 595.998046875 117.001953125 c 1
 605.998046875 104.001953125 l 1
 584.665039062 82.6689453125 544.998046875 57.3359375 486.998046875 28.0029296875 c 0
 434.998046875 2.0029296875 395.665039062 -10.9970703125 368.998046875 -10.9970703125 c 0
 355.665039062 -9.6640625 348.998046875 2.6689453125 348.998046875 26.001953125 c 0
 348.998046875 44.001953125 349.998046875 67.6689453125 351.998046875 97.001953125 c 2
 351.998046875 104.001953125 l 2
 351.331054688 108.001953125 350.998046875 110.668945312 350.998046875 112.001953125 c 1
 350.998046875 111.001953125 l 1
 343.665039062 103.668945312 336.998046875 97.3359375 330.998046875 92.0029296875 c 0
 326.331054688 87.3359375 318.6640625 79.0029296875 307.997070312 67.0029296875 c 2
 305.997070312 65.0029296875 l 2
 301.997070312 61.669921875 296.330078125 56.0029296875 288.997070312 48.0029296875 c 0
 268.330078125 28.0029296875 251.330078125 15.0029296875 237.997070312 9.0029296875 c 0
 233.330078125 7.0029296875 227.330078125 6.0029296875 219.997070312 6.0029296875 c 0
 196.6640625 7.3359375 184.6640625 23.3359375 183.997070312 54.0029296875 c 0
 183.997070312 58.669921875 184.330078125 66.0029296875 184.997070312 76.0029296875 c 0
 185.6640625 86.0029296875 185.997070312 93.3359375 185.997070312 98.0029296875 c 2
 185.997070312 100.002929688 l 1
 176.6640625 89.3359375 158.331054688 66.6689453125 130.998046875 32.001953125 c 1
 129.998046875 31.001953125 l 2
 129.331054688 30.3349609375 128.6640625 29.501953125 127.997070312 28.501953125 c 0
 127.330078125 27.501953125 126.330078125 26.1689453125 124.997070312 24.501953125 c 0
 123.6640625 22.8349609375 122.331054688 21.3349609375 120.998046875 20.001953125 c 0
 119.665039062 18.6689453125 118.33203125 17.1689453125 116.999023438 15.501953125 c 2
 112.999023438 10.501953125 l 2
 111.666015625 8.8349609375 110.499023438 7.16796875 109.499023438 5.5009765625 c 0
 108.499023438 3.833984375 107.499023438 2.5009765625 106.499023438 1.5009765625 c 0
 105.499023438 0.5009765625 104.666015625 -0.666015625 103.999023438 -1.9990234375 c 2
 101.999023438 -2.9990234375 l 2
 98.666015625 -5.666015625 93.666015625 -8.9990234375 86.9990234375 -12.9990234375 c 0
 82.33203125 -16.33203125 78.9990234375 -18.6650390625 76.9990234375 -19.998046875 c 0
 75.666015625 -19.3310546875 72.9990234375 -18.3310546875 68.9990234375 -16.998046875 c 0
 57.666015625 -11.6650390625 51.666015625 -5.998046875 50.9990234375 0.001953125 c 0
 50.9990234375 6.6689453125 51.9990234375 13.001953125 53.9990234375 19.001953125 c 0
 65.33203125 73.001953125 75.9990234375 136.668945312 85.9990234375 210.001953125 c 1
 90.9990234375 210.001953125 l 2
 93.666015625 210.668945312 95.3330078125 211.001953125 96 211.001953125 c 0
 118.666992188 206.334960938 131.333984375 190.001953125 134.000976562 162.001953125 c 0
 134.000976562 145.334960938 128.66796875 120.334960938 118.000976562 87.001953125 c 2
 109.000976562 60.001953125 l 1
 120.333984375 75.3349609375 132.333984375 92.66796875 145.000976562 112.000976562 c 0
 146.333984375 114.000976562 148.666992188 117.66796875 152 123.000976562 c 0
 172 147.66796875 189 160.66796875 203 162.000976562 c 0
 223 161.333984375 233.333007812 144.333984375 234 111.000976562 c 0
 234 104.333984375 233 93.6669921875 231 79 c 0
 229.666992188 67.6669921875 229 59.6669921875 229 55 c 1
EndSplineSet
Validated: 1
EndChar

StartChar: n
Encoding: 110 110 79
Width: 391
GlyphClass: 2
Flags: W
LayerCount: 2
Fore
SplineSet
190 121 m 0
 211.333007812 140.333007812 225.665039062 151.333007812 232.998046875 154 c 0
 236.331054688 155.333007812 239.6640625 156 242.997070312 156 c 0
 246.997070312 156 249.6640625 155.666992188 250.997070312 155 c 0
 270.997070312 147 280.997070312 127.333007812 280.997070312 96 c 0
 280.997070312 90.6669921875 279.997070312 82.333984375 277.997070312 71.0009765625 c 0
 276.6640625 59.66796875 275.997070312 51.66796875 275.997070312 47.0009765625 c 0
 276.6640625 34.333984375 281.331054688 27.6669921875 289.998046875 27 c 0
 321.331054688 27 367.998046875 44.6669921875 429.998046875 80 c 0
 455.331054688 94.6669921875 472.998046875 107 482.998046875 117 c 1
 493.998046875 104 l 1
 472.665039062 82.6669921875 432.665039062 57.333984375 373.998046875 28.0009765625 c 0
 321.998046875 2.0009765625 282.665039062 -10.9990234375 255.998046875 -10.9990234375 c 1
 237.998046875 -6.9990234375 228.331054688 2.66796875 226.998046875 18.0009765625 c 0
 226.998046875 22.66796875 227.665039062 31.0009765625 228.998046875 43.0009765625 c 0
 230.331054688 61.66796875 230.998046875 76.3349609375 230.998046875 87.001953125 c 0
 230.998046875 91.6689453125 230.331054688 98.6689453125 228.998046875 108.001953125 c 1
 184.998046875 84.001953125 152.331054688 58.6689453125 130.998046875 32.001953125 c 2
 129.998046875 31.001953125 l 2
 129.331054688 30.3349609375 128.6640625 29.501953125 127.997070312 28.501953125 c 0
 127.330078125 27.501953125 126.330078125 26.1689453125 124.997070312 24.501953125 c 0
 123.6640625 22.8349609375 122.331054688 21.3349609375 120.998046875 20.001953125 c 0
 119.665039062 18.6689453125 118.33203125 17.1689453125 116.999023438 15.501953125 c 2
 112.999023438 10.501953125 l 2
 111.666015625 8.8349609375 110.499023438 7.16796875 109.499023438 5.5009765625 c 0
 108.499023438 3.833984375 107.499023438 2.5009765625 106.499023438 1.5009765625 c 0
 105.499023438 0.5009765625 104.666015625 -0.666015625 103.999023438 -1.9990234375 c 2
 101.999023438 -2.9990234375 l 2
 98.666015625 -5.666015625 93.666015625 -8.9990234375 86.9990234375 -12.9990234375 c 0
 82.33203125 -16.33203125 78.9990234375 -18.6650390625 76.9990234375 -19.998046875 c 0
 75.666015625 -19.3310546875 72.9990234375 -18.3310546875 68.9990234375 -16.998046875 c 0
 57.666015625 -11.6650390625 51.666015625 -5.998046875 50.9990234375 0.001953125 c 0
 50.9990234375 6.6689453125 51.9990234375 13.001953125 53.9990234375 19.001953125 c 0
 65.33203125 73.001953125 75.9990234375 136.668945312 85.9990234375 210.001953125 c 1
 90.9990234375 210.001953125 l 2
 93.666015625 210.668945312 95.3330078125 211.001953125 96 211.001953125 c 0
 118.666992188 206.334960938 131.333984375 190.001953125 134.000976562 162.001953125 c 0
 134.000976562 145.334960938 128.66796875 120.334960938 118.000976562 87.001953125 c 0
 116.66796875 82.3349609375 114.000976562 74.66796875 110.000976562 64.0009765625 c 0
 107.333984375 57.333984375 105.666992188 52.6669921875 105 50 c 1
 112.333007812 56.6669921875 124 66 140 78 c 0
 163.333007812 96 180 110.333007812 190 121 c 0
EndSplineSet
Validated: 1
EndChar

StartChar: o
Encoding: 111 111 80
Width: 314
GlyphClass: 2
Flags: W
LayerCount: 2
Fore
SplineSet
223 57 m 1
 196.333007812 6.3330078125 164.66796875 -22.6650390625 128.000976562 -29.998046875 c 0
 122.000976562 -31.3310546875 116.66796875 -31.998046875 112.000976562 -31.998046875 c 0
 84.0009765625 -31.998046875 66.333984375 -15.998046875 59.0009765625 16.001953125 c 0
 57.66796875 24.001953125 57.0009765625 32.001953125 57.0009765625 40.001953125 c 0
 57.66796875 80.001953125 71.0009765625 119.001953125 97.0009765625 157.001953125 c 0
 98.333984375 158.334960938 103.666992188 164.66796875 113 176.000976562 c 0
 130.333007812 193.333984375 142.333007812 203.333984375 149 206.000976562 c 0
 152.333007812 207.333984375 155.333007812 208.000976562 158 208.000976562 c 2
 160 208.000976562 l 1
 162 207.000976562 l 1
 172.666992188 214.333984375 183.666992188 218.000976562 195 218.000976562 c 0
 217.666992188 218.000976562 233.666992188 204.333984375 243 177.000976562 c 0
 246.333007812 167.000976562 248 156.66796875 248 146.000976562 c 0
 248 129.333984375 244.666992188 110.666992188 238 90 c 1
 258.666992188 79.3330078125 281 74 305 74 c 0
 333.666992188 74 363 84.6669921875 393 106 c 0
 399 110 403.666992188 113.666992188 407 117 c 1
 417 104 l 1
 392.333007812 79.3330078125 358 62.3330078125 314 53 c 0
 301.333007812 50.3330078125 289.333007812 49 278 49 c 0
 258 49 239.666992188 51.6669921875 223 57 c 1
218.001953125 101.001953125 m 1
 220.668945312 115.668945312 222.002929688 127.669921875 222.002929688 137.002929688 c 0
 222.002929688 154.3359375 216.3359375 166.668945312 205.002929688 174.001953125 c 0
 202.3359375 176.001953125 199.668945312 177.001953125 197.001953125 177.001953125 c 0
 188.334960938 175.668945312 183.66796875 168.668945312 183.000976562 156.001953125 c 0
 183.66796875 135.334960938 195.334960938 117.001953125 218.001953125 101.001953125 c 1
205.002929688 65.0029296875 m 1
 172.3359375 79.0029296875 151.00390625 99.333984375 141.00390625 126.000976562 c 1
 113.670898438 76.66796875 99.6708984375 42.3349609375 99.00390625 23.001953125 c 0
 99.6708984375 5.6689453125 105.00390625 -3.3310546875 115.00390625 -3.998046875 c 0
 143.00390625 -3.998046875 168.670898438 12.3349609375 192.00390625 45.001953125 c 0
 197.336914062 51.6689453125 201.669921875 58.3359375 205.002929688 65.0029296875 c 1
EndSplineSet
Validated: 1
EndChar

